<?xml version="1.0" encoding="UTF-8"?><svg xmlns="http://www.w3.org/2000/svg" width="5in" height="2.475in" xmlns:xlink="http://www.w3.org/1999/xlink" viewBox="0 0 360 178.207"><defs><clipPath id="b"><rect x="23.035" y="2.113" width="168.871" height="94.576" fill="none"/></clipPath></defs><g id="a"><path d="M7.267,44.396h1.729l3.575,9.282h-1.742l-.871-2.457h-3.705l-.871,2.457h-1.677l3.562-9.282ZM6.696,49.986h2.834l-1.392-3.991h-.039l-1.403,3.991Z" fill="#231f20"/><g clip-path="url(#b)"><rect x="-138.849" y="9.442" width="444.629" height="85.442" fill="#ccc"/><path d="M164.58,91.619h23.515c.514,0,.899-.386.899-.9V13.106c0-.45-.385-.9-.899-.9h-23.515c-.514,0-.899.45-.899.9v77.613c0,.514.385.9.899.9" fill="#e6e6e5" fill-rule="evenodd"/><path d="M170.94,34.887h12.015c.193,0,.321-.128.321-.321v-4.562c0-.193-.128-.321-.321-.321h-12.015c-.193,0-.321.128-.321.321v4.562c0,.193.128.321.321.321M171.647,39.705v6.489c0,.514.45.964.964.964h.642c.578,0,.964-.45.964-.964v-6.489c0-.578-.386-.964-.964-.964h-.642c-.514,0-.964.385-.964.964Z" fill="#333" fill-rule="evenodd"/><path d="M170.747,21.073c0-.578-.514-1.157-1.156-1.157s-1.157.578-1.157,1.157c0,.642.514,1.156,1.157,1.156s1.156-.514,1.156-1.156Z" fill="#a7a9ac"/><path d="M170.747,17.539c0-.578-.514-1.156-1.156-1.156s-1.157.578-1.157,1.156c0,.643.514,1.157,1.157,1.157s1.156-.514,1.156-1.157Z" fill="#a7a9ac"/><path d="M170.747,24.607c0-.578-.514-1.157-1.156-1.157s-1.157.578-1.157,1.157c0,.642.514,1.157,1.157,1.157s1.156-.514,1.156-1.157Z" fill="#a7a9ac"/><path d="M184.625,78.705v3.726l1.606-1.606c.128-.128.128-.385,0-.514l-1.606-1.606M184.625,75.299l1.606-1.606c.128-.128.128-.385,0-.514l-1.606-1.606v3.726ZM184.625,68.103l1.606-1.542c.128-.193.128-.45,0-.578l-1.606-1.542v3.662ZM184.625,60.972l1.606-1.606c.128-.128.128-.385,0-.514l-1.606-1.606v3.726ZM184.625,53.776l1.606-1.542c.128-.193.128-.385,0-.578l-1.606-1.542v3.662ZM173.831,88.213l2.249,2.249c.128.128.385.128.514,0l2.249-2.249c.129-.064.129-.257,0-.321-.064-.064-.128-.128-.193-.128h-4.626c-.128,0-.257.128-.257.257s.064.193.064.193ZM181.027,88.213l2.184,2.249c.193.128.45.128.578,0l2.441-2.441c.128-.128.128-.385,0-.578l-1.157-1.092c-.128-.128-.257-.128-.385,0,0,0-.064.064-.064.128v1.028c0,.193-.129.257-.257.257h-3.148c-.128,0-.257.128-.257.257s0,.193.064.193ZM178.136,90.719h3.598c.128,0,.257-.064.257-.257,0-.064-.064-.128-.064-.128l-1.735-1.735c-.128-.128-.385-.128-.514,0l-1.735,1.735c-.064.064-.064.257,0,.321s.128.064.193.064ZM174.731,90.334l-1.606-1.606c-.128-.128-.257-.128-.385,0,0,0-.064.064-.064.128v1.478c0,.257.193.385.385.385h1.478c.193,0,.257-.064.257-.257,0-.064,0-.128-.064-.128ZM177.943,13.556l1.735,1.735c.129.128.386.128.514,0l1.735-1.735c.064-.064.064-.257,0-.321s-.128-.128-.193-.128h-3.598c-.129,0-.257.128-.257.257s.064.193.064.193ZM173.125,15.162l1.606-1.606c.128-.064.128-.257,0-.321-.064-.064-.128-.128-.193-.128h-1.478c-.193,0-.385.193-.385.385v1.542c0,.128.128.257.257.257.064,0,.128-.064.193-.128Z" fill="#fff" fill-rule="evenodd"/><path d="M186.167,28.911l.193.193c.193.193.514.193.707,0,.064-.128.128-.257.128-.386v-3.662c0-.321-.193-.514-.514-.514-.128,0-.257,0-.321.128l-1.221,1.221c-.257.193-.257.578,0,.835.064.064.257.128.386.128.321,0,.514.257.514.514v1.285c0,.128.064.193.129.257M186.167,36.107l.193.128c.193.257.514.257.707,0,.064-.064.128-.193.128-.321v-3.726c0-.257-.193-.514-.514-.514-.128,0-.257.064-.321.128l-.193.193c-.064.064-.129.193-.129.257v3.598c0,.064.064.193.129.257ZM172.675,24.735v1.606c0,.321.257.514.514.514h1.606c.257,0,.386-.128.386-.385,0-.064,0-.193-.064-.257l-1.799-1.735c-.129-.128-.386-.128-.514,0-.064.064-.128.193-.128.257ZM185.011,24.607v-2.634c0-.064,0-.193-.128-.257l-1.092-1.092c-.129-.193-.386-.193-.578,0l-2.377,2.377c-.193.193-.193.45,0,.578l2.377,2.441c.193.128.45.128.578,0l1.092-1.157c.128-.064.128-.128.128-.257ZM185.011,17.475v-2.634c0-.128,0-.193-.128-.257l-1.092-1.157c-.129-.128-.386-.128-.578,0l-2.377,2.441c-.193.128-.193.386,0,.578l2.377,2.377c.193.193.45.193.578,0l1.092-1.092c.128-.064.128-.193.128-.257ZM177.686,46.451l1.349-1.413c.193-.129.193-.386,0-.514l-1.349-1.413c-.193-.193-.514-.193-.707,0-.128.128-.193.257-.193.386v2.57c0,.321.257.514.514.514.129,0,.257-.064.386-.128ZM176.787,40.155l2.57-2.506h-2.056c-.257,0-.514.193-.514.514v1.992ZM181.413,38.485l1.799,1.863c.193.128.45.128.578,0l1.799-1.863c.257-.193.257-.514,0-.707-.064-.128-.193-.128-.321-.128h-3.469c-.321,0-.514.193-.514.514,0,.128,0,.257.129.321ZM182.055,47.479l-1.863-1.799c-.128-.193-.385-.193-.514,0l-1.863,1.799c-.193.193-.193.514,0,.707.128.129.257.193.386.193h3.469c.257,0,.514-.257.514-.514,0-.128-.064-.257-.129-.385ZM173.574,21.908l1.927-1.927c.128-.128.128-.385,0-.514l-1.927-1.928c-.193-.193-.514-.193-.707,0-.128.064-.193.257-.193.386v3.598c0,.321.257.514.514.514.129,0,.257-.064.386-.128ZM183.79,47.479l2.441-2.441c.128-.129.128-.386,0-.514l-2.441-2.441c-.129-.128-.386-.128-.578,0l-2.377,2.441c-.193.128-.193.385,0,.514l2.377,2.441c.193.193.45.193.578,0ZM180.192,43.882l2.441-2.377c.128-.193.128-.45,0-.578l-2.441-2.441c-.128-.128-.385-.128-.514,0l-2.441,2.441c-.193.128-.193.385,0,.578l2.441,2.377c.129.193.386.193.514,0ZM176.594,26.02l2.441-2.441c.193-.128.193-.385,0-.578l-2.441-2.377c-.129-.193-.386-.193-.514,0l-2.441,2.377c-.128.193-.128.45,0,.578l2.441,2.441c.128.128.385.128.514,0ZM180.192,22.422l2.441-2.441c.128-.128.128-.385,0-.514l-2.441-2.441c-.128-.128-.385-.128-.514,0l-2.441,2.441c-.193.128-.193.385,0,.514l2.441,2.441c.129.129.386.129.514,0ZM176.594,18.824l2.441-2.377c.193-.193.193-.45,0-.578l-2.441-2.441c-.129-.128-.386-.128-.514,0l-2.441,2.441c-.128.128-.128.386,0,.578l2.441,2.377c.128.193.385.193.514,0ZM187.195,43.046v-3.726c0-.257-.193-.514-.514-.514-.128,0-.257.064-.321.193l-1.992,1.927c-.128.128-.128.385,0,.578l1.992,1.928c.193.193.514.193.707,0,.064-.129.128-.257.128-.386ZM187.195,50.242v-3.726c0-.321-.193-.514-.514-.514-.128,0-.257.064-.321.128l-1.992,1.992c-.128.129-.128.386,0,.514l1.992,1.927c.193.193.514.193.707,0,.064-.064.128-.193.128-.321ZM187.195,57.374v-3.726c0-.257-.193-.514-.514-.514-.128,0-.257.064-.321.193l-1.992,1.927c-.128.128-.128.385,0,.514l1.992,1.992c.193.193.514.193.707,0,.064-.128.128-.257.128-.385ZM187.195,64.57v-3.726c0-.321-.193-.514-.514-.514-.128,0-.257.064-.321.128l-1.992,1.927c-.128.193-.128.45,0,.578l1.992,1.927c.193.193.514.193.707,0,.064-.064.128-.193.128-.321ZM187.195,71.701v-3.726c0-.257-.193-.514-.514-.514-.128,0-.257.064-.321.129l-1.992,1.992c-.128.128-.128.385,0,.514l1.992,1.992c.193.193.514.193.707,0,.064-.128.128-.257.128-.385ZM187.195,78.833v-3.662c0-.321-.193-.514-.514-.514-.128,0-.257,0-.321.128l-1.992,1.927c-.128.193-.128.385,0,.578l1.992,1.927c.193.193.514.193.707,0,.064-.064.128-.193.128-.385ZM187.195,86.029v-3.726c0-.257-.193-.514-.514-.514-.128,0-.257.064-.321.128l-1.992,1.992c-.128.128-.128.385,0,.514l1.992,1.992c.193.193.514.193.707,0,.064-.128.128-.257.128-.385ZM182.055,26.02l-1.863-1.863c-.128-.129-.385-.129-.514,0l-1.863,1.863c-.193.193-.193.514,0,.707.128.128.257.128.386.128h3.469c.257,0,.514-.193.514-.514,0-.128-.064-.257-.129-.321Z" fill="#fff" fill-rule="evenodd"/><path d="M170.362,67.332h12.336c.257,0,.386-.128.386-.385v-15.677c0-.193-.128-.385-.386-.385h-12.336c-.193,0-.386.193-.386.385v15.677c0,.257.193.385.386.385Z" fill="none" stroke="#231f20" stroke-linecap="round" stroke-linejoin="round" stroke-width=".394"/><path d="M170.233,86.35h12.593c.257,0,.386-.128.386-.385v-15.163c0-.193-.128-.386-.386-.386h-12.593c-.193,0-.386.193-.386.386v15.163c0,.257.193.385.386.385Z" fill="none" stroke="#231f20" stroke-linecap="round" stroke-linejoin="round" stroke-width=".394"/><path d="M174.795,72.215h-2.891v12.336h2.891v-.193h1.927v.193h2.827v-2.698h1.735v-1.156h.9v-4.626h-.9v-1.092h-1.735v-2.763h-2.827v.257h-1.927v-.257M175.181,52.941h-2.891v12.336h2.891v-.193h1.927v.193h2.827v-2.698h1.735v-1.156h.899v-4.626h-.899v-1.092h-1.735v-2.763h-2.827v.257h-1.927v-.257Z" fill="#292929" fill-rule="evenodd"/><polygon points="175.181 52.941 172.289 52.941 172.289 65.276 175.181 65.276 175.181 65.084 177.108 65.084 177.108 65.276 179.935 65.276 179.935 62.578 181.67 62.578 181.67 61.422 182.569 61.422 182.569 56.796 181.67 56.796 181.67 55.703 179.935 55.703 179.935 52.941 177.108 52.941 177.108 53.198 175.181 53.198 175.181 52.941" fill="#006938"/><polygon points="174.795 72.215 171.904 72.215 171.904 84.551 174.795 84.551 174.795 84.358 176.723 84.358 176.723 84.551 179.55 84.551 179.55 81.853 181.284 81.853 181.284 80.696 182.184 80.696 182.184 76.07 181.284 76.07 181.284 74.978 179.55 74.978 179.55 72.215 176.723 72.215 176.723 72.472 174.795 72.472 174.795 72.215" fill="#333"/><path d="M179.935,32.252h1.028v-.45h-1.028v.45M177.429,32.252h1.028v-.45h-1.028v.45ZM175.438,32.252h.964v-.45h-.964v.45ZM172.868,32.252h1.028v-.45h-1.028v.45Z" fill="#e6a933" fill-rule="evenodd"/><path d="M171.904,34.116h10.023c.321,0,.642-.257.642-.578v-1.285h-11.244v1.285c0,.321.257.578.578.578" fill="#2860a7" fill-rule="evenodd"/><path d="M181.862,32.252h-1.799l.257.321h1.285l.257-.321M179.871,32.252h-1.799l.257.321h1.285l.257-.321ZM177.815,32.252h-1.799l.257.321h1.285l.257-.321ZM175.823,32.252h-1.799l.257.321h1.285l.257-.321ZM173.767,32.252h-1.799l.257.321h1.285l.257-.321Z" fill="#173760" fill-rule="evenodd"/><rect x="171.84" y="32.702" width="10.216" height="1.028" fill="#1971b9"/><rect x="188.994" y="90.077" width="1.67" height="2.056" fill="#4e4e4e"/><path d="M186.424,76.07V26.342h4.24v65.791h-1.67v-13.171c0-.128,0-.193-.128-.257l-2.313-2.377c-.064-.064-.128-.128-.128-.257" fill="#676767" fill-rule="evenodd"/><path d="M186.745,27.113h3.598c.193,0,.321-.128.321-.257v-13.814c0-.128-.128-.321-.321-.321h-3.598c-.193,0-.321.193-.321.321v13.814c0,.128.128.257.321.257" fill="#a1a9d5" fill-rule="evenodd"/><path d="M188.673,32.188c0-.064,0-.129.064-.193l.514-.514c.129-.128.193-.321.193-.514v-.321h.193v-.514h-.514v.514h.193v.321c0,.193-.064.321-.193.385l-.45.45v-2.12h.128l-.257-.45-.257.45h.193v2.891l-.45-.45c-.128-.064-.193-.193-.193-.385v-.385c.128-.064.193-.257.128-.385,0-.128-.193-.193-.321-.128-.128,0-.193.193-.193.321l.193.193v.385c0,.193.064.385.257.514l.45.514c.064.064.128.128.128.193v.193c-.257.064-.385.321-.385.578.064.193.321.386.578.321.193-.064.385-.257.321-.514,0-.193-.193-.321-.321-.385v-.964M188.93,72.151c.45-.193.642-.707.45-1.156,0-.064-.064-.128-.129-.193,0-.064-.064-.064-.064,0h-.064v.385l-.514.385h-.064l-.514-.385v-.385c0-.064-.064-.129-.064-.129-.064,0-.064.064-.064.064-.321.321-.321.899.064,1.285.064.064.128.064.257.128v2.249c-.45.193-.707.707-.514,1.157.064.064.064.128.129.193s.064.064.128,0v-.321s0-.064.064-.064l.45-.385h.129l.45.385.064.064v.321q0,.064.064.064h.064c.321-.386.257-.964-.064-1.285-.064-.064-.193-.128-.257-.128v-2.249ZM187.516,42.918v.321h2.12v-.321h-2.12ZM188.544,45.295c-.45,0-.771-.321-.771-.771s.321-.771.771-.771.835.321.835.771-.386.771-.835.771ZM188.544,45.552c.578,0,1.092-.45,1.092-1.028s-.514-1.028-1.092-1.028-1.028.45-1.028,1.028.45,1.028,1.028,1.028ZM188.544,42.404c-.45,0-.771-.321-.771-.771s.321-.835.771-.835.835.385.835.835-.386.771-.835.771ZM188.544,42.661c.578,0,1.092-.45,1.092-1.028s-.514-1.092-1.092-1.092-1.028.514-1.028,1.092.45,1.028,1.028,1.028ZM187.516,40.027v.257h2.12v-.257h-2.12ZM187.516,45.809v.321h2.12v-.321h-2.12ZM187.516,58.98v.321h2.12v-.321h-2.12ZM188.544,61.357c-.45,0-.771-.321-.771-.771s.321-.771.771-.771.835.321.835.771-.386.771-.835.771ZM188.544,61.614c.578,0,1.092-.45,1.092-1.028s-.514-1.028-1.092-1.028-1.028.45-1.028,1.028.45,1.028,1.028,1.028ZM188.544,58.466c-.45,0-.771-.321-.771-.771s.321-.835.771-.835.835.385.835.835-.386.771-.835.771ZM188.544,58.723c.578,0,1.092-.45,1.092-1.028s-.514-1.092-1.092-1.092-1.028.514-1.028,1.092.45,1.028,1.028,1.028ZM187.516,56.089v.257h2.12v-.257h-2.12ZM187.516,61.871v.321h2.12v-.321h-2.12ZM186.938,68.489h3.212v-.193h-3.212v.193ZM186.938,49.985h3.212v-.193h-3.212v.193ZM186.938,36.364h3.212v-.193h-3.212v.193Z" fill="#f3f3f3" fill-rule="evenodd"/><path d="M190.343,14.263h-3.534l1.735,3.084,1.799-3.084Z" fill="#1a1a1a" fill-rule="evenodd"/><path d="M46.646,48.034c0,1.478-1.157,2.57-2.57,2.57s-2.57-1.092-2.57-2.57c0-1.413,1.156-2.57,2.57-2.57s2.57,1.156,2.57,2.57Z" fill="#e6e6e5" fill-rule="evenodd"/><path d="M68.234,32.358v-15.548h-1.028v-.514h1.028v-1.542c0-.707-.578-1.285-1.285-1.285h-7.581c-.386,0-.771.385-.771.771v.9h-.514v-2.57h-19.018v2.57h-.514v-.9c0-.385-.321-.771-.771-.771h-2.12v-.385c0-.835-.707-1.542-1.542-1.542H-2.504c-.835,0-1.542.707-1.542,1.542v.385h-1.349v37.65h1.028v.257c0,.386.321.643.642.643h37.843c.707,0,1.349-.45,1.542-1.157h.899v1.157h30.518v-1.542h1.157v-3.983h-6.425v-14.135h6.425Z" fill="#e6e6e5" fill-rule="evenodd"/><path d="M3.664,19.765c-.064.128-.128.193-.193.257-.128.064-.257.128-.385.064l-1.735-.385c-.321-.064-.578-.386-.45-.771,0-.064.064-.193.128-.257.321-.321.642-.707.964-1.028.257-.257.642-.257.899,0,.064.064.128.129.128.193l.707,1.542c.064.128.064.321-.064.385Z" fill="#fff" fill-rule="evenodd"/><path d="M6.105,35.763l-8.16,3.791c-.45.257-.964.064-1.156-.385-.064-.128-.129-.257-.129-.385v-3.726c0-.578.45-1.092,1.092-1.156l7.646-.643c.193-.064.385.128.45.321.064.578.257,1.157.45,1.735.064.193,0,.386-.193.45Z" fill="#fff" fill-rule="evenodd"/><path d="M8.032,38.847l-6.168,6.168c-.321.386-.899.386-1.285,0-.899-1.028-1.735-2.184-2.377-3.341-.257-.45-.064-1.028.385-1.221v-.064l7.967-3.662c.128-.128.385,0,.45.128.321.514.642,1.028,1.028,1.478.128.193.128.386,0,.514Z" fill="#fff" fill-rule="evenodd"/><path d="M10.924,41.095l-3.662,7.838c-.064.193-.321.321-.578.321h-.707c-.129,0-.321,0-.45-.064-1.028-.642-1.992-1.349-2.891-2.12-.385-.321-.385-.9-.064-1.285l6.168-6.168c.193-.193.385-.193.514-.064.514.385.964.771,1.478,1.028.193.128.257.321.193.514Z" fill="#fff" fill-rule="evenodd"/><path d="M22.874,24.005c-.129.128-.385.193-.514.064-.45-.385-.964-.771-1.478-1.092-.193-.064-.257-.257-.129-.45l3.662-7.903c.193-.45.771-.643,1.221-.45.771.45,1.413.9,2.12,1.349.321.257.45.707.257,1.092l-1.863,4.048c-.064.128-.128.193-.193.257l-3.084,3.084Z" fill="#fff" fill-rule="evenodd"/><path d="M23.581,38.847c-.128-.128-.128-.321,0-.514.385-.45.771-.964,1.028-1.478.128-.128.321-.257.514-.128l7.903,3.662c.45.193.642.771.45,1.221,0,0-.064,0-.064.064-.642,1.157-1.413,2.313-2.313,3.341-.321.321-.9.386-1.285.064l-.064-.064-6.168-6.168Z" fill="#fff" fill-rule="evenodd"/><path d="M20.754,41.095c-.128-.193-.064-.385.129-.514.514-.257,1.028-.643,1.478-1.028.129-.128.385-.128.514.064l6.168,6.168c.385.321.385.899,0,1.221q0,.064-.064.064c-.899.771-1.863,1.478-2.891,2.12-.129.064-.257.064-.45.064h-.707c-.257,0-.45-.128-.578-.321l-3.598-7.838Z" fill="#fff" fill-rule="evenodd"/><path d="M16.321,42.316c0-.193.193-.385.385-.385.899-.064,1.735-.257,2.634-.578.128-.064.385,0,.45.193l3.212,6.875c.193.45,0,.964-.45,1.156-.128.064-.257.064-.385.064h-4.947c-.514,0-.899-.385-.899-.899v-6.425Z" fill="#fff" fill-rule="evenodd"/><path d="M27.95,19.765c-.064-.064-.128-.257-.064-.385l.707-1.542c.193-.321.578-.45.899-.321l.128.128c.385.321.707.707,1.028,1.028.193.257.193.642-.064.9-.128.064-.193.128-.321.128l-1.735.385c-.129.064-.257,0-.321-.064-.128-.064-.193-.128-.257-.257Z" fill="#fff" fill-rule="evenodd"/><path d="M16.706,21.692c-.193,0-.385-.193-.385-.385v-6.746c0-.578.514-1.157,1.156-1.157h4.562c.578,0,1.156.578,1.156,1.157,0,.193-.064.385-.128.514l-3.277,7.003c-.064.193-.321.257-.45.193-.899-.321-1.735-.514-2.634-.578Z" fill="#fff"/><path d="M25.572,35.763c-.193-.064-.257-.257-.193-.45.193-.578.321-1.156.45-1.735,0-.193.193-.385.385-.321l7.71.643c.578.064,1.028.578,1.028,1.156v3.726c0,.45-.385.899-.899.899-.128,0-.257-.064-.385-.128l-8.095-3.791Z" fill="#fff"/><path d="M26.343,32.229c-.193-.064-.385-.193-.385-.385,0-2.441-.835-4.754-2.377-6.553-.128-.193-.128-.385,0-.514l2.955-2.955c.193-.193.385-.321.578-.321l6.425-1.478c.642-.128,1.285.257,1.413.899v10.794c0,.643-.514,1.157-1.156,1.157h-.064l-7.389-.643Z" fill="#fff"/><path d="M14.971,21.692c-.899.064-1.799.257-2.634.578-.193.064-.385,0-.514-.193l-3.212-7.003c-.321-.578-.064-1.285.514-1.542.193-.064.321-.128.514-.128h4.497c.642,0,1.156.578,1.156,1.157v6.746c0,.193-.129.385-.321.385Z" fill="#fff"/><path d="M15.293,42.316v6.425c0,.514-.385.899-.899.899h-4.947c-.45,0-.899-.385-.899-.899,0-.128.064-.257.128-.321l3.148-6.875c.128-.193.321-.257.514-.193.835.321,1.735.514,2.634.578.193,0,.321.193.321.385Z" fill="#fff"/><path d="M8.739,24.005l-3.084-3.084c-.064-.064-.129-.128-.129-.257l-1.927-4.048c-.193-.385-.064-.835.321-1.092.642-.45,1.349-.899,2.056-1.349.45-.193.964-.064,1.221.386l.064.064,3.662,7.903c.064.193,0,.386-.193.45-.514.321-.964.707-1.478,1.092-.129.128-.321.064-.514-.064Z" fill="#fff"/><path d="M5.334,32.229l-7.389.643c-.642.064-1.221-.45-1.285-1.092v-10.601c0-.643.514-1.157,1.156-1.157h.257l6.425,1.478c.193,0,.45.128.578.321l2.955,2.955c.128.128.128.321,0,.514-1.542,1.799-2.377,4.112-2.377,6.553,0,.193-.129.321-.321.385Z" fill="#fff"/><path d="M46.646,48.034c0,1.478-1.157,2.57-2.57,2.57s-2.57-1.092-2.57-2.57c0-1.413,1.156-2.57,2.57-2.57s2.57,1.156,2.57,2.57Z" fill="#ccc"/><path d="M2.571,47.97c0-1.606-1.285-2.955-2.955-2.955-1.606,0-2.955,1.349-2.955,2.955,0,1.67,1.349,2.955,2.955,2.955,1.67,0,2.955-1.285,2.955-2.955Z" fill="#fff" fill-rule="evenodd"/><path d="M34.953,47.97c0-1.606-1.285-2.955-2.955-2.955-1.606,0-2.955,1.349-2.955,2.955,0,1.67,1.349,2.955,2.955,2.955,1.67,0,2.955-1.285,2.955-2.955Z" fill="#fff" fill-rule="evenodd"/><path d="M34.953,15.588c0-1.606-1.285-2.955-2.955-2.955-1.606,0-2.955,1.349-2.955,2.955,0,1.67,1.349,2.955,2.955,2.955,1.67,0,2.955-1.285,2.955-2.955Z" fill="#fff"/><path d="M-1.541,14.882l.193.257c.257.257.257.707,0,.964l-.193.257c-.128.064-.128.193,0,.321l.128.128c.064.064.257.064.321,0l.193-.193c.321-.321.771-.321,1.028,0l.193.193c.128.064.257.064.385,0l.128-.128c.064-.128.064-.257,0-.321l-.257-.257c-.257-.257-.257-.707,0-.964l.257-.257c.064-.064.064-.193,0-.321l-.193-.129c-.064-.064-.193-.064-.321,0l-.193.193c-.257.321-.707.321-1.028,0l-.193-.193c-.064-.064-.257-.064-.321,0l-.128.129c-.128.128-.128.257,0,.321Z" fill="#e6e6e5" fill-rule="evenodd"/><path d="M-1.541,47.263l.193.257c.257.257.257.707,0,.964l-.193.257c-.128.064-.128.193,0,.321l.128.128c.064.064.257.064.321,0l.193-.193c.321-.321.771-.321,1.028,0l.193.193c.128.064.257.064.385,0l.128-.128c.064-.128.064-.257,0-.321l-.257-.257c-.257-.257-.257-.707,0-.964l.257-.257c.064-.064.064-.193,0-.321l-.193-.128c-.064-.064-.193-.064-.321,0l-.193.193c-.257.321-.707.321-1.028,0l-.193-.193c-.064-.064-.257-.064-.321,0l-.128.128c-.128.128-.128.257,0,.321Z" fill="#e6e6e5" fill-rule="evenodd"/><path d="M30.841,47.263l.193.257c.257.257.257.707,0,.964l-.193.257c-.128.064-.128.193,0,.321l.128.128c.064.064.257.064.321,0l.193-.193c.321-.321.771-.321,1.028,0l.193.193c.128.064.257.064.385,0l.128-.128c.064-.128.064-.257,0-.321l-.257-.257c-.257-.257-.257-.707,0-.964l.257-.257c.064-.064.064-.193,0-.321l-.193-.128c-.064-.064-.193-.064-.321,0l-.193.193c-.257.321-.707.321-1.028,0l-.193-.193c-.064-.064-.257-.064-.321,0l-.128.128c-.128.128-.128.257,0,.321Z" fill="#e6e6e5" fill-rule="evenodd"/><path d="M30.841,14.882l.193.257c.257.257.257.707,0,.964l-.193.257c-.128.064-.128.193,0,.321l.128.128c.064.064.257.064.321,0l.193-.193c.321-.321.771-.321,1.028,0l.193.193c.128.064.257.064.385,0l.128-.128c.064-.128.064-.257,0-.321l-.257-.257c-.257-.257-.257-.707,0-.964l.257-.257c.064-.064.064-.193,0-.321l-.193-.129c-.064-.064-.193-.064-.321,0l-.193.193c-.257.321-.707.321-1.028,0l-.193-.193c-.064-.064-.257-.064-.321,0l-.128.129c-.128.128-.128.257,0,.321Z" fill="#e6e6e5" fill-rule="evenodd"/><rect x="31.997" y="25.804" width=".771" height="4.497" fill="none"/><path d="M32.768,28.053h1.285v5.204q0,.064.064.128l.578,1.285c.064.193.128.45.128.707v3.341h-1.285v-3.534l-.578-1.221c-.128-.257-.193-.45-.193-.707v-5.204Z" fill="#ccc" fill-rule="evenodd"/><rect x="61.038" y="34.028" width="7.196" height="11.308" fill="#ececec"/><path d="M32.254,39.361v5.14c0,.385-.257.643-.642.643H.001c-.321,0-.642-.257-.642-.643v-5.14c0-.321-.257-.642-.642-.642h-2.57c-.321,0-.642.321-.642.642v5.14c0,2.506,2.056,4.497,4.497,4.497h31.611c2.506,0,4.497-1.992,4.497-4.497v-5.14c0-.321-.257-.642-.642-.642h-2.57c-.321,0-.642.321-.642.642Z" fill="#ccc" fill-rule="evenodd"/><path d="M66.949,19.508c0-1.606-1.285-2.955-2.955-2.955-1.606,0-2.955,1.349-2.955,2.955,0,1.67,1.349,2.955,2.955,2.955,1.67,0,2.955-1.285,2.955-2.955Z" fill="#ccc"/><path d="M36.945,15.717v27.691c0,.9.707,1.606,1.606,1.606h20.11c.835,0,1.606-.707,1.606-1.606V15.717c0-.899-.771-1.606-1.606-1.606h-20.11c-.899,0-1.606.707-1.606,1.606" fill="#ccc" fill-rule="evenodd"/><path d="M39.258,23.298v12.529c0,.707.321,1.349.835,1.863l5.011,4.819c.45.45,1.092.707,1.799.707h8.417c1.413,0,2.57-1.156,2.57-2.57v-22.166c0-1.413-1.157-2.57-2.57-2.57h-8.417c-.707,0-1.349.257-1.799.707l-5.011,4.819c-.514.514-.835,1.157-.835,1.863Z" fill="#fff" fill-rule="evenodd"/><polyline points="48.766 37.69 53.906 37.69 53.906 36.148 48.766 36.148 48.766 37.69" fill="#ccc" fill-rule="evenodd"/><rect x="43.305" y="28.824" width="5.14" height="1.542" fill="#ccc"/><rect x="48.766" y="21.435" width="5.14" height="1.542" fill="#ccc"/><path d="M65.535,19.508c0-.835-.707-1.542-1.542-1.542s-1.542.707-1.542,1.542c0,.899.707,1.542,1.542,1.542s1.542-.643,1.542-1.542Z" fill="#e6e6e5" fill-rule="evenodd"/><path d="M59.753,49.319h2.056c.578,0,1.028-.45,1.028-1.028v-17.219c0-.514-.45-1.028-1.028-1.028h-2.056c-.578,0-1.028.514-1.028,1.028v17.219c0,.578.45,1.028,1.028,1.028Z" fill="#f18224" fill-rule="evenodd"/><path d="M139.664,48.034c0,1.478-1.157,2.57-2.57,2.57s-2.57-1.092-2.57-2.57c0-1.413,1.156-2.57,2.57-2.57s2.57,1.156,2.57,2.57Z" fill="#e6e6e5" fill-rule="evenodd"/><path d="M161.252,32.358v-15.548h-1.028v-.514h1.028v-1.542c0-.707-.578-1.285-1.285-1.285h-7.581c-.386,0-.771.385-.771.771v.9h-.514v-2.57h-19.018v2.57h-.514v-.9c0-.385-.321-.771-.771-.771h-2.12v-.385c0-.835-.707-1.542-1.542-1.542h-36.622c-.835,0-1.542.707-1.542,1.542v.385h-1.349v37.65h1.028v.257c0,.386.321.643.642.643h37.843c.707,0,1.349-.45,1.542-1.157h.899v1.157h30.518v-1.542h1.157v-3.983h-6.425v-14.135h6.425Z" fill="#e6e6e5" fill-rule="evenodd"/><path d="M96.681,19.765c-.064.128-.128.193-.193.257-.128.064-.257.128-.385.064l-1.735-.385c-.321-.064-.578-.386-.45-.771,0-.064.064-.193.128-.257.321-.321.642-.707.964-1.028.257-.257.642-.257.899,0,.064.064.128.129.128.193l.707,1.542c.064.128.064.321-.064.385Z" fill="#fff" fill-rule="evenodd"/><path d="M99.123,35.763l-8.16,3.791c-.45.257-.964.064-1.156-.385-.064-.128-.129-.257-.129-.385v-3.726c0-.578.45-1.092,1.092-1.156l7.646-.643c.193-.064.385.128.45.321.064.578.257,1.157.45,1.735.064.193,0,.386-.193.45Z" fill="#fff" fill-rule="evenodd"/><path d="M101.05,38.847l-6.168,6.168c-.321.386-.899.386-1.285,0-.899-1.028-1.735-2.184-2.377-3.341-.257-.45-.064-1.028.385-1.221v-.064l7.967-3.662c.128-.128.385,0,.45.128.321.514.642,1.028,1.028,1.478.128.193.128.386,0,.514Z" fill="#fff" fill-rule="evenodd"/><path d="M103.941,41.095l-3.662,7.838c-.064.193-.321.321-.578.321h-.707c-.129,0-.321,0-.45-.064-1.028-.642-1.992-1.349-2.891-2.12-.385-.321-.385-.9-.064-1.285l6.168-6.168c.193-.193.385-.193.514-.064.514.385.964.771,1.478,1.028.193.128.257.321.193.514Z" fill="#fff" fill-rule="evenodd"/><path d="M115.892,24.005c-.129.128-.385.193-.514.064-.45-.385-.964-.771-1.478-1.092-.193-.064-.257-.257-.129-.45l3.662-7.903c.193-.45.771-.643,1.221-.45.771.45,1.413.9,2.12,1.349.321.257.45.707.257,1.092l-1.863,4.048c-.064.128-.128.193-.193.257l-3.084,3.084Z" fill="#fff" fill-rule="evenodd"/><path d="M116.599,38.847c-.128-.128-.128-.321,0-.514.385-.45.771-.964,1.028-1.478.128-.128.321-.257.514-.128l7.903,3.662c.45.193.642.771.45,1.221,0,0-.064,0-.064.064-.642,1.157-1.413,2.313-2.313,3.341-.321.321-.9.386-1.285.064l-.064-.064-6.168-6.168Z" fill="#fff" fill-rule="evenodd"/><path d="M113.772,41.095c-.128-.193-.064-.385.129-.514.514-.257,1.028-.643,1.478-1.028.129-.128.385-.128.514.064l6.168,6.168c.385.321.385.899,0,1.221q0,.064-.064.064c-.899.771-1.863,1.478-2.891,2.12-.129.064-.257.064-.45.064h-.707c-.257,0-.45-.128-.578-.321l-3.598-7.838Z" fill="#fff" fill-rule="evenodd"/><path d="M109.338,42.316c0-.193.193-.385.385-.385.899-.064,1.735-.257,2.634-.578.128-.064.385,0,.45.193l3.212,6.875c.193.45,0,.964-.45,1.156-.128.064-.257.064-.385.064h-4.947c-.514,0-.899-.385-.899-.899v-6.425Z" fill="#fff" fill-rule="evenodd"/><path d="M120.967,19.765c-.064-.064-.128-.257-.064-.385l.707-1.542c.193-.321.578-.45.899-.321l.128.128c.385.321.707.707,1.028,1.028.193.257.193.642-.064.9-.128.064-.193.128-.321.128l-1.735.385c-.129.064-.257,0-.321-.064-.128-.064-.193-.128-.257-.257Z" fill="#fff" fill-rule="evenodd"/><path d="M109.724,21.692c-.193,0-.385-.193-.385-.385v-6.746c0-.578.514-1.157,1.156-1.157h4.562c.578,0,1.156.578,1.156,1.157,0,.193-.064.385-.128.514l-3.277,7.003c-.064.193-.321.257-.45.193-.899-.321-1.735-.514-2.634-.578Z" fill="#fff"/><path d="M118.59,35.763c-.193-.064-.257-.257-.193-.45.193-.578.321-1.156.45-1.735,0-.193.193-.385.385-.321l7.71.643c.578.064,1.028.578,1.028,1.156v3.726c0,.45-.385.899-.899.899-.128,0-.257-.064-.385-.128l-8.095-3.791Z" fill="#fff"/><path d="M119.361,32.229c-.193-.064-.385-.193-.385-.385,0-2.441-.835-4.754-2.377-6.553-.128-.193-.128-.385,0-.514l2.955-2.955c.193-.193.385-.321.578-.321l6.425-1.478c.642-.128,1.285.257,1.413.899v10.794c0,.643-.514,1.157-1.156,1.157h-.064l-7.389-.643Z" fill="#fff"/><path d="M107.989,21.692c-.899.064-1.799.257-2.634.578-.193.064-.385,0-.514-.193l-3.212-7.003c-.321-.578-.064-1.285.514-1.542.193-.064.321-.128.514-.128h4.497c.642,0,1.156.578,1.156,1.157v6.746c0,.193-.129.385-.321.385Z" fill="#fff"/><path d="M108.31,42.316v6.425c0,.514-.385.899-.899.899h-4.947c-.45,0-.899-.385-.899-.899,0-.128.064-.257.128-.321l3.148-6.875c.128-.193.321-.257.514-.193.835.321,1.735.514,2.634.578.193,0,.321.193.321.385Z" fill="#fff"/><path d="M101.757,24.005l-3.084-3.084c-.064-.064-.129-.128-.129-.257l-1.927-4.048c-.193-.385-.064-.835.321-1.092.642-.45,1.349-.899,2.056-1.349.45-.193.964-.064,1.221.386l.064.064,3.662,7.903c.064.193,0,.386-.193.45-.514.321-.964.707-1.478,1.092-.129.128-.321.064-.514-.064Z" fill="#fff"/><path d="M98.352,32.229l-7.389.643c-.642.064-1.221-.45-1.285-1.092v-10.601c0-.643.514-1.157,1.156-1.157h.257l6.425,1.478c.193,0,.45.128.578.321l2.955,2.955c.128.128.128.321,0,.514-1.542,1.799-2.377,4.112-2.377,6.553,0,.193-.129.321-.321.385Z" fill="#fff"/><path d="M139.664,48.034c0,1.478-1.157,2.57-2.57,2.57s-2.57-1.092-2.57-2.57c0-1.413,1.156-2.57,2.57-2.57s2.57,1.156,2.57,2.57Z" fill="#fff"/><path d="M95.589,47.97c0-1.606-1.285-2.955-2.955-2.955-1.606,0-2.955,1.349-2.955,2.955,0,1.67,1.349,2.955,2.955,2.955,1.67,0,2.955-1.285,2.955-2.955Z" fill="#fff" fill-rule="evenodd"/><path d="M127.971,47.97c0-1.606-1.285-2.955-2.955-2.955-1.606,0-2.955,1.349-2.955,2.955,0,1.67,1.349,2.955,2.955,2.955,1.67,0,2.955-1.285,2.955-2.955Z" fill="#fff" fill-rule="evenodd"/><path d="M127.971,15.588c0-1.606-1.285-2.955-2.955-2.955-1.606,0-2.955,1.349-2.955,2.955,0,1.67,1.349,2.955,2.955,2.955,1.67,0,2.955-1.285,2.955-2.955Z" fill="#fff"/><path d="M95.589,15.588c0-1.606-1.285-2.955-2.955-2.955-1.606,0-2.955,1.349-2.955,2.955,0,1.67,1.349,2.955,2.955,2.955,1.67,0,2.955-1.285,2.955-2.955Z" fill="#fff"/><path d="M91.477,14.882l.193.257c.257.257.257.707,0,.964l-.193.257c-.128.064-.128.193,0,.321l.128.128c.064.064.257.064.321,0l.193-.193c.321-.321.771-.321,1.028,0l.193.193c.128.064.257.064.385,0l.128-.128c.064-.128.064-.257,0-.321l-.257-.257c-.257-.257-.257-.707,0-.964l.257-.257c.064-.064.064-.193,0-.321l-.193-.129c-.064-.064-.193-.064-.321,0l-.193.193c-.257.321-.707.321-1.028,0l-.193-.193c-.064-.064-.257-.064-.321,0l-.128.129c-.128.128-.128.257,0,.321Z" fill="#e6e6e5" fill-rule="evenodd"/><path d="M91.477,47.263l.193.257c.257.257.257.707,0,.964l-.193.257c-.128.064-.128.193,0,.321l.128.128c.064.064.257.064.321,0l.193-.193c.321-.321.771-.321,1.028,0l.193.193c.128.064.257.064.385,0l.128-.128c.064-.128.064-.257,0-.321l-.257-.257c-.257-.257-.257-.707,0-.964l.257-.257c.064-.064.064-.193,0-.321l-.193-.128c-.064-.064-.193-.064-.321,0l-.193.193c-.257.321-.707.321-1.028,0l-.193-.193c-.064-.064-.257-.064-.321,0l-.128.128c-.128.128-.128.257,0,.321Z" fill="#e6e6e5" fill-rule="evenodd"/><path d="M123.859,47.263l.193.257c.257.257.257.707,0,.964l-.193.257c-.128.064-.128.193,0,.321l.128.128c.064.064.257.064.321,0l.193-.193c.321-.321.771-.321,1.028,0l.193.193c.128.064.257.064.385,0l.128-.128c.064-.128.064-.257,0-.321l-.257-.257c-.257-.257-.257-.707,0-.964l.257-.257c.064-.064.064-.193,0-.321l-.193-.128c-.064-.064-.193-.064-.321,0l-.193.193c-.257.321-.707.321-1.028,0l-.193-.193c-.064-.064-.257-.064-.321,0l-.128.128c-.128.128-.128.257,0,.321Z" fill="#e6e6e5" fill-rule="evenodd"/><path d="M123.859,14.882l.193.257c.257.257.257.707,0,.964l-.193.257c-.128.064-.128.193,0,.321l.128.128c.064.064.257.064.321,0l.193-.193c.321-.321.771-.321,1.028,0l.193.193c.128.064.257.064.385,0l.128-.128c.064-.128.064-.257,0-.321l-.257-.257c-.257-.257-.257-.707,0-.964l.257-.257c.064-.064.064-.193,0-.321l-.193-.129c-.064-.064-.193-.064-.321,0l-.193.193c-.257.321-.707.321-1.028,0l-.193-.193c-.064-.064-.257-.064-.321,0l-.128.129c-.128.128-.128.257,0,.321Z" fill="#e6e6e5" fill-rule="evenodd"/><rect x="125.015" y="25.804" width=".771" height="4.497" fill="none"/><rect x="91.863" y="25.804" width=".771" height="4.497" fill="none"/><path d="M125.786,28.053h1.285v5.204q0,.064.064.128l.578,1.285c.064.193.128.45.128.707v3.341h-1.285v-3.534l-.578-1.221c-.128-.257-.193-.45-.193-.707v-5.204Z" fill="#ccc" fill-rule="evenodd"/><path d="M91.863,28.053h-1.285v5.333l-.578,1.285c-.128.193-.193.45-.193.707v3.341h1.285v-3.341c0-.064,0-.128.064-.193l.578-1.221c.064-.257.128-.45.128-.707v-5.204Z" fill="#ccc" fill-rule="evenodd"/><rect x="154.056" y="34.028" width="7.196" height="11.308" fill="#ececec"/><rect x="89.678" y="24.712" width=".899" height="6.682" fill="none"/><rect x="127.071" y="24.712" width=".899" height="6.682" fill="none"/><path d="M125.272,39.361v5.14c0,.385-.257.643-.642.643h-31.611c-.321,0-.642-.257-.642-.643v-5.14c0-.321-.257-.642-.642-.642h-2.57c-.321,0-.642.321-.642.642v5.14c0,2.506,2.056,4.497,4.497,4.497h31.611c2.506,0,4.497-1.992,4.497-4.497v-5.14c0-.321-.257-.642-.642-.642h-2.57c-.321,0-.642.321-.642.642Z" fill="#ccc" fill-rule="evenodd"/><path d="M159.967,19.508c0-1.606-1.285-2.955-2.955-2.955-1.606,0-2.955,1.349-2.955,2.955,0,1.67,1.349,2.955,2.955,2.955,1.67,0,2.955-1.285,2.955-2.955Z" fill="#fff"/><path d="M129.962,15.717v27.691c0,.9.707,1.606,1.606,1.606h20.11c.835,0,1.606-.707,1.606-1.606V15.717c0-.899-.771-1.606-1.606-1.606h-20.11c-.899,0-1.606.707-1.606,1.606" fill="#ccc" fill-rule="evenodd"/><path d="M132.275,23.298v12.529c0,.707.321,1.349.835,1.863l5.011,4.819c.45.45,1.092.707,1.799.707h8.417c1.413,0,2.57-1.156,2.57-2.57v-22.166c0-1.413-1.157-2.57-2.57-2.57h-8.417c-.707,0-1.349.257-1.799.707l-5.011,4.819c-.514.514-.835,1.157-.835,1.863Z" fill="#fff"/><polyline points="141.784 37.69 146.924 37.69 146.924 36.148 141.784 36.148 141.784 37.69" fill="#ccc" fill-rule="evenodd"/><rect x="136.323" y="28.824" width="5.14" height="1.542" fill="#ccc"/><rect x="141.784" y="21.435" width="5.14" height="1.542" fill="#ccc"/><path d="M158.553,19.508c0-.835-.707-1.542-1.542-1.542s-1.542.707-1.542,1.542c0,.899.707,1.542,1.542,1.542s1.542-.643,1.542-1.542Z" fill="#ccc" fill-rule="evenodd"/><path d="M152.771,49.319h2.056c.578,0,1.028-.45,1.028-1.028v-17.219c0-.514-.45-1.028-1.028-1.028h-2.056c-.578,0-1.028.514-1.028,1.028v17.219c0,.578.45,1.028,1.028,1.028Z" fill="#f18224" fill-rule="evenodd"/><rect x="71.72" y="11.991" width="12.532" height="39.832" rx=".709" ry=".709" fill="#e6e6e5"/><path d="M152,53.092v13.364h8.866c.257,0,.385-.128.385-.385v-12.593c0-.193-.128-.385-.385-.385h-8.866" fill="#a7a9ac" fill-rule="evenodd"/><path d="M152,53.092h-72.344c-.193,0-.386.193-.386.385v12.593c0,.257.193.385.386.385h72.344v-13.364" fill="#a7a9ac" fill-rule="evenodd"/><rect x="91.092" y="53.092" width="1.542" height="13.364" fill="#292929"/><path d="M136.901,60.609c0,.771-.514,1.221-1.092,1.221s-1.092-.514-1.092-1.221c0-.771.514-1.221,1.092-1.221s1.092.45,1.092,1.221M136.901,60.609,136.13,62.922c1.028,0,1.992-.835,1.992-2.313s-.964-2.313-1.992-2.313c-.642,0-1.092.321-1.349.707v-.642h-1.285v5.782h1.285v-1.927c.257.385.707.707,1.349.707ZM131.761,60.609c0,.771-.514,1.221-1.092,1.221s-1.028-.514-1.028-1.221c0-.771.45-1.221,1.028-1.221s1.092.45,1.092,1.221ZM131.761,60.609,130.99,62.922c1.092,0,1.992-.835,1.992-2.313s-.964-2.313-1.992-2.313c-.642,0-1.028.321-1.349.707v-.642h-1.221v5.782h1.221v-1.927c.321.385.707.707,1.349.707ZM125.85,60.417h-1.542l.771-1.863.771,1.863ZM126.75,62.794h1.349l-2.441-5.782h-1.092l-2.441,5.782h1.285l.578-1.285h2.249l.514,1.285ZM121.224,61.766c-.321,0-.385-.128-.385-.385v-1.928h1.028v-1.092h-1.028v-1.092h-1.285v1.092h-.514v1.092h.514v2.12c0,1.028.514,1.285,1.285,1.285.45,0,.707-.064.964-.257v-.964c-.128.064-.385.128-.578.128ZM103.556,62.794h2.698v-5.782h-6.939v5.782h2.698v-3.47h1.542v3.47ZM112.808,62.794h1.028v-5.782h-1.221v3.598l-2.698-3.598h-1.156v5.782h1.221v-3.662l2.827,3.662ZM116.663,59.324c.514,0,.835.386.899.964h-1.863c.064-.578.45-.964.964-.964ZM116.791,62.922c.771,0,1.349-.321,1.799-.835l-.707-.642c-.385.321-.707.45-1.092.45-.578,0-.964-.257-1.092-.835h3.084v-.321c0-1.285-.642-2.441-2.12-2.441-1.285,0-2.184,1.028-2.184,2.313,0,1.349.964,2.313,2.313,2.313Z" fill="#58595b" fill-rule="evenodd"/><path d="M3.584,53.092H-4.896c-.193,0-.385.193-.385.385v12.593c0,.257.193.385.385.385H3.584v-13.364" fill="#a7a9ac" fill-rule="evenodd"/><path d="M3.584,53.092v13.364h71.959c.257,0,.385-.128.385-.385v-12.593c0-.193-.128-.385-.385-.385H3.584" fill="#a7a9ac" fill-rule="evenodd"/><path d="M61.414,53.092v13.364h14.13c.257,0,.385-.128.385-.385v-12.593c0-.193-.128-.385-.385-.385h-14.13" fill="#afc2da" fill-rule="evenodd"/><path d="M91.108,53.092v13.364h-11.453c-.257,0-.385-.128-.385-.385v-12.593c0-.193.128-.385.385-.385h14.13" fill="#f18224" fill-rule="evenodd"/><rect x="61.023" y="53.092" width="1.542" height="13.364" fill="#292929"/><path d="M47.724,60.609c0,.771-.514,1.221-1.092,1.221s-1.028-.514-1.028-1.221c0-.771.45-1.221,1.028-1.221s1.092.45,1.092,1.221M47.724,60.609,46.953,62.922c1.092,0,1.992-.835,1.992-2.313s-.964-2.313-1.992-2.313c-.642,0-1.028.321-1.349.707v-.642h-1.221v5.782h1.221v-1.927c.321.385.707.707,1.349.707ZM41.813,60.417h-1.542l.771-1.863.771,1.863ZM42.712,62.794h1.349l-2.441-5.782h-1.092l-2.441,5.782h1.285l.578-1.285h2.249l.514,1.285ZM37.187,61.766c-.321,0-.386-.128-.386-.385v-1.928h1.028v-1.092h-1.028v-1.092h-1.285v1.092h-.514v1.092h.514v2.12c0,1.028.514,1.285,1.285,1.285.45,0,.707-.064.964-.257v-.964c-.128.064-.385.128-.578.128ZM32.625,59.324c.514,0,.835.386.899.964h-1.863c.064-.578.45-.964.964-.964ZM32.754,62.922c.771,0,1.349-.321,1.799-.835l-.707-.642c-.386.321-.707.45-1.092.45-.578,0-.964-.257-1.092-.835h3.084v-.321c0-1.285-.642-2.441-2.12-2.441-1.285,0-2.184,1.028-2.184,2.313,0,1.349.964,2.313,2.313,2.313ZM28.77,62.794h1.028v-5.782h-1.221v3.598l-2.698-3.598h-1.156v5.782h1.221v-3.662l2.827,3.662ZM19.518,62.794h2.698v-5.782h-6.939v5.782h2.698v-3.47h1.542v3.47ZM52.863,60.609c0,.771-.514,1.221-1.092,1.221s-1.092-.514-1.092-1.221c0-.771.514-1.221,1.092-1.221s1.092.45,1.092,1.221ZM52.863,60.609,52.092,62.922c1.028,0,1.992-.835,1.992-2.313s-.964-2.313-1.992-2.313c-.642,0-1.092.321-1.349.707v-.642h-1.285v5.782h1.285v-1.927c.257.385.707.707,1.349.707Z" fill="#58595b" fill-rule="evenodd"/><polyline points="-143.462 93.656 -143.462 4.738 310.393 4.738 310.393 93.656" fill="none" stroke="#ccc" stroke-linecap="round" stroke-linejoin="round" stroke-width="1.852"/><path d="M85.068,58.586h-4.822v.989h4.822v-.989ZM80.247,60.193v.989h10.262v-2.596h-4.822v1.607h-5.44Z" fill="#333" fill-rule="evenodd"/><path d="M64.465,60.502v.433h9.767v-2.04h-4.327v1.607h-5.44M64.156,60.193v.989h10.323v-2.596h-4.822v1.607h-5.502ZM68.978,58.586h-4.822v.989h4.822v-.989Z" fill="#333" fill-rule="evenodd"/><path d="M75.402,90.124v-20.162c0-.514-.449-.899-.899-.899H-3.064c-.514,0-.899.385-.899.899v20.162c0,.449.385.899.899.899h77.567c.449,0,.899-.449.899-.899" fill="#e6e6e5" fill-rule="evenodd"/><path d="M70.714,81.006v-1.991c0-.257-.257-.514-.514-.514-.128,0-.257.064-.385.193l-1.027,1.027c-.193.193-.193.449,0,.578l1.027,1.092c.257.193.578.193.771,0,.064-.128.128-.257.128-.385M40.214,74.392l-.642-.642c-.193-.128-.385-.128-.578,0l-2.145,2.145,2.378-.002.986-.986c.128-.128.128-.385,0-.514ZM31.225,74.392c-.193.128-.193.385,0,.514l.991.991,2.306-.006-2.141-2.141c-.128-.128-.385-.128-.514,0l-.642.642ZM8.686,73.044h-3.211c-.257,0-.514.193-.514.514,0,.128.064.257.193.321l1.669,1.67c.128.193.385.193.514,0l1.669-1.67c.193-.193.193-.514,0-.706-.064-.064-.193-.128-.321-.128ZM1.495,73.044H-1.652c-.321,0-.514.193-.514.514,0,.128.064.257.128.321l1.669,1.67c.193.193.385.193.578,0l1.67-1.67c.193-.193.193-.514,0-.706-.128-.064-.257-.128-.385-.128ZM67.063,83.703h2.688c.257,0,.514-.257.514-.514,0-.128-.064-.257-.193-.385l-1.926-1.926c-.128-.128-.385-.128-.514,0l-.563.563-.006,2.262ZM5.669,82.804l-1.926-1.926c-.128-.128-.385-.128-.514,0l-1.926,1.926c-.193.193-.193.514,0,.706.128.128.257.193.385.193h3.66c.257,0,.514-.257.514-.514,0-.128-.064-.257-.193-.385ZM74.182,72.594l-2.44-2.44c-.128-.128-.385-.128-.514,0l-2.44,2.44c-.193.128-.193.385,0,.578l2.44,2.376c.128.193.385.193.514,0l2.44-2.376c.128-.193.128-.449,0-.578ZM52.735,72.594l-2.44-2.44c-.193-.128-.385-.128-.578,0l-2.44,2.44c-.128.128-.128.385,0,.578l2.44,2.376c.193.193.385.193.578,0l2.44-2.376c.128-.193.128-.449,0-.578ZM45.544,72.594l-2.44-2.44c-.128-.128-.385-.128-.514,0l-2.44,2.44c-.128.128-.128.385,0,.578l2.44,2.376c.128.193.385.193.514,0l2.44-2.376c.193-.193.193-.449,0-.578ZM63.166,75.897l-2.147-2.147c-.128-.128-.385-.128-.578,0l-2.111,2.168,4.836-.02ZM59.863,72.594l-2.44-2.44c-.128-.128-.385-.128-.514,0l-2.44,2.44c-.128.128-.128.385,0,.578l2.44,2.376c.128.193.385.193.514,0l2.44-2.376c.128-.193.128-.449,0-.578ZM67.086,78.598l.546.546c.128.128.385.128.514,0l2.44-2.44c.193-.128.193-.385,0-.514l-2.44-2.44c-.128-.128-.385-.128-.514,0l-2.128,2.128h1.559l.023,2.72ZM67.054,72.594l-2.44-2.44c-.193-.128-.385-.128-.578,0l-2.44,2.44c-.128.128-.128.385,0,.578l2.44,2.376c.193.193.385.193.578,0l2.44-2.376c.128-.193.128-.449,0-.578ZM16.97,72.594l-2.44-2.44c-.193-.128-.449-.128-.578,0l-2.44,2.44c-.128.128-.128.385,0,.578l2.44,2.376c.128.193.385.193.578,0l2.44-2.376c.128-.193.128-.449,0-.578ZM13.097,75.913l-2.163-2.163c-.128-.128-.385-.128-.578,0l-2.071,2.127,4.812.036ZM38.416,72.594l-2.44-2.44c-.128-.128-.385-.128-.578,0l-2.376,2.44c-.193.128-.193.385,0,.578l2.376,2.376c.193.193.449.193.578,0l2.44-2.376c.128-.193.128-.449,0-.578ZM31.225,72.594l-2.44-2.44c-.128-.128-.385-.128-.514,0l-2.44,2.44c-.128.128-.128.385,0,.578l2.44,2.376c.128.193.385.193.514,0l2.44-2.376c.193-.193.193-.449,0-.578ZM24.097,72.594l-2.44-2.44c-.128-.128-.385-.128-.514,0l-2.44,2.44c-.193.128-.193.385,0,.578l2.44,2.376c.128.193.385.193.514,0l2.44-2.376c.128-.193.128-.449,0-.578ZM5.85,78.294l-1.466,1.427c-.193.193-.193.449,0,.578l1.499,1.499-.033-3.504ZM6.182,76.19l-2.44-2.44c-.128-.128-.385-.128-.514,0l-2.44,2.44c-.128.128-.128.385,0,.514l2.44,2.44c.128.128.385.128.514,0l2.44-2.44c.193-.128.193-.385,0-.514ZM2.651,79.721l-2.44-2.376c-.193-.193-.385-.193-.578,0l-2.44,2.376c-.128.193-.128.449,0,.578l2.44,2.44c.193.128.385.128.578,0l2.44-2.44c.128-.128.128-.385,0-.578Z" fill="#fff" fill-rule="evenodd"/><path d="M74.053,82.097v-1.926c0-.128-.128-.257-.257-.257h-1.926c-.193,0-.257.128-.257.257v1.926c0,.128.064.257.257.257h1.926c.128,0,.257-.128.257-.257Z" fill="#a8aaad"/><path d="M51.836,75.869h3.532c.128,0,.257-.128.257-.257,0-.064-.064-.128-.064-.193l-1.669-1.669c-.193-.128-.449-.128-.578,0l-1.669,1.669c-.128.064-.128.257,0,.385.064,0,.128.064.193.064M44.645,75.869h3.532c.193,0,.257-.128.257-.257,0-.064,0-.128-.064-.193l-1.669-1.669c-.128-.128-.385-.128-.514,0l-1.669,1.669c-.128.064-.128.257,0,.385,0,0,.064.064.128.064ZM23.198,75.869h3.532c.128,0,.257-.128.257-.257,0-.064,0-.128-.064-.193l-1.669-1.669c-.193-.128-.385-.128-.578,0l-1.669,1.669c-.064.064-.064.257,0,.385.064,0,.128.064.193.064ZM16.071,75.869h3.532c.128,0,.257-.128.257-.257,0-.064-.064-.128-.128-.193l-1.669-1.669c-.128-.128-.385-.128-.514,0l-1.67,1.669c-.128.064-.128.257,0,.385.064,0,.128.064.193.064ZM74.503,78.245v-3.596c0-.128-.128-.257-.257-.257-.064,0-.128.064-.193.064l-1.734,1.734c-.128.128-.128.385,0,.514l1.734,1.734c.064.064.257.064.385,0,0-.064.064-.128.064-.193ZM-2.615,78.437l1.67-1.734c.128-.128.128-.385,0-.514l-1.67-1.734c-.128-.064-.321-.064-.385,0-.064.064-.064.128-.064.193v3.596c0,.128.064.257.257.257.064,0,.128-.064.193-.064ZM-1.009,83.253l-1.605-1.605c-.128-.128-.321-.128-.385,0-.064.064-.064.128-.064.193v1.477c0,.193.128.385.385.385h1.477c.128,0,.257-.128.257-.257,0-.064-.064-.128-.064-.193ZM55.24,70.026h-3.275c-.128,0-.257.128-.257.257,0,.064,0,.128.064.193l1.541,1.541c.128.128.385.128.578,0l1.477-1.541c.128-.128.128-.257,0-.385,0-.064-.064-.064-.128-.064ZM48.048,70.026h-3.275c-.128,0-.257.128-.257.257,0,.064.064.128.128.193l1.541,1.541c.128.128.385.128.514,0l1.541-1.541c.128-.128.128-.257,0-.385-.064-.064-.128-.064-.193-.064ZM62.367,70.026h-3.275c-.128,0-.257.128-.257.257,0,.064.064.128.128.193l1.477,1.541c.193.128.449.128.578,0l1.541-1.541c.064-.128.064-.257,0-.385-.064-.064-.128-.064-.193-.064ZM66.091,70.475l1.541,1.541c.128.128.385.128.514,0l1.541-1.541c.128-.128.128-.257,0-.385,0-.064-.064-.064-.128-.064h-3.275c-.128,0-.257.128-.257.257,0,.064,0,.128.064.193ZM19.41,70.026h-3.211c-.128,0-.257.128-.257.257,0,.064,0,.128.064.193l1.541,1.541c.128.128.385.128.514,0l1.541-1.541c.128-.128.128-.257,0-.385,0-.064-.064-.064-.193-.064ZM12.282,70.026h-3.275c-.128,0-.257.128-.257.257,0,.064.064.128.064.193l1.541,1.541c.193.128.449.128.578,0l1.541-1.541c.064-.128.064-.257,0-.385-.064-.064-.128-.064-.193-.064ZM40.92,70.026h-3.275c-.128,0-.257.128-.257.257,0,.064,0,.128.064.193l1.541,1.541c.193.128.385.128.578,0l1.541-1.541c.064-.128.064-.257,0-.385-.064-.064-.128-.064-.193-.064ZM33.729,70.026h-3.211c-.193,0-.257.128-.257.257,0,.064,0,.128.064.193l1.541,1.541c.128.128.385.128.514,0l1.541-1.541c.128-.128.128-.257,0-.385-.064-.064-.128-.064-.193-.064ZM26.601,70.026h-3.275c-.128,0-.257.128-.257.257,0,.064.064.128.064.193l1.541,1.541c.193.128.385.128.578,0l1.541-1.541c.064-.128.064-.257,0-.385-.064-.064-.128-.064-.193-.064Z" fill="#fff" fill-rule="evenodd"/><path d="M59.799,71.631c.128,0,.193-.064.257-.128l2.376-2.376c.064-.064.193-.064.257-.064h2.44s8.733,0,8.733,0h2.055s0-1.669,0-1.669h-2.055s-8.733,0-8.733,0H10.163s0,4.238,0,4.238h49.635" fill="#606161" fill-rule="evenodd"/><path d="M10.934,71.31v-3.596c0-.193-.128-.321-.321-.321H-3.193c-.128,0-.257.128-.257.321v3.596c0,.193.128.321.257.321h13.805c.193,0,.321-.128.321-.321" fill="#f18224" fill-rule="evenodd"/><polygon points="-1.908 67.714 -1.908 71.246 1.174 69.512 -1.908 67.714" fill="#1a1a1a" fill-rule="evenodd"/><line x1="6.824" y1="67.393" x2="5.54" y2="67.393" fill="none" stroke="#d86a27" stroke-linecap="round" stroke-linejoin="round"/><line x1="5.54" y1="71.631" x2="6.824" y2="71.631" fill="none" stroke="#d86a27" stroke-linecap="round" stroke-linejoin="round"/><path d="M20.987,87.03v-9.688c0-.257-.185-.385-.37-.385H6.723c-.246,0-.37.128-.37.385v9.688c0,.193.123.385.37.385h13.895c.185,0,.37-.193.37-.385Z" fill="#1a1a1a" fill-rule="evenodd"/><path d="M36.108,87.03v-9.688c0-.257-.185-.385-.37-.385h-13.895c-.246,0-.37.128-.37.385v9.688c0,.193.123.385.37.385h13.895c.185,0,.37-.193.37-.385Z" fill="#1a1a1a" fill-rule="evenodd"/><path d="M51.229,87.03v-9.688c0-.257-.185-.385-.37-.385h-13.895c-.246,0-.37.128-.37.385v9.688c0,.193.123.385.37.385h13.895c.185,0,.37-.193.37-.385Z" fill="#1a1a1a" fill-rule="evenodd"/><path d="M66.35,87.03v-9.688c0-.257-.185-.385-.37-.385h-13.895c-.246,0-.37.128-.37.385v9.688c0,.193.123.385.37.385h13.895c.185,0,.37-.193.37-.385Z" fill="#1a1a1a" fill-rule="evenodd"/><path d="M158.808,90.124v-20.162c0-.514-.449-.899-.899-.899h-77.567c-.514,0-.899.385-.899.899v20.162c0,.449.385.899.899.899h77.567c.449,0,.899-.449.899-.899" fill="#e6e6e5" fill-rule="evenodd"/><path d="M154.121,81.006v-1.991c0-.257-.257-.514-.514-.514-.128,0-.257.064-.385.193l-1.027,1.027c-.193.193-.193.449,0,.578l1.027,1.092c.257.193.578.193.771,0,.064-.128.128-.257.128-.385M123.62,74.392l-.642-.642c-.193-.128-.385-.128-.578,0l-2.145,2.145,2.378-.002.986-.986c.128-.128.128-.385,0-.514ZM114.631,74.392c-.193.128-.193.385,0,.514l.991.991,2.306-.006-2.141-2.141c-.128-.128-.385-.128-.514,0l-.642.642ZM92.093,73.044h-3.211c-.257,0-.514.193-.514.514,0,.128.064.257.193.321l1.669,1.67c.128.193.385.193.514,0l1.669-1.67c.193-.193.193-.514,0-.706-.064-.064-.193-.128-.321-.128ZM84.901,73.044h-3.146c-.321,0-.514.193-.514.514,0,.128.064.257.128.321l1.669,1.67c.193.193.385.193.578,0l1.67-1.67c.193-.193.193-.514,0-.706-.128-.064-.257-.128-.385-.128ZM146.351,82.804l-1.926-1.926c-.128-.128-.385-.128-.578,0l-1.862,1.926c-.193.193-.193.514,0,.706.064.128.193.193.321.193h3.66c.321,0,.514-.257.514-.514,0-.128-.064-.257-.128-.385ZM153.479,82.804l-1.926-1.926c-.128-.128-.385-.128-.514,0l-1.926,1.926c-.193.193-.193.514,0,.706.128.128.257.193.385.193h3.66c.257,0,.514-.257.514-.514,0-.128-.064-.257-.193-.385ZM96.266,82.804l-1.926-1.926c-.128-.128-.385-.128-.578,0l-1.862,1.926c-.193.193-.193.514,0,.706.064.128.193.193.321.193h3.66c.257,0,.514-.257.514-.514,0-.128-.064-.257-.128-.385ZM89.075,82.804l-1.926-1.926c-.128-.128-.385-.128-.514,0l-1.926,1.926c-.193.193-.193.514,0,.706.128.128.257.193.385.193h3.66c.257,0,.514-.257.514-.514,0-.128-.064-.257-.193-.385ZM157.588,72.594l-2.44-2.44c-.128-.128-.385-.128-.514,0l-2.44,2.44c-.193.128-.193.385,0,.578l2.44,2.376c.128.193.385.193.514,0l2.44-2.376c.128-.193.128-.449,0-.578ZM136.142,72.594l-2.44-2.44c-.193-.128-.385-.128-.578,0l-2.44,2.44c-.128.128-.128.385,0,.578l2.44,2.376c.193.193.385.193.578,0l2.44-2.376c.128-.193.128-.449,0-.578ZM128.95,72.594l-2.44-2.44c-.128-.128-.385-.128-.514,0l-2.44,2.44c-.128.128-.128.385,0,.578l2.44,2.376c.128.193.385.193.514,0l2.44-2.376c.193-.193.193-.449,0-.578ZM146.865,76.19l-2.44-2.44c-.128-.128-.385-.128-.578,0l-2.376,2.44c-.193.128-.193.385,0,.514l2.376,2.44c.193.128.449.128.578,0l2.44-2.44c.128-.128.128-.385,0-.514ZM143.269,72.594l-2.44-2.44c-.128-.128-.385-.128-.514,0l-2.44,2.44c-.128.128-.128.385,0,.578l2.44,2.376c.128.193.385.193.514,0l2.44-2.376c.128-.193.128-.449,0-.578ZM153.992,76.19l-2.44-2.44c-.128-.128-.385-.128-.514,0l-2.44,2.44c-.128.128-.128.385,0,.514l2.44,2.44c.128.128.385.128.514,0l2.44-2.44c.193-.128.193-.385,0-.514ZM150.461,72.594l-2.44-2.44c-.193-.128-.385-.128-.578,0l-2.44,2.44c-.128.128-.128.385,0,.578l2.44,2.376c.193.193.385.193.578,0l2.44-2.376c.128-.193.128-.449,0-.578ZM150.461,79.721l-2.44-2.376c-.193-.193-.385-.193-.578,0l-2.44,2.376c-.128.193-.128.449,0,.578l2.44,2.44c.193.128.385.128.578,0l2.44-2.44c.128-.128.128-.385,0-.578ZM100.376,72.594l-2.44-2.44c-.193-.128-.449-.128-.578,0l-2.44,2.44c-.128.128-.128.385,0,.578l2.44,2.376c.128.193.385.193.578,0l2.44-2.376c.128-.193.128-.449,0-.578ZM96.78,76.19l-2.44-2.44c-.128-.128-.385-.128-.578,0l-2.376,2.44c-.193.128-.193.385,0,.514l2.376,2.44c.193.128.449.128.578,0l2.44-2.44c.128-.128.128-.385,0-.514ZM121.822,72.594l-2.44-2.44c-.128-.128-.385-.128-.578,0l-2.376,2.44c-.193.128-.193.385,0,.578l2.376,2.376c.193.193.449.193.578,0l2.44-2.376c.128-.193.128-.449,0-.578ZM114.631,72.594l-2.44-2.44c-.128-.128-.385-.128-.514,0l-2.44,2.44c-.128.128-.128.385,0,.578l2.44,2.376c.128.193.385.193.514,0l2.44-2.376c.193-.193.193-.449,0-.578ZM107.503,72.594l-2.44-2.44c-.128-.128-.385-.128-.514,0l-2.44,2.44c-.193.128-.193.385,0,.578l2.44,2.376c.128.193.385.193.514,0l2.44-2.376c.128-.193.128-.449,0-.578ZM93.184,79.721l-2.44-2.376c-.128-.193-.385-.193-.514,0l-2.44,2.376c-.193.193-.193.449,0,.578l2.44,2.44c.128.128.385.128.514,0l2.44-2.44c.128-.128.128-.385,0-.578ZM89.588,76.19l-2.44-2.44c-.128-.128-.385-.128-.514,0l-2.44,2.44c-.128.128-.128.385,0,.514l2.44,2.44c.128.128.385.128.514,0l2.44-2.44c.193-.128.193-.385,0-.514ZM86.057,79.721l-2.44-2.376c-.193-.193-.385-.193-.578,0l-2.44,2.376c-.128.193-.128.449,0,.578l2.44,2.44c.193.128.385.128.578,0l2.44-2.44c.128-.128.128-.385,0-.578Z" fill="#fff" fill-rule="evenodd"/><path d="M157.46,82.097v-1.926c0-.128-.128-.257-.257-.257h-1.926c-.193,0-.257.128-.257.257v1.926c0,.128.064.257.257.257h1.926c.128,0,.257-.128.257-.257Z" fill="#a8aaad"/><path d="M135.243,75.869h3.532c.128,0,.257-.128.257-.257,0-.064-.064-.128-.064-.193l-1.669-1.669c-.193-.128-.449-.128-.578,0l-1.669,1.669c-.128.064-.128.257,0,.385.064,0,.128.064.193.064M128.051,75.869h3.532c.193,0,.257-.128.257-.257,0-.064,0-.128-.064-.193l-1.669-1.669c-.128-.128-.385-.128-.514,0l-1.669,1.669c-.128.064-.128.257,0,.385,0,0,.064.064.128.064ZM106.604,75.869h3.532c.128,0,.257-.128.257-.257,0-.064,0-.128-.064-.193l-1.669-1.669c-.193-.128-.385-.128-.578,0l-1.669,1.669c-.064.064-.064.257,0,.385.064,0,.128.064.193.064ZM99.477,75.869h3.532c.128,0,.257-.128.257-.257,0-.064-.064-.128-.128-.193l-1.669-1.669c-.128-.128-.385-.128-.514,0l-1.67,1.669c-.128.064-.128.257,0,.385.064,0,.128.064.193.064ZM140.701,77.795v4.495c0,.128.064.257.257.257.064,0,.128-.064.193-.064l2.119-2.183c.128-.128.128-.385,0-.578l-2.119-2.119c-.128-.128-.321-.128-.385,0-.064.064-.064.128-.064.193ZM97.551,82.29v-4.495c0-.193-.128-.257-.257-.257-.064,0-.128,0-.193.064l-2.183,2.119c-.128.193-.128.449,0,.578l2.183,2.183c.064.064.257.064.385,0,0-.064.064-.128.064-.193ZM157.909,78.245v-3.596c0-.128-.128-.257-.257-.257-.064,0-.128.064-.193.064l-1.734,1.734c-.128.128-.128.385,0,.514l1.734,1.734c.064.064.257.064.385,0,0-.064.064-.128.064-.193ZM80.791,78.437l1.67-1.734c.128-.128.128-.385,0-.514l-1.67-1.734c-.128-.064-.321-.064-.385,0-.064.064-.064.128-.064.193v3.596c0,.128.064.257.257.257.064,0,.128-.064.193-.064ZM82.397,83.253l-1.605-1.605c-.128-.128-.321-.128-.385,0-.064.064-.064.128-.064.193v1.477c0,.193.128.385.385.385h1.477c.128,0,.257-.128.257-.257,0-.064-.064-.128-.064-.193ZM138.646,70.026h-3.275c-.128,0-.257.128-.257.257,0,.064,0,.128.064.193l1.541,1.541c.128.128.385.128.578,0l1.477-1.541c.128-.128.128-.257,0-.385,0-.064-.064-.064-.128-.064ZM131.454,70.026h-3.275c-.128,0-.257.128-.257.257,0,.064.064.128.128.193l1.541,1.541c.128.128.385.128.514,0l1.541-1.541c.128-.128.128-.257,0-.385-.064-.064-.128-.064-.193-.064ZM145.773,70.026h-3.275c-.128,0-.257.128-.257.257,0,.064.064.128.128.193l1.477,1.541c.193.128.449.128.578,0l1.541-1.541c.064-.128.064-.257,0-.385-.064-.064-.128-.064-.193-.064ZM149.497,70.475l1.541,1.541c.128.128.385.128.514,0l1.541-1.541c.128-.128.128-.257,0-.385,0-.064-.064-.064-.128-.064h-3.275c-.128,0-.257.128-.257.257,0,.064,0,.128.064.193ZM102.816,70.026h-3.211c-.128,0-.257.128-.257.257,0,.064,0,.128.064.193l1.541,1.541c.128.128.385.128.514,0l1.541-1.541c.128-.128.128-.257,0-.385,0-.064-.064-.064-.193-.064ZM95.688,70.026h-3.275c-.128,0-.257.128-.257.257,0,.064.064.128.064.193l1.541,1.541c.193.128.449.128.578,0l1.541-1.541c.064-.128.064-.257,0-.385-.064-.064-.128-.064-.193-.064ZM124.327,70.026h-3.275c-.128,0-.257.128-.257.257,0,.064,0,.128.064.193l1.541,1.541c.193.128.385.128.578,0l1.541-1.541c.064-.128.064-.257,0-.385-.064-.064-.128-.064-.193-.064ZM117.135,70.026h-3.211c-.193,0-.257.128-.257.257,0,.064,0,.128.064.193l1.541,1.541c.128.128.385.128.514,0l1.541-1.541c.128-.128.128-.257,0-.385-.064-.064-.128-.064-.193-.064ZM110.008,70.026h-3.275c-.128,0-.257.128-.257.257,0,.064.064.128.064.193l1.541,1.541c.193.128.385.128.578,0l1.541-1.541c.064-.128.064-.257,0-.385-.064-.064-.128-.064-.193-.064Z" fill="#fff" fill-rule="evenodd"/><path d="M143.205,71.631c.128,0,.193-.064.257-.128l2.376-2.376c.064-.064.193-.064.257-.064h2.44s8.733,0,8.733,0h2.055s0-1.669,0-1.669h-2.055s-8.733,0-8.733,0h-54.965s0,4.238,0,4.238h49.635" fill="#606161" fill-rule="evenodd"/><path d="M94.34,71.31v-3.596c0-.193-.128-.321-.321-.321h-13.805c-.128,0-.257.128-.257.321v3.596c0,.193.128.321.257.321h13.805c.193,0,.321-.128.321-.321" fill="#f18224" fill-rule="evenodd"/><polygon points="81.498 67.714 81.498 71.246 84.58 69.512 81.498 67.714" fill="#1a1a1a" fill-rule="evenodd"/><line x1="90.23" y1="67.393" x2="88.946" y2="67.393" fill="none" stroke="#d86a27" stroke-linecap="round" stroke-linejoin="round"/><line x1="88.946" y1="71.631" x2="90.23" y2="71.631" fill="none" stroke="#d86a27" stroke-linecap="round" stroke-linejoin="round"/><path d="M95.239,69.191h.385v.193h-.642s0,.193,0,.193h1.413v.257h-.385s0,.963,0,.963h.963s0-.963,0-.963h-.385v-.257h1.477s0-.193,0-.193h-.642v-.193h.385s0-.963,0-.963h-.963s0,.963,0,.963h.385v.193h-1.413v-.193h.385s0-.963,0-.963h-.963s0,.963,0,.963" fill="#f3f3f3" fill-rule="evenodd"/><path d="M118.663,87.03v-9.688c0-.257-.188-.385-.375-.385h-18.532c-.25,0-.375.128-.375.385v9.688c0,.193.125.385.375.385h18.532c.188,0,.375-.193.375-.385Z" fill="#1a1a1a" fill-rule="evenodd"/><path d="M138.798,87.03v-9.688c0-.257-.188-.385-.375-.385h-18.532c-.25,0-.375.128-.375.385v9.688c0,.193.125.385.375.385h18.532c.188,0,.375-.193.375-.385Z" fill="#1a1a1a" fill-rule="evenodd"/><path d="M13.973,71.39v-3.718s-.12,0-.12,0v3.718s.12,0,.12,0ZM12.174,71.39v-3.718s-.18,0-.18,0v3.718s.18,0,.18,0ZM12.953,68.692v1.259h-.54s.66,1.439.66,1.439v-2.219h.54s-.66-1.499-.66-1.499v1.019Z" fill="#f3f3f3" fill-rule="evenodd"/><path d="M73.659,20.894v-1.661h.538c.204,0,.337.008.398.025.096.025.175.079.239.163s.097.191.097.323c0,.102-.019.188-.056.257-.037.069-.084.124-.142.164-.057.04-.114.066-.174.079-.08.016-.195.024-.348.024h-.219v.626h-.335ZM73.994,19.514v.471h.184c.132,0,.221-.009.266-.026.044-.018.079-.044.104-.082s.038-.08.038-.129c0-.06-.018-.11-.054-.149-.035-.039-.08-.064-.135-.074-.04-.007-.12-.011-.241-.011h-.162Z" fill="#231f20"/><path d="M75.121,20.353l.326-.032c.02.11.06.19.119.242.061.051.142.077.243.077.108,0,.189-.022.244-.068s.082-.099.082-.16c0-.04-.012-.073-.034-.101-.023-.027-.063-.051-.121-.072-.039-.014-.129-.038-.269-.073-.18-.044-.306-.099-.378-.164-.102-.091-.153-.203-.153-.334,0-.085.024-.164.072-.237.048-.074.117-.13.207-.168.091-.039.199-.058.327-.058.208,0,.365.045.471.137.105.092.161.213.166.366l-.335.015c-.015-.085-.046-.146-.093-.184s-.118-.056-.213-.056c-.097,0-.173.02-.229.06-.035.026-.053.06-.053.103,0,.04.017.073.05.101.042.035.145.072.308.111s.284.079.362.12.14.097.184.169c.044.071.066.159.066.264,0,.095-.026.185-.08.268-.053.083-.127.145-.224.185s-.218.061-.361.061c-.21,0-.371-.048-.484-.146-.112-.097-.18-.238-.201-.424Z" fill="#231f20"/><path d="M76.751,19.233h.335v.899c0,.143.004.235.013.277.014.068.048.123.103.164.054.041.128.062.221.062.096,0,.167-.02.216-.058.048-.039.077-.087.087-.144s.015-.151.015-.282v-.918h.336v.872c0,.2-.01.34-.027.423-.019.082-.052.151-.101.208-.049.057-.113.102-.195.135-.081.034-.188.05-.319.05-.159,0-.279-.019-.361-.055s-.146-.084-.194-.143c-.047-.059-.078-.12-.094-.184-.021-.095-.032-.235-.032-.421v-.886Z" fill="#231f20"/><path d="M79.434,20.598v.296h-1.116c.013-.112.049-.218.109-.318.06-.1.18-.233.357-.398.144-.134.231-.225.264-.272.044-.066.066-.131.066-.195,0-.071-.02-.125-.058-.164-.038-.039-.091-.058-.158-.058-.066,0-.119.02-.158.06s-.062.106-.068.2l-.317-.032c.02-.175.078-.301.179-.377.1-.076.224-.114.373-.114.164,0,.293.044.387.132s.141.198.141.33c0,.075-.014.146-.04.214-.027.067-.069.138-.128.212-.038.049-.107.12-.208.212-.101.092-.164.153-.191.183-.026.03-.048.06-.064.088h.632Z" fill="#231f20"/><polygon points="80.501 19.088 80.501 21.115 82.27 20.12 80.501 19.088" fill="#1a1a1a" fill-rule="evenodd"/><path d="M74.023,33.696l.326-.032c.02.11.06.19.119.242.061.051.142.077.243.077.108,0,.189-.022.244-.068s.082-.099.082-.16c0-.04-.012-.073-.034-.101-.023-.027-.063-.051-.121-.072-.039-.014-.129-.038-.269-.073-.18-.044-.306-.099-.378-.164-.102-.091-.153-.203-.153-.334,0-.085.024-.164.072-.237.048-.074.117-.13.207-.168.091-.039.199-.058.327-.058.208,0,.365.045.471.137.105.092.161.213.166.366l-.335.015c-.015-.085-.046-.146-.093-.184s-.118-.056-.213-.056c-.097,0-.173.02-.229.06-.035.026-.053.06-.053.103,0,.04.017.073.05.101.042.035.145.072.308.111s.284.079.362.12.14.097.184.169c.044.071.066.159.066.264,0,.095-.026.185-.08.268-.053.083-.127.145-.224.185s-.218.061-.361.061c-.21,0-.371-.048-.484-.146-.112-.097-.18-.238-.201-.424Z" fill="#231f20"/><path d="M75.654,34.237v-1.661h.318v1.661h-.318Z" fill="#231f20"/><path d="M76.224,33.618c0-.105.026-.208.078-.307.053-.099.126-.174.222-.227.096-.052.202-.078.32-.078.182,0,.331.059.447.177.116.119.175.268.175.448,0,.182-.06.333-.177.453s-.265.18-.443.18c-.11,0-.216-.025-.315-.075-.101-.05-.176-.123-.229-.219-.052-.097-.078-.214-.078-.352ZM76.55,33.635c0,.119.028.211.085.274.057.063.127.095.21.095s.152-.032.209-.095c.056-.063.084-.155.084-.276,0-.118-.028-.208-.084-.271-.057-.063-.126-.095-.209-.095s-.153.032-.21.095c-.057.063-.085.155-.085.274Z" fill="#231f20"/><path d="M78.266,33.034v.254h-.217v.485c0,.098.002.155.006.171.004.017.014.03.028.041.015.01.033.016.054.016.029,0,.072-.01.128-.031l.027.247c-.074.032-.157.048-.251.048-.058,0-.109-.01-.155-.029-.046-.02-.08-.044-.102-.075-.021-.03-.036-.072-.045-.124-.007-.037-.01-.112-.01-.224v-.524h-.146v-.254h.146v-.239l.319-.186v.425h.217Z" fill="#231f20"/><path d="M78.375,33.894l.319-.049c.014.062.041.109.083.141.041.032.1.048.174.048.082,0,.145-.015.186-.045.028-.021.042-.049.042-.085,0-.024-.007-.044-.022-.06-.016-.015-.051-.029-.106-.042-.257-.057-.42-.108-.488-.155-.095-.065-.143-.155-.143-.271,0-.104.041-.192.123-.263.083-.071.21-.106.383-.106.165,0,.287.027.367.081s.136.133.166.238l-.301.056c-.013-.047-.037-.083-.073-.107-.035-.025-.087-.038-.153-.038-.084,0-.144.012-.18.035-.024.017-.036.038-.036.064,0,.023.011.042.031.058.029.021.128.051.298.09.169.039.288.085.354.142.066.057.1.135.1.237,0,.11-.046.205-.138.284s-.229.119-.409.119c-.164,0-.293-.033-.389-.1-.096-.067-.158-.157-.188-.271Z" fill="#231f20"/><polygon points="80.276 32.43 80.276 34.457 82.045 33.462 80.276 32.43" fill="#1a1a1a" fill-rule="evenodd"/><polygon points="79.178 48.663 77.151 48.663 78.146 50.432 79.178 48.663" fill="#1a1a1a" fill-rule="evenodd"/><path d="M75.269,43.444l.326-.032c.02.11.06.19.119.242.061.051.142.077.243.077.108,0,.189-.022.244-.068s.082-.099.082-.16c0-.04-.012-.073-.034-.101-.023-.027-.063-.051-.121-.072-.039-.014-.129-.038-.269-.073-.18-.044-.306-.099-.378-.164-.102-.091-.153-.203-.153-.334,0-.085.024-.164.072-.237.048-.074.117-.13.207-.168.091-.039.199-.058.327-.058.208,0,.365.045.471.137.105.092.161.213.166.366l-.335.015c-.015-.085-.046-.146-.093-.184s-.118-.056-.213-.056c-.097,0-.173.02-.229.06-.035.026-.053.06-.053.103,0,.04.017.073.05.101.042.035.145.072.308.111s.284.079.362.12.14.097.184.169c.044.071.066.159.066.264,0,.095-.026.185-.08.268-.053.083-.127.145-.224.185s-.218.061-.361.061c-.21,0-.371-.048-.484-.146-.112-.097-.18-.238-.201-.424Z" fill="#231f20"/><path d="M76.9,43.985v-1.661h.318v1.661h-.318Z" fill="#231f20"/><path d="M77.47,43.366c0-.105.026-.208.078-.307.053-.099.126-.174.222-.227.096-.052.202-.078.32-.078.182,0,.331.059.447.177.116.119.175.268.175.448,0,.182-.06.333-.177.453s-.265.18-.443.18c-.11,0-.216-.025-.315-.075-.101-.05-.176-.123-.229-.219-.052-.097-.078-.214-.078-.352ZM77.796,43.383c0,.119.028.211.085.274.057.063.127.095.21.095s.152-.032.209-.095c.056-.063.084-.155.084-.276,0-.118-.028-.208-.084-.271-.057-.063-.126-.095-.209-.095s-.153.032-.21.095c-.057.063-.085.155-.085.274Z" fill="#231f20"/><path d="M79.512,42.782v.254h-.217v.485c0,.098.002.155.006.171.004.017.014.03.028.041.015.01.033.016.054.016.029,0,.072-.01.128-.031l.027.247c-.074.032-.157.048-.251.048-.058,0-.109-.01-.155-.029-.046-.02-.08-.044-.102-.075-.021-.03-.036-.072-.045-.124-.007-.037-.01-.112-.01-.224v-.524h-.146v-.254h.146v-.239l.319-.186v.425h.217Z" fill="#231f20"/><path d="M79.621,43.642l.319-.049c.014.062.041.109.083.141.041.032.1.048.174.048.082,0,.145-.015.186-.045.028-.021.042-.049.042-.085,0-.024-.007-.044-.022-.06-.016-.015-.051-.029-.106-.042-.257-.057-.42-.108-.488-.155-.095-.065-.143-.155-.143-.271,0-.104.041-.192.123-.263.083-.071.21-.106.383-.106.165,0,.287.027.367.081s.136.133.166.238l-.301.056c-.013-.047-.037-.083-.073-.107-.035-.025-.087-.038-.153-.038-.084,0-.144.012-.18.035-.024.017-.036.038-.036.064,0,.023.011.042.031.058.029.021.128.051.298.09.169.039.288.085.354.142.066.057.1.135.1.237,0,.11-.046.205-.138.284s-.229.119-.409.119c-.164,0-.293-.033-.389-.1-.096-.067-.158-.157-.188-.271Z" fill="#231f20"/><path d="M76.379,15.855v-1.661h.538c.204,0,.337.008.398.025.096.025.175.079.239.163s.097.191.097.323c0,.102-.019.188-.056.257-.037.069-.084.124-.142.164-.057.04-.114.066-.174.079-.08.016-.195.024-.348.024h-.219v.626h-.335ZM76.714,14.475v.471h.184c.132,0,.221-.009.266-.026.044-.018.079-.044.104-.082s.038-.08.038-.129c0-.06-.018-.11-.054-.149-.035-.039-.08-.064-.135-.074-.04-.007-.12-.011-.241-.011h-.162Z" fill="#231f20"/><path d="M77.842,15.314l.326-.032c.02.11.06.19.119.242.061.051.142.077.243.077.108,0,.189-.022.244-.068s.082-.099.082-.16c0-.04-.012-.073-.034-.101-.023-.027-.063-.051-.121-.072-.039-.014-.129-.038-.269-.073-.18-.044-.306-.099-.378-.164-.102-.091-.153-.203-.153-.334,0-.085.024-.164.072-.237.048-.074.117-.13.207-.168.091-.039.199-.058.327-.058.208,0,.365.045.471.137.105.092.161.213.166.366l-.335.015c-.015-.085-.046-.146-.093-.184s-.118-.056-.213-.056c-.097,0-.173.02-.229.06-.035.026-.053.06-.053.103,0,.04.017.073.05.101.042.035.145.072.308.111s.284.079.362.12.14.097.184.169c.044.071.066.159.066.264,0,.095-.026.185-.08.268-.053.083-.127.145-.224.185s-.218.061-.361.061c-.21,0-.371-.048-.484-.146-.112-.097-.18-.238-.201-.424Z" fill="#231f20"/><path d="M79.472,14.194h.335v.899c0,.143.004.235.013.277.014.068.048.123.103.164.054.041.128.062.221.062.096,0,.167-.02.216-.058.048-.039.077-.087.087-.144s.015-.151.015-.282v-.918h.336v.872c0,.2-.01.34-.027.423-.019.082-.052.151-.101.208-.049.057-.113.102-.195.135-.081.034-.188.05-.319.05-.159,0-.279-.019-.361-.055s-.146-.084-.194-.143c-.047-.059-.078-.12-.094-.184-.021-.095-.032-.235-.032-.421v-.886Z" fill="#231f20"/><path d="M81.894,15.855h-.318v-1.2c-.116.109-.253.189-.411.241v-.289c.083-.027.173-.079.271-.155.098-.076.164-.165.201-.266h.258v1.667Z" fill="#231f20"/><polygon points="75.258 14.049 75.258 16.076 73.49 15.081 75.258 14.049" fill="#1a1a1a" fill-rule="evenodd"/><path d="M76.443,24.045l.326-.032c.02.11.06.19.119.242.061.051.142.077.243.077.108,0,.189-.022.244-.068s.082-.099.082-.16c0-.04-.012-.073-.034-.101-.023-.027-.063-.051-.121-.072-.039-.014-.129-.038-.269-.073-.18-.044-.306-.099-.378-.164-.102-.091-.153-.203-.153-.334,0-.085.024-.164.072-.237.048-.074.117-.13.207-.168.091-.039.199-.058.327-.058.208,0,.365.045.471.137.105.092.161.213.166.366l-.335.015c-.015-.085-.046-.146-.093-.184s-.118-.056-.213-.056c-.097,0-.173.02-.229.06-.035.026-.053.06-.053.103,0,.04.017.073.05.101.042.035.145.072.308.111s.284.079.362.12.14.097.184.169c.044.071.066.159.066.264,0,.095-.026.185-.08.268-.053.083-.127.145-.224.185s-.218.061-.361.061c-.21,0-.371-.048-.484-.146-.112-.097-.18-.238-.201-.424Z" fill="#231f20"/><path d="M78.074,24.585v-1.661h.318v1.661h-.318Z" fill="#231f20"/><path d="M78.644,23.967c0-.105.026-.208.078-.307.053-.099.126-.174.222-.227.096-.052.202-.078.32-.078.182,0,.331.059.447.177.116.119.175.268.175.448,0,.182-.06.333-.177.453s-.265.18-.443.18c-.11,0-.216-.025-.315-.075-.101-.05-.176-.123-.229-.219-.052-.097-.078-.214-.078-.352ZM78.97,23.984c0,.119.028.211.085.274.057.063.127.095.21.095s.152-.032.209-.095c.056-.063.084-.155.084-.276,0-.118-.028-.208-.084-.271-.057-.063-.126-.095-.209-.095s-.153.032-.21.095c-.057.063-.085.155-.085.274Z" fill="#231f20"/><path d="M80.686,23.382v.254h-.217v.485c0,.098.002.155.006.171.004.017.014.03.028.041.015.01.033.016.054.016.029,0,.072-.01.128-.031l.027.247c-.074.032-.157.048-.251.048-.058,0-.109-.01-.155-.029-.046-.02-.08-.044-.102-.075-.021-.03-.036-.072-.045-.124-.007-.037-.01-.112-.01-.224v-.524h-.146v-.254h.146v-.239l.319-.186v.425h.217Z" fill="#231f20"/><path d="M80.795,24.242l.319-.049c.014.062.041.109.083.141.041.032.1.048.174.048.082,0,.145-.015.186-.045.028-.021.042-.049.042-.085,0-.024-.007-.044-.022-.06-.016-.015-.051-.029-.106-.042-.257-.057-.42-.108-.488-.155-.095-.065-.143-.155-.143-.271,0-.104.041-.192.123-.263.083-.071.21-.106.383-.106.165,0,.287.027.367.081s.136.133.166.238l-.301.056c-.013-.047-.037-.083-.073-.107-.035-.025-.087-.038-.153-.038-.084,0-.144.012-.18.035-.024.017-.036.038-.036.064,0,.023.011.042.031.058.029.021.128.051.298.09.169.039.288.085.354.142.066.057.1.135.1.237,0,.11-.046.205-.138.284s-.229.119-.409.119c-.164,0-.293-.033-.389-.1-.096-.067-.158-.157-.188-.271Z" fill="#231f20"/><polygon points="75.408 22.779 75.408 24.806 73.639 23.811 75.408 22.779" fill="#1a1a1a" fill-rule="evenodd"/><rect x="73.263" y="35.022" width="9.235" height="6.453" fill="none" stroke="#231f20" stroke-miterlimit="10" stroke-width=".15"/><line x1="75.081" y1="35.096" x2="75.081" y2="41.476" fill="none" stroke="#231f20" stroke-miterlimit="10" stroke-width=".15"/><line x1="76.898" y1="35.096" x2="76.898" y2="41.476" fill="none" stroke="#231f20" stroke-miterlimit="10" stroke-width=".15"/><line x1="78.715" y1="35.096" x2="78.715" y2="41.476" fill="none" stroke="#231f20" stroke-miterlimit="10" stroke-width=".15"/><line x1="80.533" y1="35.096" x2="80.533" y2="41.476" fill="none" stroke="#231f20" stroke-miterlimit="10" stroke-width=".15"/><rect x="73.263" y="25.336" width="9.235" height="6.453" fill="none" stroke="#231f20" stroke-miterlimit="10" stroke-width=".15"/><line x1="75.081" y1="25.41" x2="75.081" y2="31.789" fill="none" stroke="#231f20" stroke-miterlimit="10" stroke-width=".15"/><line x1="76.898" y1="25.41" x2="76.898" y2="31.789" fill="none" stroke="#231f20" stroke-miterlimit="10" stroke-width=".15"/><line x1="78.715" y1="25.41" x2="78.715" y2="31.789" fill="none" stroke="#231f20" stroke-miterlimit="10" stroke-width=".15"/><path d="M74.464,29.33h-.288v-1.083c-.104.098-.229.171-.371.218v-.261c.075-.025.156-.071.244-.14.088-.069.148-.149.182-.24h.233v1.506Z" fill="#231f20"/><path d="M76.524,29.062v.267h-1.009c.012-.101.044-.197.099-.287s.162-.21.323-.359c.13-.121.209-.203.238-.246.04-.06.06-.118.06-.176,0-.064-.018-.113-.052-.148-.034-.034-.082-.051-.143-.051s-.107.018-.144.054c-.035.036-.056.096-.062.18l-.286-.028c.017-.158.07-.272.161-.341.09-.069.202-.104.337-.104.148,0,.265.04.35.12.084.08.127.179.127.298,0,.068-.013.132-.037.193-.023.061-.062.125-.115.192-.034.044-.097.108-.188.191-.091.083-.148.139-.173.166-.024.027-.044.054-.059.08h.571Z" fill="#231f20"/><path d="M77.335,28.932l.278-.034c.009.071.032.125.071.163s.086.056.142.056c.059,0,.109-.022.149-.067.041-.045.061-.106.061-.182,0-.072-.019-.13-.058-.172-.039-.042-.087-.063-.143-.063-.037,0-.081.007-.132.021l.031-.234c.078.002.138-.015.179-.051.041-.036.062-.083.062-.143,0-.051-.016-.091-.045-.121-.03-.03-.07-.045-.12-.045-.049,0-.091.017-.126.051s-.056.084-.063.149l-.265-.045c.019-.091.046-.163.083-.217.037-.055.089-.097.155-.128.066-.031.142-.047.224-.047.142,0,.255.045.34.135.07.074.105.157.105.25,0,.132-.072.237-.216.315.086.018.154.06.206.124.052.064.077.142.077.232,0,.132-.048.244-.144.336-.097.093-.217.139-.359.139-.136,0-.249-.039-.338-.117-.09-.078-.142-.18-.155-.306Z" fill="#231f20"/><path d="M79.819,29.33v-.302h-.614v-.252l.65-.953h.242v.952h.186v.253h-.186v.302h-.278ZM79.819,28.775v-.513l-.346.513h.346Z" fill="#231f20"/><path d="M80.328,29.355l.371-1.551h.216l-.375,1.551h-.212Z" fill="#231f20"/><path d="M81.006,28.944l.287-.03c.008.065.032.116.072.154.04.038.087.057.14.057.06,0,.11-.024.152-.073.041-.049.062-.122.062-.221,0-.092-.021-.161-.062-.207-.041-.046-.095-.069-.161-.069-.082,0-.156.036-.222.109l-.233-.034.147-.781h.76v.269h-.542l-.045.255c.064-.032.13-.048.196-.048.128,0,.235.046.324.139s.133.213.133.361c0,.124-.035.233-.107.331-.097.132-.232.198-.406.198-.138,0-.251-.037-.338-.111-.088-.074-.14-.174-.157-.3Z" fill="#231f20"/><path d="M75.799,38.146c-.074-.031-.129-.074-.162-.129-.034-.055-.051-.115-.051-.181,0-.112.039-.204.117-.277.078-.073.188-.109.333-.109.143,0,.253.037.332.109.078.073.118.166.118.277,0,.07-.019.132-.055.186s-.087.096-.152.124c.083.034.146.083.19.146.043.064.064.138.064.222,0,.138-.044.251-.133.337-.088.087-.205.13-.353.13-.136,0-.25-.036-.341-.107-.106-.084-.16-.2-.16-.348,0-.081.021-.156.061-.224s.104-.12.19-.157ZM75.831,38.499c0,.079.021.141.062.186.04.044.091.066.151.066.06,0,.108-.021.147-.064s.059-.104.059-.185c0-.07-.021-.127-.06-.169-.04-.042-.09-.064-.15-.064-.07,0-.123.024-.157.073-.034.048-.052.101-.052.157ZM75.858,37.856c0,.058.017.102.049.134s.076.048.13.048c.055,0,.098-.016.131-.048.032-.033.049-.077.049-.135,0-.054-.016-.097-.049-.129-.032-.032-.075-.048-.128-.048-.056,0-.1.016-.132.049-.033.033-.05.076-.05.13Z" fill="#231f20"/><path d="M77.351,38.609l.278-.031c.007.057.025.099.054.125.028.027.066.041.113.041.06,0,.11-.027.151-.082.042-.055.068-.168.08-.34-.072.084-.163.126-.271.126-.117,0-.22-.046-.305-.137-.086-.091-.129-.209-.129-.355,0-.152.045-.275.136-.368.09-.093.205-.14.346-.14.151,0,.276.059.374.177s.146.311.146.581c0,.274-.051.472-.152.593-.102.122-.234.182-.397.182-.117,0-.212-.031-.284-.093s-.119-.156-.14-.28ZM78.002,37.98c0-.093-.021-.165-.064-.216-.042-.051-.092-.077-.147-.077-.054,0-.098.021-.133.062s-.053.111-.053.207c0,.097.02.168.058.213s.086.068.144.068c.055,0,.102-.022.14-.065.037-.044.057-.108.057-.192Z" fill="#231f20"/><path d="M79.423,38.956h-.215v-1.083c-.079.098-.172.171-.279.218v-.261c.057-.025.118-.071.184-.14.066-.069.111-.149.136-.24h.175v1.506Z" fill="#231f20"/><path d="M79.953,37.449c.108,0,.193.052.255.156.073.123.11.326.11.611s-.037.488-.11.612c-.062.103-.146.153-.255.153-.109,0-.198-.056-.265-.168-.067-.112-.101-.312-.101-.6,0-.283.036-.486.11-.61.061-.103.146-.154.255-.154ZM79.953,37.688c-.026,0-.05.011-.07.033-.021.022-.036.062-.048.119-.015.074-.021.199-.021.375s.006.297.02.363.03.109.051.131c.02.022.043.033.069.033.025,0,.049-.011.069-.033s.036-.062.048-.119c.015-.074.022-.199.022-.375s-.007-.297-.021-.363c-.013-.066-.03-.11-.05-.132-.021-.022-.044-.033-.069-.033Z" fill="#231f20"/><path d="M73.646,36.621v-1.2h.34l.204.819.202-.819h.341v1.2h-.211v-.945l-.224.945h-.219l-.223-.945v.945h-.211Z" fill="#231f20"/><path d="M74.215,37.676v-.202h.489v.478c-.047.049-.116.093-.206.13-.091.038-.182.056-.274.056-.118,0-.221-.026-.308-.079-.088-.053-.153-.128-.197-.226-.044-.098-.066-.204-.066-.319,0-.125.024-.236.073-.333.05-.097.121-.171.216-.223.072-.04.162-.06.27-.06.14,0,.249.031.327.094.079.062.129.149.151.259l-.226.045c-.016-.059-.045-.105-.089-.14s-.099-.051-.164-.051c-.1,0-.178.033-.236.101-.059.067-.088.167-.088.299,0,.142.029.249.089.32s.137.107.233.107c.047,0,.095-.01.143-.03.048-.02.089-.044.123-.073v-.152h-.26Z" fill="#231f20"/><path d="M73.646,39.614v-1.2h.34l.204.819.202-.819h.341v1.2h-.211v-.945l-.224.945h-.219l-.223-.945v.945h-.211Z" fill="#231f20"/><path d="M74.076,41.111v-.997h-.333v-.203h.894v.203h-.333v.997h-.228Z" fill="#231f20"/><path d="M81.403,38.956h-.215v-1.083c-.079.098-.172.171-.279.218v-.261c.057-.025.118-.071.184-.14.066-.069.111-.149.136-.24h.175v1.506Z" fill="#231f20"/><path d="M82.033,38.956h-.215v-1.083c-.079.098-.172.171-.279.218v-.261c.057-.025.118-.071.184-.14.066-.069.111-.149.136-.24h.175v1.506Z" fill="#231f20"/><rect x="73.263" y="44.79" width="9.235" height="2.977" fill="none" stroke="#231f20" stroke-miterlimit="10" stroke-width=".15"/><line x1="77.936" y1="44.864" x2="77.936" y2="47.767" fill="none" stroke="#231f20" stroke-miterlimit="10" stroke-width=".15"/><path d="M76.076,45.904l-.278.031c-.007-.057-.024-.1-.054-.127-.028-.027-.065-.041-.111-.041-.061,0-.112.027-.154.082s-.068.168-.079.341c.071-.084.161-.127.268-.127.119,0,.223.046.308.137.086.091.129.209.129.354,0,.153-.045.276-.135.369-.091.093-.206.139-.348.139-.151,0-.275-.059-.373-.176s-.146-.311-.146-.579c0-.275.051-.473.152-.595.102-.121.234-.182.396-.182.113,0,.208.032.283.096.074.064.122.156.143.278ZM75.423,46.531c0,.093.021.166.064.216s.093.076.147.076c.054,0,.098-.021.133-.062.036-.042.054-.11.054-.205,0-.098-.02-.169-.058-.214s-.086-.068-.144-.068c-.055,0-.102.021-.14.065s-.058.107-.058.192Z" fill="#231f20"/><path d="M79.744,45.824v-.267h.983v.208c-.081.08-.164.194-.247.344-.084.149-.148.309-.192.477s-.065.318-.064.451h-.277c.004-.208.047-.419.128-.634.081-.216.188-.408.324-.578h-.654Z" fill="#231f20"/></g><path d="M171.648,39.706v6.489c0,.514.45.964.964.964h.642c.578,0,.964-.45.964-.964v-6.489c0-.578-.386-.964-.964-.964h-.642c-.514,0-.964.385-.964.964Z" fill="#333" fill-rule="evenodd"/></g><g id="c"><polyline points="172.288 58.92 148.311 58.92 148.311 113.349" fill="none" stroke="#fff" stroke-linejoin="round" stroke-width="4.503"/><polyline points="172.288 58.92 148.311 58.92 148.311 113.349" fill="none" stroke="#006938" stroke-linejoin="round" stroke-width="1.801"/><line x1="185.229" y1="146.925" x2="210.732" y2="146.925" fill="none" stroke="#fff" stroke-linejoin="round" stroke-width="4.503"/><line x1="185.229" y1="146.925" x2="210.732" y2="146.925" fill="none" stroke="#006938" stroke-linejoin="round" stroke-width="1.801"/><polygon points="356.504 140.257 214.409 140.257 222.063 133.68 349.327 133.68 356.504 140.257 356.504 140.257 356.504 140.257" fill="#a7a9ac" fill-rule="evenodd"/><polygon points="214.409 142.414 356.504 142.414 356.504 155.788 214.409 155.788 214.409 142.414 214.409 142.414" fill="#a7a9ac" fill-rule="evenodd"/><path d="M316.159,153.185h-4.666v-2.912h4.666v2.912h0ZM316.159,148.168h-4.666v-2.91h4.666v2.91h0ZM321.615,153.185h-4.668v-2.912h4.668v2.912h0ZM321.615,148.168h-4.668v-2.91h4.668v2.91h0ZM327.069,153.185h-4.666v-2.912h4.666v2.912h0ZM327.069,148.168h-4.666v-2.91h4.666v2.91h0ZM332.522,153.185h-4.666v-2.912h4.666v2.912h0ZM332.522,148.168h-4.666v-2.91h4.666v2.91h0ZM310.705,148.168h-4.666v-2.91h4.666v2.91h0ZM305.253,153.185h-4.667v-2.912h4.667v2.912h0ZM305.253,148.168h-4.667v-2.91h4.667v2.91h0ZM310.705,153.185h-4.666v-2.912h4.666v2.912h0Z" fill="#fff" fill-rule="evenodd"/><path d="M279.799,153.185h-4.666v-2.912h4.666v2.912h0ZM279.799,148.168h-4.666v-2.91h4.666v2.91h0ZM285.252,153.185h-4.667v-2.912h4.667v2.912h0ZM285.252,148.168h-4.667v-2.91h4.667v2.91h0ZM290.708,153.185h-4.668v-2.912h4.668v2.912h0ZM290.708,148.168h-4.668v-2.91h4.668v2.91h0ZM296.162,153.185h-4.667v-2.912h4.667v2.912h0ZM296.162,148.168h-4.667v-2.91h4.667v2.91h0ZM274.345,148.168h-4.667v-2.91h4.667v2.91h0ZM268.891,153.185h-4.666v-2.912h4.666v2.912h0ZM268.891,148.168h-4.666v-2.91h4.666v2.91h0ZM274.345,153.185h-4.667v-2.912h4.667v2.912h0Z" fill="#fff" fill-rule="evenodd"/><path d="M231.059,152.935h-12.25v-3.847h12.25v3.847h0ZM246.607,152.935h-12.249v-3.847h12.249v3.847h0Z" fill="#fff" fill-rule="evenodd"/><path d="M185.232,122.598c0-2.89-2.341-5.231-5.23-5.231h-63.635c-2.889,0-5.228,2.341-5.228,5.231v40.862h74.093v-40.862ZM148.184,118.913c1.015,0,1.84.824,1.84,1.84s-.825,1.84-1.84,1.84-1.841-.824-1.841-1.84.824-1.84,1.841-1.84ZM179.373,161.41h-62.381v-37.355h62.381v37.355ZM103.517,166.401v.235c0,3.481,2.826,6.305,6.306,6.305h76.723c3.481,0,6.306-2.824,6.306-6.305v-.235h-89.334Z" fill="#a7a9ac"/><rect x="118.027" y="125.685" width="60.263" height="33.846" fill="#fff"/><path d="M150.162,113.487c0,1.068-.866,1.934-1.935,1.934s-1.934-.866-1.934-1.934c0-1.07.866-1.936,1.934-1.936s1.935.866,1.935,1.936Z" fill="#006938"/><path d="M210.72,144.891c-1.068,0-1.934.866-1.934,1.935,0,1.068.866,1.934,1.934,1.934s1.936-.866,1.936-1.934c0-1.069-.866-1.935-1.936-1.935Z" fill="#006938"/></g></svg>