<?xml version="1.0" encoding="UTF-8"?><svg id="a" xmlns="http://www.w3.org/2000/svg" width="2.25in" height="1.518in" viewBox="0 0 162 109.272"><path d="M158.548,17.145v88.675H3.452V17.145h155.096M162,13.693H0v95.579h162V13.693h0Z" fill="#f69220"/><path d="M29.443,35.695l-.776.062c-.069-.307-.167-.529-.294-.668-.211-.223-.471-.334-.78-.334-.249,0-.467.069-.655.208-.246.18-.439.441-.581.785s-.215.833-.221,1.469c.188-.286.417-.498.689-.637.271-.139.556-.208.854-.208.52,0,.963.191,1.329.574.365.383.548.878.548,1.484,0,.399-.086.77-.258,1.112-.172.342-.408.604-.709.786-.3.183-.641.273-1.022.273-.65,0-1.181-.239-1.591-.718-.41-.478-.616-1.266-.616-2.364,0-1.228.227-2.121.681-2.679.396-.485.929-.729,1.599-.729.5,0,.91.141,1.229.421s.511.667.574,1.161ZM26.258,38.435c0,.269.057.525.171.771.114.245.274.433.479.562.205.128.42.192.646.192.329,0,.612-.133.85-.398.237-.267.355-.627.355-1.084,0-.439-.117-.785-.351-1.038-.234-.253-.529-.379-.884-.379-.353,0-.652.126-.897.379s-.368.585-.368.995Z" fill="#221f1f"/><path d="M34.291,35.695l-.776.062c-.069-.307-.167-.529-.294-.668-.211-.223-.471-.334-.78-.334-.249,0-.467.069-.655.208-.246.18-.439.441-.581.785s-.215.833-.221,1.469c.188-.286.417-.498.689-.637.271-.139.556-.208.854-.208.52,0,.963.191,1.329.574.365.383.548.878.548,1.484,0,.399-.086.77-.258,1.112-.172.342-.408.604-.709.786-.3.183-.641.273-1.022.273-.65,0-1.181-.239-1.591-.718-.41-.478-.616-1.266-.616-2.364,0-1.228.227-2.121.681-2.679.396-.485.929-.729,1.599-.729.5,0,.91.141,1.229.421s.511.667.574,1.161ZM31.105,38.435c0,.269.057.525.171.771.114.245.274.433.479.562.205.128.42.192.646.192.329,0,.612-.133.85-.398.237-.267.355-.627.355-1.084,0-.439-.117-.785-.351-1.038-.234-.253-.529-.379-.884-.379-.353,0-.652.126-.897.379s-.368.585-.368.995Z" fill="#221f1f"/><path d="M35.529,40.494v-.889h.889v.889h-.889Z" fill="#221f1f"/><path d="M37.52,34.972v-.75h4.113v.607c-.405.431-.806,1.003-1.203,1.716-.397.714-.704,1.448-.921,2.202-.156.532-.255,1.114-.299,1.747h-.802c.008-.5.107-1.104.294-1.812.188-.708.458-1.391.809-2.049.351-.657.724-1.211,1.12-1.662h-3.112Z" fill="#221f1f"/><path d="M43.516,37.048c-.324-.118-.563-.287-.719-.507-.156-.22-.234-.482-.234-.789,0-.462.167-.851.499-1.166.333-.314.774-.473,1.326-.473.555,0,1.001.161,1.339.483.338.322.507.715.507,1.177,0,.295-.078.552-.232.77-.155.219-.39.387-.705.505.39.128.687.333.891.616.204.283.306.621.306,1.014,0,.544-.192,1-.576,1.37s-.89.555-1.517.555-1.133-.186-1.517-.557c-.384-.372-.576-.835-.576-1.39,0-.413.104-.759.314-1.038s.508-.469.895-.57ZM43.109,38.66c0,.223.053.438.158.646s.262.369.47.483.432.171.672.171c.373,0,.68-.12.923-.359.243-.24.364-.545.364-.915,0-.376-.125-.687-.375-.932-.25-.246-.562-.368-.938-.368-.367,0-.671.121-.912.363-.241.243-.362.547-.362.91ZM43.361,35.726c0,.3.097.546.29.736.194.19.445.286.754.286.3,0,.547-.095.739-.284.192-.188.289-.421.289-.695,0-.286-.099-.526-.297-.722-.198-.195-.444-.293-.739-.293-.297,0-.544.096-.741.286-.196.191-.294.419-.294.686Z" fill="#221f1f"/><path d="M49.74,40.494v-6.354h.78v6.354h-.78Z" fill="#221f1f"/><path d="M52.361,40.494h-.724v-6.354h.78v2.267c.33-.413.75-.619,1.261-.619.283,0,.551.057.804.171.252.114.461.274.624.481.163.206.291.456.383.747.093.292.139.604.139.937,0,.789-.195,1.398-.585,1.829s-.858.646-1.404.646c-.543,0-.969-.228-1.278-.681v.576ZM52.352,38.158c0,.552.075.95.226,1.196.245.401.578.603.997.603.341,0,.636-.148.884-.444.249-.297.373-.738.373-1.324,0-.602-.119-1.045-.357-1.331s-.526-.429-.865-.429c-.341,0-.636.147-.884.444-.249.296-.373.725-.373,1.285Z" fill="#221f1f"/><path d="M23.003,51.362c-.431-.543-.795-1.179-1.092-1.907-.298-.729-.446-1.482-.446-2.263,0-.688.111-1.347.333-1.977.26-.731.662-1.459,1.205-2.185h.559c-.35.602-.581,1.03-.693,1.287-.176.399-.315.815-.417,1.249-.124.54-.186,1.083-.186,1.63,0,1.39.432,2.778,1.296,4.165h-.559Z" fill="#221f1f"/><path d="M24.166,47.816l.78-.104c.089.441.242.761.458.955.215.195.477.293.787.293.367,0,.677-.127.93-.382.252-.254.379-.568.379-.944,0-.358-.117-.654-.351-.887-.234-.232-.532-.349-.893-.349-.147,0-.331.028-.551.087l.087-.686c.052.006.094.009.125.009.333,0,.631-.087.897-.26.266-.174.398-.44.398-.802,0-.286-.097-.523-.29-.711-.194-.188-.444-.282-.75-.282-.303,0-.556.096-.758.286-.203.191-.333.477-.39.858l-.78-.139c.095-.523.312-.929.65-1.216.338-.287.758-.432,1.261-.432.347,0,.666.075.958.224s.515.352.67.609c.154.257.232.53.232.818,0,.275-.074.525-.221.75-.147.226-.366.405-.654.538.375.087.667.267.875.539.208.273.312.615.312,1.025,0,.555-.203,1.025-.607,1.411-.405.386-.916.578-1.534.578-.558,0-1.021-.166-1.389-.498-.369-.332-.579-.763-.631-1.292Z" fill="#221f1f"/><path d="M29.009,46.36c0-.751.078-1.356.232-1.814.155-.458.384-.811.689-1.06.305-.248.688-.373,1.15-.373.341,0,.64.069.897.206.257.138.469.336.637.594.167.259.299.574.394.945.096.371.143.872.143,1.502,0,.745-.077,1.348-.229,1.806-.153.458-.382.812-.687,1.062s-.69.375-1.155.375c-.612,0-1.094-.22-1.443-.659-.419-.528-.629-1.39-.629-2.583ZM29.812,46.36c0,1.043.122,1.737.366,2.083.244.345.545.518.903.518s.66-.173.904-.521c.244-.347.366-1.04.366-2.08,0-1.046-.122-1.741-.366-2.085s-.548-.516-.912-.516c-.358,0-.645.151-.858.455-.269.387-.403,1.103-.403,2.146Z" fill="#221f1f"/><path d="M34.296,49.494v-.889h.889v.889h-.889Z" fill="#221f1f"/><path d="M40.335,48.744v.75h-4.2c-.006-.188.025-.368.091-.542.107-.286.278-.567.514-.845.235-.277.576-.599,1.021-.963.69-.566,1.157-1.015,1.4-1.346s.364-.644.364-.938c0-.309-.111-.57-.332-.782-.221-.213-.509-.318-.865-.318-.376,0-.676.112-.902.338-.225.226-.339.537-.342.937l-.802-.083c.055-.598.262-1.054.62-1.367.358-.313.839-.471,1.443-.471.61,0,1.092.169,1.448.508.355.338.533.757.533,1.257,0,.254-.052.504-.156.75-.104.245-.277.504-.518.775s-.642.645-1.203,1.118c-.468.394-.769.66-.901.8-.133.141-.243.281-.33.423h3.116Z" fill="#221f1f"/><path d="M41.2,48.024l.75-.069c.063.353.185.608.364.768s.409.238.689.238c.24,0,.45-.055.63-.165.181-.109.329-.256.444-.439s.212-.432.291-.743c.078-.312.117-.63.117-.954,0-.034-.001-.087-.004-.156-.156.249-.369.45-.64.605-.27.154-.562.231-.877.231-.526,0-.971-.19-1.335-.572-.364-.381-.546-.884-.546-1.509,0-.644.19-1.163.57-1.556s.856-.59,1.428-.59c.414,0,.791.111,1.134.334.342.223.602.54.78.951.178.412.267,1.008.267,1.788,0,.812-.088,1.459-.264,1.94-.176.48-.438.847-.787,1.099-.348.251-.756.377-1.225.377-.497,0-.903-.138-1.218-.414-.315-.275-.504-.664-.568-1.164ZM44.394,45.221c0-.448-.119-.804-.357-1.066-.238-.264-.525-.395-.86-.395-.347,0-.649.142-.906.425-.257.283-.386.65-.386,1.101,0,.404.122.733.366.986s.545.379.903.379c.361,0,.658-.126.891-.379.233-.253.349-.604.349-1.051Z" fill="#221f1f"/><path d="M48.529,49.494v-6.354h.78v3.624l1.846-1.873h1.01l-1.759,1.708,1.937,2.896h-.962l-1.521-2.354-.55.528v1.825h-.78Z" fill="#221f1f"/><path d="M52.731,49.876l.759.112c.032.234.12.404.264.512.194.145.458.217.793.217.361,0,.64-.072.836-.217.196-.145.329-.347.398-.607.041-.158.06-.492.057-1.001-.341.401-.766.603-1.274.603-.633,0-1.123-.229-1.469-.685-.347-.457-.52-1.005-.52-1.644,0-.438.08-.844.238-1.216.159-.371.389-.657.691-.86.302-.202.657-.303,1.064-.303.543,0,.991.22,1.344.658v-.555h.719v3.979c0,.717-.073,1.225-.219,1.523s-.377.535-.693.709c-.316.173-.706.26-1.168.26-.549,0-.992-.123-1.331-.37-.338-.247-.501-.619-.49-1.116ZM53.377,47.11c0,.604.12,1.044.36,1.322.24.277.54.416.901.416.358,0,.659-.139.901-.414.243-.276.364-.709.364-1.299,0-.563-.125-.988-.375-1.274-.25-.285-.551-.429-.904-.429-.347,0-.641.141-.884.423-.243.281-.364.7-.364,1.255Z" fill="#221f1f"/><path d="M58.234,51.362h-.559c.864-1.387,1.296-2.775,1.296-4.165,0-.544-.062-1.083-.187-1.617-.098-.434-.235-.85-.412-1.248-.113-.261-.345-.694-.698-1.301h.559c.543.726.945,1.453,1.205,2.185.223.63.334,1.289.334,1.977,0,.78-.149,1.534-.449,2.263-.299.729-.663,1.364-1.09,1.907Z" fill="#221f1f"/><path d="M70.371,25.837c-1.25,0-2.26-1.011-2.26-2.257,0-.526.271-.967.475-1.388L79.222.868c.41-.529,1.054-.868,1.78-.868s1.374.34,1.783.868l10.632,21.324c.243.421.471.862.471,1.388,0,1.246-1.01,2.257-2.258,2.257h-21.259Z" fill="#f69220" fill-rule="evenodd"/><path d="M82.603,20.878c0,.884-.716,1.599-1.601,1.599s-1.6-.715-1.6-1.599.716-1.601,1.6-1.601,1.601.715,1.601,1.601Z" fill="#fff" fill-rule="evenodd"/><path d="M81.002,7.505c-.821,0-1.485.667-1.485,1.482l.491,8.009c0,.548.446.987.994.987.544,0,.986-.439.986-.987l.499-8.009c0-.816-.665-1.482-1.485-1.482Z" fill="#fff" fill-rule="evenodd"/><line x1="81" y1="32.174" x2="81" y2="98.568" fill="none" stroke="#f69220" stroke-linecap="round" stroke-linejoin="round" stroke-width="1.8"/><polyline points="40.471 90.511 65.19 76.052 65.19 69.652" fill="#fff" stroke="#211e1f" stroke-linecap="round" stroke-linejoin="round" stroke-width=".766"/><polyline points="18.479 71.247 43.241 56.973 65.177 69.652 40.426 83.918" fill="#fff" stroke="#211e1f" stroke-linecap="round" stroke-linejoin="round" stroke-width=".766"/><polygon points="40.423 90.487 40.423 83.923 18.482 71.25 18.449 77.535 40.423 90.487" fill="#fff" stroke="#211e1f" stroke-linecap="round" stroke-linejoin="round" stroke-width=".766"/><rect x="108.576" y="62.212" width="24.271" height="10.45" fill="#fff"/><path d="M132.847,72.662h-24.271v-10.45h24.271v10.45ZM134.085,73.901h-26.747v-12.927h26.747v12.927" fill="#211e1f" fill-rule="evenodd"/><path d="M107.099,47.568c0,2.078-1.684,3.758-3.762,3.758s-3.759-1.68-3.759-3.758,1.683-3.76,3.759-3.76,3.762,1.684,3.762,3.76Z" fill="#211e1f" fill-rule="evenodd"/><path d="M97.026,52.313c.86-1.505,2.982-2.277,4.216-1.36l3.211,2.186,2.885,7.008,5.612,5.282c.733.734.733,1.923,0,2.655-.732.736-1.922.736-2.659,0l-7.078-5.872-.826-2.887-2.472,5.363,6.188,7.833c.887,1.123.647,2.736.41,3.305l-4.266,10.737c-.474,1.14-1.789,1.683-2.931,1.206-1.142-.477-1.685-1.785-1.207-2.93l3.378-8.776c.24-.642-.119-1.593-.57-2.095l-7.603-8.866c-1.129-1.13-1.256-2.924-.451-4.535l4.163-8.254" fill="#211e1f" fill-rule="evenodd"/><path d="M134.328,47.568c0,2.078,1.683,3.758,3.759,3.758s3.76-1.68,3.76-3.758-1.685-3.76-3.76-3.76-3.759,1.684-3.759,3.76Z" fill="#211e1f" fill-rule="evenodd"/><path d="M144.4,52.313c-.861-1.505-2.982-2.277-4.218-1.36l-3.211,2.186-2.886,7.008-5.613,5.282c-.732.734-.732,1.923,0,2.655.734.736,1.926.736,2.659,0l7.08-5.872.825-2.887,2.474,5.363-6.186,7.833c-.888,1.123-.648,2.736-.414,3.305l4.268,10.737c.475,1.14,1.789,1.683,2.933,1.206,1.142-.477,1.682-1.785,1.207-2.93l-3.375-8.776c-.244-.642.116-1.593.562-2.095l7.607-8.866c1.13-1.13,1.258-2.924.454-4.535l-4.163-8.254" fill="#211e1f" fill-rule="evenodd"/></svg>