<?xml version="1.0" encoding="UTF-8"?><svg id="a" xmlns="http://www.w3.org/2000/svg" width="4.1in" height="2.4in" viewBox="0 0 295.2 172.8"><rect x="269.301" y="131.611" width="16.759" height="16.76" rx="1.577" ry="1.577" fill="#27a6dd"/><path d="M278.921,137.627c0,.325-.222.589-.496.589h-1.489c-.274,0-.496-.264-.496-.589v-.76c0-.785.499-1.47,1.158-1.52.722-.056,1.323.624,1.323,1.47v.81Z" fill="#fff"/><polyline points="275.98 142.111 272.352 142.111 272.352 143.619 275.98 143.619 275.98 142.111" fill="#fff" fill-rule="evenodd" stroke="#fff" stroke-linecap="round" stroke-linejoin="round" stroke-width=".375"/><polyline points="283.009 142.111 279.381 142.111 279.381 143.619 283.009 143.619 283.009 142.111" fill="#fff" fill-rule="evenodd" stroke="#fff" stroke-linecap="round" stroke-linejoin="round" stroke-width=".375"/><rect x="269.301" y="149.951" width="16.759" height="16.76" rx="1.577" ry="1.577" fill="#27a6dd"/><path d="M278.921,155.967c0,.325-.222.589-.496.589h-1.489c-.274,0-.496-.264-.496-.589v-.76c0-.785.499-1.47,1.158-1.52.722-.056,1.323.624,1.323,1.47v.81Z" fill="#fff"/><polyline points="275.98 160.451 272.352 160.451 272.352 161.959 275.98 161.959 275.98 160.451" fill="#fff" fill-rule="evenodd" stroke="#fff" stroke-linecap="round" stroke-linejoin="round" stroke-width=".375"/><polyline points="283.009 160.451 279.381 160.451 279.381 161.959 283.009 161.959 283.009 160.451" fill="#fff" fill-rule="evenodd" stroke="#fff" stroke-linecap="round" stroke-linejoin="round" stroke-width=".375"/><rect x="264.215" y="127.699" width="26.932" height="42.924" fill="none" stroke="#d9d9d9" stroke-linecap="round" stroke-linejoin="round" stroke-width="2.293"/><rect x="8.233" y="131.611" width="16.759" height="16.76" rx="1.577" ry="1.577" fill="#005ab2"/><path d="M17.853,137.627c0,.325-.222.589-.496.589h-1.489c-.274,0-.496-.264-.496-.589v-.76c0-.785.499-1.47,1.158-1.52.722-.056,1.323.624,1.323,1.47v.81Z" fill="#fff"/><polyline points="14.912 142.111 11.284 142.111 11.284 143.619 14.912 143.619 14.912 142.111" fill="#fff" fill-rule="evenodd" stroke="#fff" stroke-linecap="round" stroke-linejoin="round" stroke-width=".375"/><polyline points="21.94 142.111 18.312 142.111 18.312 143.619 21.94 143.619 21.94 142.111" fill="#fff" fill-rule="evenodd" stroke="#fff" stroke-linecap="round" stroke-linejoin="round" stroke-width=".375"/><rect x="8.233" y="149.951" width="16.759" height="16.76" rx="1.577" ry="1.577" fill="#005ab2"/><path d="M17.853,155.967c0,.325-.222.589-.496.589h-1.489c-.274,0-.496-.264-.496-.589v-.76c0-.785.499-1.47,1.158-1.52.722-.056,1.323.624,1.323,1.47v.81Z" fill="#fff"/><polyline points="14.912 160.451 11.284 160.451 11.284 161.959 14.912 161.959 14.912 160.451" fill="#fff" fill-rule="evenodd" stroke="#fff" stroke-linecap="round" stroke-linejoin="round" stroke-width=".375"/><polyline points="21.94 160.451 18.312 160.451 18.312 161.959 21.94 161.959 21.94 160.451" fill="#fff" fill-rule="evenodd" stroke="#fff" stroke-linecap="round" stroke-linejoin="round" stroke-width=".375"/><rect x="3.146" y="127.699" width="26.932" height="42.924" fill="none" stroke="#d9d9d9" stroke-linecap="round" stroke-linejoin="round" stroke-width="2.293"/><rect x="3.146" y="63.122" width="288" height="56.213" fill="#d9d9d9"/><path d="M17.049,68.52c.507,0,.969.045,1.386.134.417.089.775.236,1.073.439.298.204.529.475.693.812s.246.755.246,1.251c0,.537-.122.983-.365,1.341-.244.357-.604.651-1.081.879.656.188,1.145.519,1.468.991.323.472.484,1.041.484,1.707,0,.536-.104,1.001-.313,1.393-.208.393-.489.713-.842.961-.353.248-.755.432-1.207.551s-.917.179-1.394.179h-5.156v-10.64h5.007ZM16.751,72.827c.417,0,.76-.099,1.028-.298.268-.199.402-.521.402-.969,0-.248-.045-.452-.134-.611-.089-.159-.208-.283-.357-.373-.149-.089-.321-.151-.514-.187-.194-.035-.395-.052-.604-.052h-2.191v2.488h2.37ZM16.885,77.342c.228,0,.447-.022.655-.067.209-.044.393-.119.552-.223.159-.104.285-.246.38-.425.094-.179.142-.407.142-.686,0-.546-.154-.937-.462-1.17-.308-.233-.715-.35-1.222-.35h-2.548v2.921h2.504Z" fill="#221f1f"/><rect x="3.146" y="2" width="288" height="55.307" fill="#d9d9d9"/><path d="M16.115,9.224l3.979,10.64h-2.429l-.805-2.37h-3.979l-.834,2.37h-2.354l4.023-10.64h2.399ZM16.249,15.751l-1.341-3.904h-.03l-1.386,3.904h2.757Z" fill="#221f1f"/><polyline points="198.306 78.239 211.657 78.239 211.657 158.2 269.05 158.2" fill="none" stroke="#fff" stroke-miterlimit="10" stroke-width="3.439"/><polyline points="198.306 78.239 211.657 78.239 211.657 158.2 269.05 158.2" fill="none" stroke="#28a8de" stroke-miterlimit="10" stroke-width="1.146"/><polyline points="268.064 139.837 221.608 139.837 221.608 16.946 198.091 16.946" fill="none" stroke="#fff" stroke-miterlimit="10" stroke-width="3.439"/><polyline points="268.064 139.837 221.608 139.837 221.608 16.946 198.091 16.946" fill="none" stroke="#28a8de" stroke-miterlimit="10" stroke-width="1.146"/><polyline points="96.165 78.239 82.814 78.239 82.814 158.2 25.036 158.2" fill="none" stroke="#fff" stroke-miterlimit="10" stroke-width="3.439"/><polyline points="96.165 78.239 82.814 78.239 82.814 158.2 25.036 158.2" fill="none" stroke="#005ab2" stroke-miterlimit="10" stroke-width="1.146"/><polyline points="25.036 139.837 72.863 139.837 72.863 16.946 96.38 16.946" fill="none" stroke="#fff" stroke-miterlimit="10" stroke-width="3.439"/><polyline points="25.036 139.837 72.863 139.837 72.863 16.946 96.38 16.946" fill="none" stroke="#005ab2" stroke-miterlimit="10" stroke-width="1.146"/><rect x="150.029" y="3.73" width="48.055" height="27.685" fill="#27a6dd"/><rect x="96.805" y="65.13" width="48.055" height="27.685" fill="#005ab2"/><rect x="149.855" y="65.13" width="48.055" height="27.685" fill="#27a6dd"/><rect x="96.805" y="3.73" width="48.055" height="27.685" fill="#005ab2"/><path d="M126.324,7.776v19.084c0,.62.487,1.107,1.107,1.107h13.859c.576,0,1.107-.487,1.107-1.107V7.776c0-.62-.531-1.107-1.107-1.107h-13.859c-.62,0-1.107.487-1.107,1.107" fill="#fff" fill-rule="evenodd"/><path d="M128.239,13.217v8.203c0,.463.21.883.547,1.22l3.281,3.155c.294.294.715.463,1.178.463h5.511c.925,0,1.683-.757,1.683-1.683v-14.512c0-.925-.757-1.683-1.683-1.683h-5.511c-.463,0-.883.168-1.178.463l-3.281,3.155c-.337.337-.547.757-.547,1.22Z" fill="#005ab2" fill-rule="evenodd"/><polyline points="134.465 22.64 137.83 22.64 137.83 21.63 134.465 21.63 134.465 22.64" fill="#fff" fill-rule="evenodd"/><rect x="130.889" y="16.835" width="3.365" height="1.01" fill="#fff"/><rect x="134.465" y="11.997" width="3.365" height="1.01" fill="#fff"/><path d="M179.548,7.776v19.084c0,.62.487,1.107,1.107,1.107h13.859c.576,0,1.107-.487,1.107-1.107V7.776c0-.62-.531-1.107-1.107-1.107h-13.859c-.62,0-1.107.487-1.107,1.107" fill="#fff" fill-rule="evenodd"/><path d="M181.463,13.217v8.203c0,.463.21.883.547,1.22l3.281,3.155c.294.294.715.463,1.178.463h5.511c.925,0,1.683-.757,1.683-1.683v-14.512c0-.925-.757-1.683-1.683-1.683h-5.511c-.463,0-.883.168-1.178.463l-3.281,3.155c-.337.337-.547.757-.547,1.22Z" fill="#27a6dd" fill-rule="evenodd"/><polyline points="187.689 22.64 191.054 22.64 191.054 21.63 187.689 21.63 187.689 22.64" fill="#fff" fill-rule="evenodd"/><rect x="184.113" y="16.835" width="3.365" height="1.01" fill="#fff"/><rect x="187.689" y="11.997" width="3.365" height="1.01" fill="#fff"/><path d="M126.324,69.176v19.084c0,.62.487,1.107,1.107,1.107h13.859c.576,0,1.107-.487,1.107-1.107v-19.084c0-.62-.531-1.107-1.107-1.107h-13.859c-.62,0-1.107.487-1.107,1.107" fill="#fff" fill-rule="evenodd"/><path d="M128.239,74.617v8.203c0,.463.21.883.547,1.22l3.281,3.155c.294.294.715.463,1.178.463h5.511c.925,0,1.683-.757,1.683-1.683v-14.512c0-.925-.757-1.683-1.683-1.683h-5.511c-.463,0-.883.168-1.178.463l-3.281,3.155c-.337.337-.547.757-.547,1.22Z" fill="#005ab2" fill-rule="evenodd"/><polyline points="134.465 84.039 137.83 84.039 137.83 83.03 134.465 83.03 134.465 84.039" fill="#fff" fill-rule="evenodd"/><rect x="130.889" y="78.234" width="3.365" height="1.01" fill="#fff"/><rect x="134.465" y="73.397" width="3.365" height="1.01" fill="#fff"/><path d="M179.548,69.176v19.084c0,.62.487,1.107,1.107,1.107h13.859c.576,0,1.107-.487,1.107-1.107v-19.084c0-.62-.531-1.107-1.107-1.107h-13.859c-.62,0-1.107.487-1.107,1.107" fill="#fff" fill-rule="evenodd"/><path d="M181.463,74.617v8.203c0,.463.21.883.547,1.22l3.281,3.155c.294.294.715.463,1.178.463h5.511c.925,0,1.683-.757,1.683-1.683v-14.512c0-.925-.757-1.683-1.683-1.683h-5.511c-.463,0-.883.168-1.178.463l-3.281,3.155c-.337.337-.547.757-.547,1.22Z" fill="#27a6dd" fill-rule="evenodd"/><polyline points="187.689 84.039 191.054 84.039 191.054 83.03 187.689 83.03 187.689 84.039" fill="#fff" fill-rule="evenodd"/><rect x="184.113" y="78.234" width="3.365" height="1.01" fill="#fff"/><rect x="187.689" y="73.397" width="3.365" height="1.01" fill="#fff"/><path d="M156.976,10.187c-.039.078-.078.117-.117.157-.078.039-.157.078-.235.039l-1.057-.235c-.196-.039-.352-.235-.274-.47,0-.039.039-.117.078-.157.196-.196.392-.431.587-.627.157-.157.392-.157.548,0,.039.039.078.078.078.118l.431.94c.039.078.039.196-.039.235Z" fill="#8bc3e9" fill-rule="evenodd"/><path d="M158.235,19.872l-5.075,2.358c-.28.16-.599.04-.719-.24-.04-.08-.08-.16-.08-.24v-2.318c0-.36.28-.679.679-.719l4.755-.4c.12-.04.24.08.28.2.04.36.16.719.28,1.079.04.12,0,.24-.12.28Z" fill="#8bc3e9" fill-rule="evenodd"/><path d="M159.373,22.003l-3.836,3.836c-.2.24-.559.24-.799,0-.559-.639-1.079-1.359-1.479-2.078-.16-.28-.04-.639.24-.759v-.04l4.955-2.278c.08-.08.24,0,.28.08.2.32.4.639.639.919.08.12.08.24,0,.32Z" fill="#8bc3e9" fill-rule="evenodd"/><path d="M161.245,23.473l-2.278,4.875c-.04.12-.2.2-.36.2h-.44c-.08,0-.2,0-.28-.04-.639-.4-1.239-.839-1.798-1.319-.24-.2-.24-.559-.04-.799l3.836-3.836c.12-.12.24-.12.32-.04.32.24.599.48.919.639.12.08.16.2.12.32Z" fill="#8bc3e9" fill-rule="evenodd"/><path d="M168.936,12.638c-.082.082-.245.122-.326.041-.285-.245-.612-.489-.938-.693-.122-.041-.163-.163-.082-.285l2.324-5.015c.122-.285.489-.408.775-.285.489.285.897.571,1.346.856.204.163.285.449.163.693l-1.182,2.569c-.041.082-.082.122-.122.163l-1.957,1.957Z" fill="#8bc3e9" fill-rule="evenodd"/><path d="M169.496,22.003c-.08-.08-.08-.2,0-.32.24-.28.48-.599.639-.919.08-.08.2-.16.32-.08l4.915,2.278c.28.12.4.479.28.759,0,0-.04,0-.04.04-.4.719-.879,1.439-1.439,2.078-.2.2-.559.24-.799.04l-.04-.04-3.836-3.836Z" fill="#8bc3e9" fill-rule="evenodd"/><path d="M167.677,23.46c-.08-.12-.04-.24.08-.32.32-.16.639-.4.919-.639.08-.08.24-.08.32.04l3.836,3.836c.24.2.24.559,0,.759q0,.04-.04.04c-.559.479-1.159.919-1.798,1.319-.08.04-.16.04-.28.04h-.44c-.16,0-.28-.08-.36-.2l-2.238-4.875Z" fill="#8bc3e9" fill-rule="evenodd"/><path d="M164.82,24.299c0-.12.12-.24.24-.24.559-.04,1.079-.16,1.638-.36.08-.04.24,0,.28.12l1.998,4.276c.12.28-4.156.519-4.156.2v-3.996Z" fill="#8bc3e9" fill-rule="evenodd"/><path d="M171.896,10.184c-.039-.039-.078-.157-.039-.235l.431-.94c.117-.196.352-.274.548-.196l.078.078c.235.196.431.431.627.627.117.157.117.392-.039.548-.078.039-.117.078-.196.078l-1.057.235c-.078.039-.157,0-.196-.039-.078-.039-.117-.078-.157-.157Z" fill="#8bc3e9" fill-rule="evenodd"/><path d="M165.047,11.039c-.118,0-.235-.122-.235-.245v-4.281c0-.367.314-.734.706-.734h2.787c.353,0,.706.367.706.734,0,.122-.039.245-.078.326l-2.002,4.444c-.039.122-.196.163-.275.122-.549-.204-1.06-.326-1.609-.367Z" fill="#8bc3e9"/><path d="M170.706,19.872c-.12-.04-.16-.16-.12-.28.12-.36.2-.719.28-1.079,0-.12.12-.24.24-.2l4.795.4c.36.04.639.36.639.719v2.318c0,.28-.24.559-.559.559-.08,0-.16-.04-.24-.08l-5.035-2.358Z" fill="#8bc3e9"/><path d="M171.174,17.694c-.12-.039-.24-.118-.24-.237,0-1.501-.519-2.922-1.479-4.028-.08-.118-.08-.237,0-.316l1.838-1.816c.12-.118.24-.197.36-.197l3.996-.908c.4-.079.799.158.879.553v6.634c0,.395-.32.711-.719.711h-.04l-4.595-.395Z" fill="#8bc3e9"/><path d="M163.834,11.039c-.539.041-1.078.163-1.578.367-.115.041-.231,0-.308-.122l-1.925-4.444c-.192-.367-.038-.816.308-.979.115-.041.192-.082.308-.082h2.695c.385,0,.693.367.693.734v4.281c0,.122-.077.245-.192.245Z" fill="#8bc3e9"/><path d="M164.081,24.299v3.996c0,.32-4.196.32-4.196,0,0-.08.04-.16.08-.2l1.958-4.276c.08-.12.2-.16.32-.12.519.2,1.079.32,1.638.36.12,0,.2.12.2.24Z" fill="#8bc3e9"/><path d="M159.965,12.638l-1.957-1.957c-.041-.041-.082-.082-.082-.163l-1.223-2.569c-.122-.245-.041-.53.204-.693.408-.285.856-.571,1.305-.856.285-.122.612-.041.775.245l.041.041,2.324,5.015c.041.122,0,.245-.122.285-.326.204-.612.449-.938.693-.082.082-.204.041-.326-.041Z" fill="#8bc3e9"/><path d="M157.767,17.647l-4.595.392c-.4.039-.759-.275-.799-.667v-6.474c0-.392.32-.706.719-.706h.16l3.996.903c.12,0,.28.078.36.196l1.838,1.805c.08.078.08.196,0,.314-.959,1.099-1.479,2.511-1.479,4.002,0,.118-.08.196-.2.235Z" fill="#8bc3e9"/><path d="M156.051,27.847c0-1.019-.815-1.876-1.876-1.876-1.019,0-1.876.856-1.876,1.876,0,1.06.856,1.876,1.876,1.876,1.06,0,1.876-.816,1.876-1.876Z" fill="#8bc3e9" fill-rule="evenodd"/><path d="M176.601,27.847c0-1.019-.815-1.876-1.876-1.876-1.019,0-1.876.856-1.876,1.876,0,1.06.856,1.876,1.876,1.876,1.06,0,1.876-.816,1.876-1.876Z" fill="#8bc3e9" fill-rule="evenodd"/><path d="M176.601,7.296c0-1.019-.815-1.876-1.876-1.876-1.019,0-1.876.856-1.876,1.876,0,1.06.856,1.876,1.876,1.876,1.06,0,1.876-.816,1.876-1.876Z" fill="#8bc3e9"/><path d="M156.051,7.296c0-1.019-.815-1.876-1.876-1.876-1.019,0-1.876.856-1.876,1.876,0,1.06.856,1.876,1.876,1.876,1.06,0,1.876-.816,1.876-1.876Z" fill="#8bc3e9"/><path d="M153.441,6.848l.122.163c.163.163.163.449,0,.612l-.122.163c-.082.041-.082.122,0,.204l.082.082c.041.041.163.041.204,0l.122-.122c.204-.204.489-.204.652,0l.122.122c.082.041.163.041.245,0l.082-.082c.041-.082.041-.163,0-.204l-.163-.163c-.163-.163-.163-.449,0-.612l.163-.163c.041-.041.041-.122,0-.204l-.122-.082c-.041-.041-.122-.041-.204,0l-.122.122c-.163.204-.449.204-.652,0l-.122-.122c-.041-.041-.163-.041-.204,0l-.082.082c-.082.082-.082.163,0,.204Z" fill="#27a6dd" fill-rule="evenodd"/><path d="M173.992,6.848l.122.163c.163.163.163.449,0,.612l-.122.163c-.082.041-.082.122,0,.204l.082.082c.041.041.163.041.204,0l.122-.122c.204-.204.489-.204.652,0l.122.122c.082.041.163.041.245,0l.082-.082c.041-.082.041-.163,0-.204l-.163-.163c-.163-.163-.163-.449,0-.612l.163-.163c.041-.041.041-.122,0-.204l-.122-.082c-.041-.041-.122-.041-.204,0l-.122.122c-.163.204-.449.204-.652,0l-.122-.122c-.041-.041-.163-.041-.204,0l-.082.082c-.082.082-.082.163,0,.204Z" fill="#28a7de" fill-rule="evenodd"/><path d="M174.687,15.207h.815v3.303q0,.041.041.082l.367.816c.041.122.082.285.082.449v2.12h-.815v-2.243l-.367-.775c-.082-.163-.122-.285-.122-.449v-3.303Z" fill="#27a6dd" fill-rule="evenodd"/><path d="M154.173,15.207h-.815v3.384l-.367.816c-.082.122-.122.285-.122.449v2.12h.815v-2.12c0-.041,0-.082.041-.122l.367-.775c.041-.163.082-.285.082-.449v-3.303Z" fill="#27a6dd" fill-rule="evenodd"/><path d="M174.889,22.383v3.262c0,.245-.163.408-.408.408h-20.061c-.204,0-.408-.163-.408-.408v-3.262c0-.204-.163-.408-.408-.408h-1.631c-.204,0-.408.204-.408.408v3.262c0,1.59,1.305,2.854,2.854,2.854h20.061c1.59,0,2.854-1.264,2.854-2.854v-3.262c0-.204-.163-.408-.408-.408h-1.631c-.204,0-.408.204-.408.408Z" fill="#8bc3e9" fill-rule="evenodd" stroke="#27a6dd" stroke-miterlimit="10" stroke-width=".357"/><path d="M156.976,71.494c-.039.078-.078.117-.117.157-.078.039-.157.078-.235.039l-1.057-.235c-.196-.039-.352-.235-.274-.47,0-.039.039-.117.078-.157.196-.196.392-.431.587-.627.157-.157.392-.157.548,0,.039.039.078.078.078.118l.431.94c.039.078.039.196-.039.235Z" fill="#8bc3e9" fill-rule="evenodd"/><path d="M158.235,81.179l-5.075,2.358c-.28.16-.599.04-.719-.24-.04-.08-.08-.16-.08-.24v-2.318c0-.36.28-.679.679-.719l4.755-.4c.12-.04.24.08.28.2.04.36.16.719.28,1.079.04.12,0,.24-.12.28Z" fill="#8bc3e9" fill-rule="evenodd"/><path d="M159.373,83.31l-3.836,3.836c-.2.24-.559.24-.799,0-.559-.639-1.079-1.359-1.479-2.078-.16-.28-.04-.639.24-.759v-.04l4.955-2.278c.08-.08.24,0,.28.08.2.32.4.639.639.919.08.12.08.24,0,.32Z" fill="#8bc3e9" fill-rule="evenodd"/><path d="M161.245,84.78l-2.278,4.875c-.04.12-.2.2-.36.2h-.44c-.08,0-.2,0-.28-.04-.639-.4-1.239-.839-1.798-1.319-.24-.2-.24-.559-.04-.799l3.836-3.836c.12-.12.24-.12.32-.04.32.24.599.48.919.639.12.08.16.2.12.32Z" fill="#8bc3e9" fill-rule="evenodd"/><path d="M168.936,73.945c-.082.082-.245.122-.326.041-.285-.245-.612-.489-.938-.693-.122-.041-.163-.163-.082-.285l2.324-5.015c.122-.285.489-.408.775-.285.489.285.897.571,1.346.856.204.163.285.449.163.693l-1.182,2.569c-.041.082-.082.122-.122.163l-1.957,1.957Z" fill="#8bc3e9" fill-rule="evenodd"/><path d="M169.496,83.31c-.08-.08-.08-.2,0-.32.24-.28.48-.599.639-.919.08-.08.2-.16.32-.08l4.915,2.278c.28.12.4.479.28.759,0,0-.04,0-.04.04-.4.719-.879,1.439-1.439,2.078-.2.2-.559.24-.799.04l-.04-.04-3.836-3.836Z" fill="#8bc3e9" fill-rule="evenodd"/><path d="M167.677,84.767c-.08-.12-.04-.24.08-.32.32-.16.639-.4.919-.639.08-.08.24-.08.32.04l3.836,3.836c.24.2.24.559,0,.759q0,.04-.04.04c-.559.479-1.159.919-1.798,1.319-.08.04-.16.04-.28.04h-.44c-.16,0-.28-.08-.36-.2l-2.238-4.875Z" fill="#8bc3e9" fill-rule="evenodd"/><path d="M164.82,85.606c0-.12.12-.24.24-.24.559-.04,1.079-.16,1.638-.36.08-.04.24,0,.28.12l1.998,4.276c.12.28-4.156.519-4.156.2v-3.996Z" fill="#8bc3e9" fill-rule="evenodd"/><path d="M171.896,71.491c-.039-.039-.078-.157-.039-.235l.431-.94c.117-.196.352-.274.548-.196l.078.078c.235.196.431.431.627.627.117.157.117.392-.039.548-.078.039-.117.078-.196.078l-1.057.235c-.078.039-.157,0-.196-.039-.078-.039-.117-.078-.157-.157Z" fill="#8bc3e9" fill-rule="evenodd"/><path d="M165.047,72.346c-.118,0-.235-.122-.235-.245v-4.281c0-.367.314-.734.706-.734h2.787c.353,0,.706.367.706.734,0,.122-.039.245-.078.326l-2.002,4.444c-.039.122-.196.163-.275.122-.549-.204-1.06-.326-1.609-.367Z" fill="#8bc3e9"/><path d="M170.706,81.179c-.12-.04-.16-.16-.12-.28.12-.36.2-.719.28-1.079,0-.12.12-.24.24-.2l4.795.4c.36.04.639.36.639.719v2.318c0,.28-.24.559-.559.559-.08,0-.16-.04-.24-.08l-5.035-2.358Z" fill="#8bc3e9"/><path d="M171.174,79.001c-.12-.039-.24-.118-.24-.237,0-1.501-.519-2.922-1.479-4.028-.08-.118-.08-.237,0-.316l1.838-1.816c.12-.118.24-.197.36-.197l3.996-.908c.4-.079.799.158.879.553v6.634c0,.395-.32.711-.719.711h-.04l-4.595-.395Z" fill="#8bc3e9"/><path d="M163.834,72.346c-.539.041-1.078.163-1.578.367-.115.041-.231,0-.308-.122l-1.925-4.444c-.192-.367-.038-.816.308-.979.115-.041.192-.082.308-.082h2.695c.385,0,.693.367.693.734v4.281c0,.122-.077.245-.192.245Z" fill="#8bc3e9"/><path d="M164.081,85.606v3.996c0,.32-4.196.32-4.196,0,0-.08.04-.16.08-.2l1.958-4.276c.08-.12.2-.16.32-.12.519.2,1.079.32,1.638.36.12,0,.2.12.2.24Z" fill="#8bc3e9"/><path d="M159.965,73.945l-1.957-1.957c-.041-.041-.082-.082-.082-.163l-1.223-2.569c-.122-.245-.041-.53.204-.693.408-.285.856-.571,1.305-.856.285-.122.612-.041.775.245l.041.041,2.324,5.015c.041.122,0,.245-.122.285-.326.204-.612.449-.938.693-.082.082-.204.041-.326-.041Z" fill="#8bc3e9"/><path d="M157.767,78.954l-4.595.392c-.4.039-.759-.275-.799-.667v-6.474c0-.392.32-.706.719-.706h.16l3.996.903c.12,0,.28.078.36.196l1.838,1.805c.08.078.08.196,0,.314-.959,1.099-1.479,2.511-1.479,4.002,0,.118-.08.196-.2.235Z" fill="#8bc3e9"/><path d="M156.051,89.154c0-1.019-.815-1.876-1.876-1.876-1.019,0-1.876.856-1.876,1.876,0,1.06.856,1.876,1.876,1.876,1.06,0,1.876-.816,1.876-1.876Z" fill="#8bc3e9" fill-rule="evenodd"/><path d="M176.601,89.154c0-1.019-.815-1.876-1.876-1.876-1.019,0-1.876.856-1.876,1.876,0,1.06.856,1.876,1.876,1.876,1.06,0,1.876-.816,1.876-1.876Z" fill="#8bc3e9" fill-rule="evenodd"/><path d="M176.601,68.603c0-1.019-.815-1.876-1.876-1.876-1.019,0-1.876.856-1.876,1.876,0,1.06.856,1.876,1.876,1.876,1.06,0,1.876-.816,1.876-1.876Z" fill="#8bc3e9"/><path d="M156.051,68.603c0-1.019-.815-1.876-1.876-1.876-1.019,0-1.876.856-1.876,1.876,0,1.06.856,1.876,1.876,1.876,1.06,0,1.876-.816,1.876-1.876Z" fill="#8bc3e9"/><path d="M153.441,68.155l.122.163c.163.163.163.449,0,.612l-.122.163c-.082.041-.082.122,0,.204l.082.082c.041.041.163.041.204,0l.122-.122c.204-.204.489-.204.652,0l.122.122c.082.041.163.041.245,0l.082-.082c.041-.082.041-.163,0-.204l-.163-.163c-.163-.163-.163-.449,0-.612l.163-.163c.041-.041.041-.122,0-.204l-.122-.082c-.041-.041-.122-.041-.204,0l-.122.122c-.163.204-.449.204-.652,0l-.122-.122c-.041-.041-.163-.041-.204,0l-.082.082c-.082.082-.082.163,0,.204Z" fill="#27a6dd" fill-rule="evenodd"/><path d="M173.992,68.155l.122.163c.163.163.163.449,0,.612l-.122.163c-.082.041-.082.122,0,.204l.082.082c.041.041.163.041.204,0l.122-.122c.204-.204.489-.204.652,0l.122.122c.082.041.163.041.245,0l.082-.082c.041-.082.041-.163,0-.204l-.163-.163c-.163-.163-.163-.449,0-.612l.163-.163c.041-.041.041-.122,0-.204l-.122-.082c-.041-.041-.122-.041-.204,0l-.122.122c-.163.204-.449.204-.652,0l-.122-.122c-.041-.041-.163-.041-.204,0l-.082.082c-.082.082-.082.163,0,.204Z" fill="#28a7de" fill-rule="evenodd"/><path d="M174.687,76.513h.815v3.303q0,.041.041.082l.367.816c.041.122.082.285.082.449v2.12h-.815v-2.243l-.367-.775c-.082-.163-.122-.285-.122-.449v-3.303Z" fill="#27a6dd" fill-rule="evenodd"/><path d="M154.173,76.513h-.815v3.384l-.367.816c-.082.122-.122.285-.122.449v2.12h.815v-2.12c0-.041,0-.082.041-.122l.367-.775c.041-.163.082-.285.082-.449v-3.303Z" fill="#27a6dd" fill-rule="evenodd"/><path d="M174.889,83.69v3.262c0,.245-.163.408-.408.408h-20.061c-.204,0-.408-.163-.408-.408v-3.262c0-.204-.163-.408-.408-.408h-1.631c-.204,0-.408.204-.408.408v3.262c0,1.59,1.305,2.854,2.854,2.854h20.061c1.59,0,2.854-1.264,2.854-2.854v-3.262c0-.204-.163-.408-.408-.408h-1.631c-.204,0-.408.204-.408.408Z" fill="#8bc3e9" fill-rule="evenodd" stroke="#27a6dd" stroke-miterlimit="10" stroke-width=".357"/><path d="M103.985,10.187c-.039.078-.078.117-.117.157-.078.039-.157.078-.235.039l-1.057-.235c-.196-.039-.352-.235-.274-.47,0-.039.039-.117.078-.157.196-.196.392-.431.587-.627.157-.157.392-.157.548,0,.039.039.078.078.078.118l.431.94c.039.078.039.196-.039.235Z" fill="#6d97d0" fill-rule="evenodd"/><path d="M105.243,19.872l-5.075,2.358c-.28.16-.599.04-.719-.24-.04-.08-.08-.16-.08-.24v-2.318c0-.36.28-.679.679-.719l4.755-.4c.12-.04.24.08.28.2.04.36.16.719.28,1.079.04.12,0,.24-.12.28Z" fill="#6d97d0" fill-rule="evenodd"/><path d="M106.382,22.003l-3.836,3.836c-.2.24-.559.24-.799,0-.559-.639-1.079-1.359-1.479-2.078-.16-.28-.04-.639.24-.759v-.04l4.955-2.278c.08-.08.24,0,.28.08.2.32.4.639.639.919.08.12.08.24,0,.32Z" fill="#6d97d0" fill-rule="evenodd"/><path d="M108.253,23.473l-2.278,4.875c-.04.12-.2.2-.36.2h-.44c-.08,0-.2,0-.28-.04-.639-.4-1.239-.839-1.798-1.319-.24-.2-.24-.559-.04-.799l3.836-3.836c.12-.12.24-.12.32-.04.32.24.599.48.919.639.12.08.16.2.12.32Z" fill="#6d97d0" fill-rule="evenodd"/><path d="M115.944,12.638c-.082.082-.245.122-.326.041-.285-.245-.612-.489-.938-.693-.122-.041-.163-.163-.082-.285l2.324-5.015c.122-.285.489-.408.775-.285.489.285.897.571,1.346.856.204.163.285.449.163.693l-1.182,2.569c-.041.082-.082.122-.122.163l-1.957,1.957Z" fill="#6d97d0" fill-rule="evenodd"/><path d="M116.505,22.003c-.08-.08-.08-.2,0-.32.24-.28.48-.599.639-.919.08-.08.2-.16.32-.08l4.915,2.278c.28.12.4.479.28.759,0,0-.04,0-.04.04-.4.719-.879,1.439-1.439,2.078-.2.2-.559.24-.799.04l-.04-.04-3.836-3.836Z" fill="#6d97d0" fill-rule="evenodd"/><path d="M114.685,23.46c-.08-.12-.04-.24.08-.32.32-.16.639-.4.919-.639.08-.08.24-.08.32.04l3.836,3.836c.24.2.24.559,0,.759q0,.04-.04.04c-.559.479-1.159.919-1.798,1.319-.08.04-.16.04-.28.04h-.44c-.16,0-.28-.08-.36-.2l-2.238-4.875Z" fill="#6d97d0" fill-rule="evenodd"/><path d="M111.828,24.299c0-.12.12-.24.24-.24.559-.04,1.079-.16,1.638-.36.08-.04.24,0,.28.12l1.998,4.276c.12.28-4.156.519-4.156.2v-3.996Z" fill="#6d97d0" fill-rule="evenodd"/><path d="M118.905,10.184c-.039-.039-.078-.157-.039-.235l.431-.94c.117-.196.352-.274.548-.196l.078.078c.235.196.431.431.627.627.117.157.117.392-.039.548-.078.039-.117.078-.196.078l-1.057.235c-.078.039-.157,0-.196-.039-.078-.039-.117-.078-.157-.157Z" fill="#6d97d0" fill-rule="evenodd"/><path d="M112.055,11.039c-.118,0-.235-.122-.235-.245v-4.281c0-.367.314-.734.706-.734h2.787c.353,0,.706.367.706.734,0,.122-.039.245-.078.326l-2.002,4.444c-.039.122-.196.163-.275.122-.549-.204-1.06-.326-1.609-.367Z" fill="#6d97d0"/><path d="M117.715,19.872c-.12-.04-.16-.16-.12-.28.12-.36.2-.719.28-1.079,0-.12.12-.24.24-.2l4.795.4c.36.04.639.36.639.719v2.318c0,.28-.24.559-.559.559-.08,0-.16-.04-.24-.08l-5.035-2.358Z" fill="#6d97d0"/><path d="M118.183,17.694c-.12-.039-.24-.118-.24-.237,0-1.501-.519-2.922-1.479-4.028-.08-.118-.08-.237,0-.316l1.838-1.816c.12-.118.24-.197.36-.197l3.996-.908c.4-.079.799.158.879.553v6.634c0,.395-.32.711-.719.711h-.04l-4.595-.395Z" fill="#6d97d0"/><path d="M110.842,11.039c-.539.041-1.078.163-1.578.367-.115.041-.231,0-.308-.122l-1.925-4.444c-.192-.367-.038-.816.308-.979.115-.041.192-.082.308-.082h2.695c.385,0,.693.367.693.734v4.281c0,.122-.077.245-.192.245Z" fill="#6d97d0"/><path d="M111.09,24.299v3.996c0,.32-4.196.32-4.196,0,0-.08.04-.16.08-.2l1.958-4.276c.08-.12.2-.16.32-.12.519.2,1.079.32,1.638.36.12,0,.2.12.2.24Z" fill="#6d97d0"/><path d="M106.974,12.638l-1.957-1.957c-.041-.041-.082-.082-.082-.163l-1.223-2.569c-.122-.245-.041-.53.204-.693.408-.285.856-.571,1.305-.856.285-.122.612-.041.775.245l.041.041,2.324,5.015c.041.122,0,.245-.122.285-.326.204-.612.449-.938.693-.082.082-.204.041-.326-.041Z" fill="#6d97d0"/><path d="M104.775,17.647l-4.595.392c-.4.039-.759-.275-.799-.667v-6.474c0-.392.32-.706.719-.706h.16l3.996.903c.12,0,.28.078.36.196l1.838,1.805c.08.078.08.196,0,.314-.959,1.099-1.479,2.511-1.479,4.002,0,.118-.08.196-.2.235Z" fill="#6d97d0"/><path d="M103.059,27.847c0-1.019-.815-1.876-1.876-1.876-1.019,0-1.876.856-1.876,1.876,0,1.06.856,1.876,1.876,1.876,1.06,0,1.876-.816,1.876-1.876Z" fill="#6d97d0" fill-rule="evenodd"/><path d="M123.61,27.847c0-1.019-.815-1.876-1.876-1.876-1.019,0-1.876.856-1.876,1.876,0,1.06.856,1.876,1.876,1.876,1.06,0,1.876-.816,1.876-1.876Z" fill="#6d97d0" fill-rule="evenodd"/><path d="M123.61,7.296c0-1.019-.815-1.876-1.876-1.876-1.019,0-1.876.856-1.876,1.876,0,1.06.856,1.876,1.876,1.876,1.06,0,1.876-.816,1.876-1.876Z" fill="#6d97d0"/><path d="M103.059,7.296c0-1.019-.815-1.876-1.876-1.876-1.019,0-1.876.856-1.876,1.876,0,1.06.856,1.876,1.876,1.876,1.06,0,1.876-.816,1.876-1.876Z" fill="#6d97d0"/><path d="M100.45,6.848l.122.163c.163.163.163.449,0,.612l-.122.163c-.082.041-.082.122,0,.204l.082.082c.041.041.163.041.204,0l.122-.122c.204-.204.489-.204.652,0l.122.122c.082.041.163.041.245,0l.082-.082c.041-.082.041-.163,0-.204l-.163-.163c-.163-.163-.163-.449,0-.612l.163-.163c.041-.041.041-.122,0-.204l-.122-.082c-.041-.041-.122-.041-.204,0l-.122.122c-.163.204-.449.204-.652,0l-.122-.122c-.041-.041-.163-.041-.204,0l-.082.082c-.082.082-.082.163,0,.204Z" fill="#005ab2" fill-rule="evenodd"/><path d="M121,6.848l.122.163c.163.163.163.449,0,.612l-.122.163c-.082.041-.082.122,0,.204l.082.082c.041.041.163.041.204,0l.122-.122c.204-.204.489-.204.652,0l.122.122c.082.041.163.041.245,0l.082-.082c.041-.082.041-.163,0-.204l-.163-.163c-.163-.163-.163-.449,0-.612l.163-.163c.041-.041.041-.122,0-.204l-.122-.082c-.041-.041-.122-.041-.204,0l-.122.122c-.163.204-.449.204-.652,0l-.122-.122c-.041-.041-.163-.041-.204,0l-.082.082c-.082.082-.082.163,0,.204Z" fill="#005ab2" fill-rule="evenodd"/><path d="M121.696,15.207h.815v3.303q0,.041.041.082l.367.816c.041.122.082.285.082.449v2.12h-.815v-2.243l-.367-.775c-.082-.163-.122-.285-.122-.449v-3.303Z" fill="#005ab2" fill-rule="evenodd"/><path d="M101.182,15.207h-.815v3.384l-.367.816c-.082.122-.122.285-.122.449v2.12h.815v-2.12c0-.041,0-.082.041-.122l.367-.775c.041-.163.082-.285.082-.449v-3.303Z" fill="#005ab2" fill-rule="evenodd"/><path d="M121.897,22.383v3.262c0,.245-.163.408-.408.408h-20.061c-.204,0-.408-.163-.408-.408v-3.262c0-.204-.163-.408-.408-.408h-1.631c-.204,0-.408.204-.408.408v3.262c0,1.59,1.305,2.854,2.854,2.854h20.061c1.59,0,2.854-1.264,2.854-2.854v-3.262c0-.204-.163-.408-.408-.408h-1.631c-.204,0-.408.204-.408.408Z" fill="#6d97d0" fill-rule="evenodd" stroke="#005ab2" stroke-miterlimit="10" stroke-width=".357"/><path d="M103.985,71.494c-.039.078-.078.117-.117.157-.078.039-.157.078-.235.039l-1.057-.235c-.196-.039-.352-.235-.274-.47,0-.039.039-.117.078-.157.196-.196.392-.431.587-.627.157-.157.392-.157.548,0,.039.039.078.078.078.118l.431.94c.039.078.039.196-.039.235Z" fill="#6d97d0" fill-rule="evenodd"/><path d="M105.243,81.179l-5.075,2.358c-.28.16-.599.04-.719-.24-.04-.08-.08-.16-.08-.24v-2.318c0-.36.28-.679.679-.719l4.755-.4c.12-.04.24.08.28.2.04.36.16.719.28,1.079.04.12,0,.24-.12.28Z" fill="#6d97d0" fill-rule="evenodd"/><path d="M106.382,83.31l-3.836,3.836c-.2.24-.559.24-.799,0-.559-.639-1.079-1.359-1.479-2.078-.16-.28-.04-.639.24-.759v-.04l4.955-2.278c.08-.08.24,0,.28.08.2.32.4.639.639.919.08.12.08.24,0,.32Z" fill="#6d97d0" fill-rule="evenodd"/><path d="M108.253,84.78l-2.278,4.875c-.04.12-.2.2-.36.2h-.44c-.08,0-.2,0-.28-.04-.639-.4-1.239-.839-1.798-1.319-.24-.2-.24-.559-.04-.799l3.836-3.836c.12-.12.24-.12.32-.04.32.24.599.48.919.639.12.08.16.2.12.32Z" fill="#6d97d0" fill-rule="evenodd"/><path d="M115.944,73.945c-.082.082-.245.122-.326.041-.285-.245-.612-.489-.938-.693-.122-.041-.163-.163-.082-.285l2.324-5.015c.122-.285.489-.408.775-.285.489.285.897.571,1.346.856.204.163.285.449.163.693l-1.182,2.569c-.041.082-.082.122-.122.163l-1.957,1.957Z" fill="#6d97d0" fill-rule="evenodd"/><path d="M116.505,83.31c-.08-.08-.08-.2,0-.32.24-.28.48-.599.639-.919.08-.08.2-.16.32-.08l4.915,2.278c.28.12.4.479.28.759,0,0-.04,0-.04.04-.4.719-.879,1.439-1.439,2.078-.2.2-.559.24-.799.04l-.04-.04-3.836-3.836Z" fill="#6d97d0" fill-rule="evenodd"/><path d="M114.685,84.767c-.08-.12-.04-.24.08-.32.32-.16.639-.4.919-.639.08-.08.24-.08.32.04l3.836,3.836c.24.2.24.559,0,.759q0,.04-.04.04c-.559.479-1.159.919-1.798,1.319-.08.04-.16.04-.28.04h-.44c-.16,0-.28-.08-.36-.2l-2.238-4.875Z" fill="#6d97d0" fill-rule="evenodd"/><path d="M111.828,85.606c0-.12.12-.24.24-.24.559-.04,1.079-.16,1.638-.36.08-.04.24,0,.28.12l1.998,4.276c.12.28-4.156.519-4.156.2v-3.996Z" fill="#6d97d0" fill-rule="evenodd"/><path d="M118.905,71.491c-.039-.039-.078-.157-.039-.235l.431-.94c.117-.196.352-.274.548-.196l.078.078c.235.196.431.431.627.627.117.157.117.392-.039.548-.078.039-.117.078-.196.078l-1.057.235c-.078.039-.157,0-.196-.039-.078-.039-.117-.078-.157-.157Z" fill="#6d97d0" fill-rule="evenodd"/><path d="M112.055,72.346c-.118,0-.235-.122-.235-.245v-4.281c0-.367.314-.734.706-.734h2.787c.353,0,.706.367.706.734,0,.122-.039.245-.078.326l-2.002,4.444c-.039.122-.196.163-.275.122-.549-.204-1.06-.326-1.609-.367Z" fill="#6d97d0"/><path d="M117.715,81.179c-.12-.04-.16-.16-.12-.28.12-.36.2-.719.28-1.079,0-.12.12-.24.24-.2l4.795.4c.36.04.639.36.639.719v2.318c0,.28-.24.559-.559.559-.08,0-.16-.04-.24-.08l-5.035-2.358Z" fill="#6d97d0"/><path d="M118.183,79.001c-.12-.039-.24-.118-.24-.237,0-1.501-.519-2.922-1.479-4.028-.08-.118-.08-.237,0-.316l1.838-1.816c.12-.118.24-.197.36-.197l3.996-.908c.4-.079.799.158.879.553v6.634c0,.395-.32.711-.719.711h-.04l-4.595-.395Z" fill="#6d97d0"/><path d="M110.842,72.346c-.539.041-1.078.163-1.578.367-.115.041-.231,0-.308-.122l-1.925-4.444c-.192-.367-.038-.816.308-.979.115-.041.192-.082.308-.082h2.695c.385,0,.693.367.693.734v4.281c0,.122-.077.245-.192.245Z" fill="#6d97d0"/><path d="M111.09,85.606v3.996c0,.32-4.196.32-4.196,0,0-.08.04-.16.08-.2l1.958-4.276c.08-.12.2-.16.32-.12.519.2,1.079.32,1.638.36.12,0,.2.12.2.24Z" fill="#6d97d0"/><path d="M106.974,73.945l-1.957-1.957c-.041-.041-.082-.082-.082-.163l-1.223-2.569c-.122-.245-.041-.53.204-.693.408-.285.856-.571,1.305-.856.285-.122.612-.041.775.245l.041.041,2.324,5.015c.041.122,0,.245-.122.285-.326.204-.612.449-.938.693-.082.082-.204.041-.326-.041Z" fill="#6d97d0"/><path d="M104.775,78.954l-4.595.392c-.4.039-.759-.275-.799-.667v-6.474c0-.392.32-.706.719-.706h.16l3.996.903c.12,0,.28.078.36.196l1.838,1.805c.08.078.08.196,0,.314-.959,1.099-1.479,2.511-1.479,4.002,0,.118-.08.196-.2.235Z" fill="#6d97d0"/><path d="M103.059,89.154c0-1.019-.815-1.876-1.876-1.876-1.019,0-1.876.856-1.876,1.876,0,1.06.856,1.876,1.876,1.876,1.06,0,1.876-.816,1.876-1.876Z" fill="#6d97d0" fill-rule="evenodd"/><path d="M123.61,89.154c0-1.019-.815-1.876-1.876-1.876-1.019,0-1.876.856-1.876,1.876,0,1.06.856,1.876,1.876,1.876,1.06,0,1.876-.816,1.876-1.876Z" fill="#6d97d0" fill-rule="evenodd"/><path d="M123.61,68.603c0-1.019-.815-1.876-1.876-1.876-1.019,0-1.876.856-1.876,1.876,0,1.06.856,1.876,1.876,1.876,1.06,0,1.876-.816,1.876-1.876Z" fill="#6d97d0"/><path d="M103.059,68.603c0-1.019-.815-1.876-1.876-1.876-1.019,0-1.876.856-1.876,1.876,0,1.06.856,1.876,1.876,1.876,1.06,0,1.876-.816,1.876-1.876Z" fill="#6d97d0"/><path d="M100.45,68.155l.122.163c.163.163.163.449,0,.612l-.122.163c-.082.041-.082.122,0,.204l.082.082c.041.041.163.041.204,0l.122-.122c.204-.204.489-.204.652,0l.122.122c.082.041.163.041.245,0l.082-.082c.041-.082.041-.163,0-.204l-.163-.163c-.163-.163-.163-.449,0-.612l.163-.163c.041-.041.041-.122,0-.204l-.122-.082c-.041-.041-.122-.041-.204,0l-.122.122c-.163.204-.449.204-.652,0l-.122-.122c-.041-.041-.163-.041-.204,0l-.082.082c-.082.082-.082.163,0,.204Z" fill="#005ab2" fill-rule="evenodd"/><path d="M121,68.155l.122.163c.163.163.163.449,0,.612l-.122.163c-.082.041-.082.122,0,.204l.082.082c.041.041.163.041.204,0l.122-.122c.204-.204.489-.204.652,0l.122.122c.082.041.163.041.245,0l.082-.082c.041-.082.041-.163,0-.204l-.163-.163c-.163-.163-.163-.449,0-.612l.163-.163c.041-.041.041-.122,0-.204l-.122-.082c-.041-.041-.122-.041-.204,0l-.122.122c-.163.204-.449.204-.652,0l-.122-.122c-.041-.041-.163-.041-.204,0l-.082.082c-.082.082-.082.163,0,.204Z" fill="#005ab2" fill-rule="evenodd"/><path d="M121.696,76.513h.815v3.303q0,.041.041.082l.367.816c.041.122.082.285.082.449v2.12h-.815v-2.243l-.367-.775c-.082-.163-.122-.285-.122-.449v-3.303Z" fill="#005ab2" fill-rule="evenodd"/><path d="M101.182,76.513h-.815v3.384l-.367.816c-.082.122-.122.285-.122.449v2.12h.815v-2.12c0-.041,0-.082.041-.122l.367-.775c.041-.163.082-.285.082-.449v-3.303Z" fill="#005ab2" fill-rule="evenodd"/><path d="M121.897,83.69v3.262c0,.245-.163.408-.408.408h-20.061c-.204,0-.408-.163-.408-.408v-3.262c0-.204-.163-.408-.408-.408h-1.631c-.204,0-.408.204-.408.408v3.262c0,1.59,1.305,2.854,2.854,2.854h20.061c1.59,0,2.854-1.264,2.854-2.854v-3.262c0-.204-.163-.408-.408-.408h-1.631c-.204,0-.408.204-.408.408Z" fill="#6d97d0" fill-rule="evenodd" stroke="#005ab2" stroke-miterlimit="10" stroke-width=".357"/></svg>