<?xml version="1.0" encoding="UTF-8"?><svg id="a" xmlns="http://www.w3.org/2000/svg" width="2.286in" height="1.45in" viewBox="0 0 164.564 104.4"><path d="M159.813,18.144v81.675H4.717V18.144h155.096M163.265,14.692H1.265v88.579h162V14.692h0Z" fill="#f69220"/><path d="M71.636,26.836c-1.25,0-2.26-1.011-2.26-2.257,0-.526.271-.967.475-1.388L80.486,1.867c.41-.529,1.054-.868,1.78-.868s1.374.34,1.783.868l10.632,21.324c.243.421.471.862.471,1.388,0,1.246-1.01,2.257-2.258,2.257h-21.259Z" fill="#f69220" fill-rule="evenodd"/><path d="M83.867,21.877c0,.884-.716,1.599-1.601,1.599s-1.6-.715-1.6-1.599.716-1.601,1.6-1.601,1.601.715,1.601,1.601Z" fill="#fff" fill-rule="evenodd"/><path d="M82.266,8.504c-.821,0-1.485.667-1.485,1.482l.491,8.009c0,.548.446.987.994.987.544,0,.986-.439.986-.987l.499-8.009c0-.816-.665-1.482-1.485-1.482Z" fill="#fff" fill-rule="evenodd"/><line x1="82.265" y1="33.173" x2="82.265" y2="92.567" fill="none" stroke="#f69220" stroke-linecap="round" stroke-linejoin="round" stroke-width="1.8"/><polyline points="38.652 88.644 63.371 74.185 63.371 67.784" fill="#fff" stroke="#211e1f" stroke-linecap="round" stroke-linejoin="round" stroke-width=".766"/><polyline points="16.66 69.38 41.421 55.105 63.358 67.784 38.607 82.051" fill="#fff" stroke="#211e1f" stroke-linecap="round" stroke-linejoin="round" stroke-width=".766"/><polygon points="38.603 88.62 38.603 82.056 16.663 69.383 16.629 75.667 38.603 88.62" fill="#fff" stroke="#211e1f" stroke-linecap="round" stroke-linejoin="round" stroke-width=".766"/><rect x="110.774" y="58.919" width="24.271" height="10.45" fill="#fff"/><path d="M135.045,69.369h-24.271v-10.45h24.271v10.45ZM136.283,70.608h-26.747v-12.927h26.747v12.927" fill="#211e1f" fill-rule="evenodd"/><path d="M109.297,44.275c0,2.078-1.684,3.758-3.762,3.758s-3.759-1.68-3.759-3.758,1.683-3.76,3.759-3.76,3.762,1.684,3.762,3.76Z" fill="#211e1f" fill-rule="evenodd"/><path d="M99.224,49.02c.86-1.505,2.982-2.277,4.216-1.36l3.211,2.186,2.885,7.008,5.612,5.282c.733.734.733,1.923,0,2.655-.732.736-1.922.736-2.659,0l-7.078-5.872-.826-2.887-2.472,5.363,6.188,7.833c.887,1.123.647,2.736.41,3.305l-4.266,10.737c-.474,1.14-1.789,1.683-2.931,1.206-1.142-.477-1.685-1.785-1.207-2.93l3.378-8.776c.24-.642-.119-1.593-.57-2.095l-7.603-8.866c-1.129-1.13-1.256-2.924-.451-4.535l4.163-8.254" fill="#211e1f" fill-rule="evenodd"/><path d="M136.526,44.275c0,2.078,1.683,3.758,3.759,3.758s3.76-1.68,3.76-3.758-1.685-3.76-3.76-3.76-3.759,1.684-3.759,3.76Z" fill="#211e1f" fill-rule="evenodd"/><path d="M146.598,49.02c-.861-1.505-2.982-2.277-4.218-1.36l-3.211,2.186-2.886,7.008-5.613,5.282c-.732.734-.732,1.923,0,2.655.734.736,1.926.736,2.659,0l7.08-5.872.825-2.887,2.474,5.363-6.186,7.833c-.888,1.123-.648,2.736-.414,3.305l4.268,10.737c.475,1.14,1.789,1.683,2.933,1.206,1.142-.477,1.682-1.785,1.207-2.93l-3.375-8.776c-.244-.642.116-1.593.562-2.095l7.607-8.866c1.13-1.13,1.258-2.924.454-4.535l-4.163-8.254" fill="#211e1f" fill-rule="evenodd"/><path d="M28.934,37.356l-.776.062c-.069-.307-.167-.529-.294-.668-.211-.223-.471-.334-.78-.334-.249,0-.467.069-.655.208-.246.18-.439.441-.581.785s-.215.833-.221,1.469c.188-.286.417-.498.689-.637.271-.139.556-.208.854-.208.52,0,.963.191,1.329.574.365.383.548.878.548,1.484,0,.399-.086.77-.258,1.112-.172.342-.408.604-.709.786-.3.183-.641.273-1.022.273-.65,0-1.181-.239-1.591-.718-.41-.478-.616-1.266-.616-2.364,0-1.228.227-2.121.681-2.679.396-.485.929-.729,1.599-.729.5,0,.91.141,1.229.421s.511.667.574,1.161ZM25.748,40.096c0,.269.057.525.171.771.114.245.274.433.479.562.205.128.42.192.646.192.329,0,.612-.133.85-.398.237-.267.355-.627.355-1.084,0-.439-.117-.785-.351-1.038-.234-.253-.529-.379-.884-.379-.353,0-.652.126-.897.379s-.368.585-.368.995Z" fill="#221f1f"/><path d="M33.833,41.405v.75h-4.2c-.006-.188.025-.368.091-.542.107-.286.278-.567.514-.845.235-.277.576-.599,1.021-.963.69-.566,1.157-1.015,1.4-1.346s.364-.644.364-.938c0-.309-.111-.57-.332-.782-.221-.213-.509-.318-.865-.318-.376,0-.676.112-.902.338-.225.226-.339.537-.342.937l-.802-.083c.055-.598.262-1.054.62-1.367.358-.313.839-.471,1.443-.471.61,0,1.092.169,1.448.508.355.338.533.757.533,1.257,0,.254-.052.504-.156.75-.104.245-.277.504-.518.775s-.642.645-1.203,1.118c-.468.394-.769.66-.901.8-.133.141-.243.281-.33.423h3.116Z" fill="#221f1f"/><path d="M35.019,42.155v-.889h.889v.889h-.889Z" fill="#221f1f"/><path d="M38.159,38.709c-.324-.118-.563-.287-.719-.507-.156-.22-.234-.482-.234-.789,0-.462.167-.851.499-1.166.333-.314.774-.473,1.326-.473.555,0,1.001.161,1.339.483.338.322.507.715.507,1.177,0,.295-.078.552-.232.77-.155.219-.39.387-.705.505.39.128.687.333.891.616.204.283.306.621.306,1.014,0,.544-.192,1-.576,1.37s-.89.555-1.517.555-1.133-.186-1.517-.557c-.384-.372-.576-.835-.576-1.39,0-.413.104-.759.314-1.038s.508-.469.895-.57ZM37.752,40.321c0,.223.053.438.158.646s.262.369.47.483.432.171.672.171c.373,0,.68-.12.923-.359.243-.24.364-.545.364-.915,0-.376-.125-.687-.375-.932-.25-.246-.562-.368-.938-.368-.367,0-.671.121-.912.363-.241.243-.362.547-.362.91ZM38.003,37.387c0,.3.097.546.29.736.194.19.445.286.754.286.3,0,.547-.095.739-.284.192-.188.289-.421.289-.695,0-.286-.099-.526-.297-.722-.198-.195-.444-.293-.739-.293-.297,0-.544.096-.741.286-.196.191-.294.419-.294.686Z" fill="#221f1f"/><path d="M41.811,40.477l.78-.104c.089.441.242.761.458.955.215.195.477.293.787.293.367,0,.677-.127.93-.382.252-.254.379-.568.379-.944,0-.358-.117-.654-.351-.887-.234-.232-.532-.349-.893-.349-.147,0-.331.028-.551.087l.087-.686c.052.006.094.009.125.009.333,0,.631-.087.897-.26.266-.174.398-.44.398-.802,0-.286-.097-.523-.29-.711-.194-.188-.444-.282-.75-.282-.303,0-.556.096-.758.286-.203.191-.333.477-.39.858l-.78-.139c.095-.523.312-.929.65-1.216.338-.287.758-.432,1.261-.432.347,0,.666.075.958.224s.515.352.67.609c.154.257.232.53.232.818,0,.275-.074.525-.221.75-.147.226-.366.405-.654.538.375.087.667.267.875.539.208.273.312.615.312,1.025,0,.555-.203,1.025-.607,1.411-.405.386-.916.578-1.534.578-.558,0-1.021-.166-1.389-.498-.369-.332-.579-.763-.631-1.292Z" fill="#221f1f"/><path d="M49.231,42.155v-6.354h.78v6.354h-.78Z" fill="#221f1f"/><path d="M51.851,42.155h-.724v-6.354h.78v2.267c.33-.413.75-.619,1.261-.619.283,0,.551.057.804.171.252.114.461.274.624.481.163.206.291.456.383.747.093.292.139.604.139.937,0,.789-.195,1.398-.585,1.829s-.858.646-1.404.646c-.543,0-.969-.228-1.278-.681v.576ZM51.842,39.819c0,.552.075.95.226,1.196.245.401.578.603.997.603.341,0,.636-.148.884-.444.249-.297.373-.738.373-1.324,0-.602-.119-1.045-.357-1.331s-.526-.429-.865-.429c-.341,0-.636.147-.884.444-.249.296-.373.725-.373,1.285Z" fill="#221f1f"/><path d="M24.917,53.023c-.431-.543-.795-1.179-1.092-1.907-.298-.729-.446-1.482-.446-2.263,0-.688.111-1.347.333-1.977.26-.731.662-1.459,1.205-2.185h.559c-.35.602-.581,1.03-.693,1.287-.176.399-.315.815-.417,1.249-.124.54-.186,1.083-.186,1.63,0,1.39.432,2.778,1.296,4.165h-.559Z" fill="#221f1f"/><path d="M30.176,50.405v.75h-4.2c-.006-.188.025-.368.091-.542.107-.286.278-.567.514-.845.235-.277.576-.599,1.021-.963.69-.566,1.157-1.015,1.4-1.346s.364-.644.364-.938c0-.309-.111-.57-.332-.782-.221-.213-.509-.318-.865-.318-.376,0-.676.112-.902.338-.225.226-.339.537-.342.937l-.802-.083c.055-.598.262-1.054.62-1.367.358-.313.839-.471,1.443-.471.61,0,1.092.169,1.448.508.355.338.533.757.533,1.257,0,.254-.052.504-.156.75-.104.245-.277.504-.518.775s-.642.645-1.203,1.118c-.468.394-.769.66-.901.8-.133.141-.243.281-.33.423h3.116Z" fill="#221f1f"/><path d="M32.125,47.709c-.324-.118-.563-.287-.719-.507-.156-.22-.234-.482-.234-.789,0-.462.167-.851.499-1.166.333-.314.774-.473,1.326-.473.555,0,1.001.161,1.339.483.338.322.507.715.507,1.177,0,.295-.078.552-.232.77-.155.219-.39.387-.705.505.39.128.687.333.891.616.204.283.306.621.306,1.014,0,.544-.192,1-.576,1.37s-.89.555-1.517.555-1.133-.186-1.517-.557c-.384-.372-.576-.835-.576-1.39,0-.413.104-.759.314-1.038s.508-.469.895-.57ZM31.717,49.321c0,.223.053.438.158.646s.262.369.47.483.432.171.672.171c.373,0,.68-.12.923-.359.243-.24.364-.545.364-.915,0-.376-.125-.687-.375-.932-.25-.246-.562-.368-.938-.368-.367,0-.671.121-.912.363-.241.243-.362.547-.362.91ZM31.969,46.387c0,.3.097.546.29.736.194.19.445.286.754.286.3,0,.547-.095.739-.284.192-.188.289-.421.289-.695,0-.286-.099-.526-.297-.722-.198-.195-.444-.293-.739-.293-.297,0-.544.096-.741.286-.196.191-.294.419-.294.686Z" fill="#221f1f"/><path d="M36.21,51.155v-.889h.889v.889h-.889Z" fill="#221f1f"/><path d="M38.149,49.491l.819-.069c.061.398.202.698.423.899.221.2.487.301.799.301.375,0,.693-.142.954-.425s.39-.659.39-1.127c0-.445-.125-.796-.375-1.054-.25-.257-.577-.386-.981-.386-.251,0-.479.058-.681.172s-.361.262-.477.444l-.732-.096.615-3.264h3.16v.745h-2.536l-.342,1.708c.381-.266.782-.398,1.201-.398.555,0,1.022.192,1.404.576.381.385.572.879.572,1.482,0,.575-.167,1.072-.502,1.491-.408.515-.964.771-1.669.771-.578,0-1.049-.162-1.415-.485-.366-.324-.574-.753-.626-1.287Z" fill="#221f1f"/><path d="M45.596,51.155v-6.354h.78v3.624l1.846-1.873h1.01l-1.759,1.708,1.937,2.896h-.962l-1.521-2.354-.55.528v1.825h-.78Z" fill="#221f1f"/><path d="M49.797,51.537l.759.112c.032.234.12.404.264.512.194.145.458.217.793.217.361,0,.64-.072.836-.217.196-.145.329-.347.398-.607.041-.158.06-.492.057-1.001-.341.401-.766.603-1.274.603-.633,0-1.123-.229-1.469-.685-.347-.457-.52-1.005-.52-1.644,0-.438.08-.844.238-1.216.159-.371.389-.657.691-.86.302-.202.657-.303,1.064-.303.543,0,.991.22,1.344.658v-.555h.719v3.979c0,.717-.073,1.225-.219,1.523s-.377.535-.693.709c-.316.173-.706.26-1.168.26-.549,0-.992-.123-1.331-.37-.338-.247-.501-.619-.49-1.116ZM50.443,48.771c0,.604.12,1.044.36,1.322.24.277.54.416.901.416.358,0,.659-.139.901-.414.243-.276.364-.709.364-1.299,0-.563-.125-.988-.375-1.274-.25-.285-.551-.429-.904-.429-.347,0-.641.141-.884.423-.243.281-.364.7-.364,1.255Z" fill="#221f1f"/><path d="M55.3,53.023h-.559c.864-1.387,1.296-2.775,1.296-4.165,0-.544-.062-1.083-.187-1.617-.098-.434-.235-.85-.412-1.248-.113-.261-.345-.694-.698-1.301h.559c.543.726.945,1.453,1.205,2.185.223.63.334,1.289.334,1.977,0,.78-.149,1.534-.449,2.263-.299.729-.663,1.364-1.09,1.907Z" fill="#221f1f"/></svg>