<?xml version="1.0" encoding="UTF-8"?><svg id="a" xmlns="http://www.w3.org/2000/svg" width="2.25in" height="1.518in" viewBox="0 0 162 109.272"><path d="M158.548,17.145v88.675H3.452V17.145h155.096M162,13.693H0v95.579h162V13.693h0Z" fill="#f69220"/><path d="M25.91,40.494h-.78v-4.972c-.188.179-.434.358-.739.537-.305.18-.579.313-.821.403v-.754c.437-.205.818-.454,1.145-.746.326-.292.558-.574.693-.85h.503v6.381Z" fill="#221f1f"/><path d="M27.819,38.83l.819-.069c.061.398.202.698.423.899.221.2.487.301.799.301.375,0,.693-.142.954-.425s.39-.659.39-1.127c0-.445-.125-.796-.375-1.054-.25-.257-.577-.386-.981-.386-.251,0-.479.058-.681.172s-.361.262-.477.444l-.732-.096.615-3.264h3.16v.745h-2.536l-.342,1.708c.381-.266.782-.398,1.201-.398.555,0,1.022.192,1.404.576.381.385.572.879.572,1.482,0,.575-.167,1.072-.502,1.491-.408.515-.964.771-1.669.771-.578,0-1.049-.162-1.415-.485-.366-.324-.574-.753-.626-1.287Z" fill="#221f1f"/><path d="M35.606,40.494h-.78v-4.972c-.188.179-.434.358-.739.537-.305.18-.579.313-.821.403v-.754c.437-.205.818-.454,1.145-.746.326-.292.558-.574.693-.85h.503v6.381Z" fill="#221f1f"/><path d="M37.952,40.494v-.889h.889v.889h-.889Z" fill="#221f1f"/><path d="M43.94,35.695l-.776.062c-.069-.307-.167-.529-.294-.668-.211-.223-.471-.334-.78-.334-.249,0-.467.069-.655.208-.246.18-.439.441-.581.785s-.215.833-.221,1.469c.188-.286.417-.498.689-.637.271-.139.556-.208.854-.208.52,0,.963.191,1.329.574.365.383.548.878.548,1.484,0,.399-.086.77-.258,1.112-.172.342-.408.604-.709.786-.3.183-.641.273-1.022.273-.65,0-1.181-.239-1.591-.718-.41-.478-.616-1.266-.616-2.364,0-1.228.227-2.121.681-2.679.396-.485.929-.729,1.599-.729.5,0,.91.141,1.229.421s.511.667.574,1.161ZM40.755,38.435c0,.269.057.525.171.771.114.245.274.433.479.562.205.128.42.192.646.192.329,0,.612-.133.85-.398.237-.267.355-.627.355-1.084,0-.439-.117-.785-.351-1.038-.234-.253-.529-.379-.884-.379-.353,0-.652.126-.897.379s-.368.585-.368.995Z" fill="#221f1f"/><path d="M45.94,37.048c-.324-.118-.563-.287-.719-.507-.156-.22-.234-.482-.234-.789,0-.462.167-.851.499-1.166.333-.314.774-.473,1.326-.473.555,0,1.001.161,1.339.483.338.322.507.715.507,1.177,0,.295-.078.552-.232.77-.155.219-.39.387-.705.505.39.128.687.333.891.616.204.283.306.621.306,1.014,0,.544-.192,1-.576,1.37s-.89.555-1.517.555-1.133-.186-1.517-.557c-.384-.372-.576-.835-.576-1.39,0-.413.104-.759.314-1.038s.508-.469.895-.57ZM45.533,38.66c0,.223.053.438.158.646s.262.369.47.483.432.171.672.171c.373,0,.68-.12.923-.359.243-.24.364-.545.364-.915,0-.376-.125-.687-.375-.932-.25-.246-.562-.368-.938-.368-.367,0-.671.121-.912.363-.241.243-.362.547-.362.91ZM45.784,35.726c0,.3.097.546.29.736.194.19.445.286.754.286.3,0,.547-.095.739-.284.192-.188.289-.421.289-.695,0-.286-.099-.526-.297-.722-.198-.195-.444-.293-.739-.293-.297,0-.544.096-.741.286-.196.191-.294.419-.294.686Z" fill="#221f1f"/><path d="M52.164,40.494v-6.354h.78v6.354h-.78Z" fill="#221f1f"/><path d="M54.784,40.494h-.724v-6.354h.78v2.267c.33-.413.75-.619,1.261-.619.283,0,.551.057.804.171.252.114.461.274.624.481.163.206.291.456.383.747.093.292.139.604.139.937,0,.789-.195,1.398-.585,1.829s-.858.646-1.404.646c-.543,0-.969-.228-1.278-.681v.576ZM54.776,38.158c0,.552.075.95.226,1.196.245.401.578.603.997.603.341,0,.636-.148.884-.444.249-.297.373-.738.373-1.324,0-.602-.119-1.045-.357-1.331s-.526-.429-.865-.429c-.341,0-.636.147-.884.444-.249.296-.373.725-.373,1.285Z" fill="#221f1f"/><path d="M25.426,51.362c-.431-.543-.795-1.179-1.092-1.907-.298-.729-.446-1.482-.446-2.263,0-.688.111-1.347.333-1.977.26-.731.662-1.459,1.205-2.185h.559c-.35.602-.581,1.03-.693,1.287-.176.399-.315.815-.417,1.249-.124.54-.186,1.083-.186,1.63,0,1.39.432,2.778,1.296,4.165h-.559Z" fill="#221f1f"/><path d="M30.634,44.695l-.776.062c-.069-.307-.167-.529-.294-.668-.211-.223-.471-.334-.78-.334-.249,0-.467.069-.655.208-.246.18-.439.441-.581.785s-.215.833-.221,1.469c.188-.286.417-.498.689-.637.271-.139.556-.208.854-.208.52,0,.963.191,1.329.574.365.383.548.878.548,1.484,0,.399-.086.77-.258,1.112-.172.342-.408.604-.709.786-.3.183-.641.273-1.022.273-.65,0-1.181-.239-1.591-.718-.41-.478-.616-1.266-.616-2.364,0-1.228.227-2.121.681-2.679.396-.485.929-.729,1.599-.729.5,0,.91.141,1.229.421s.511.667.574,1.161ZM27.448,47.435c0,.269.057.525.171.771.114.245.274.433.479.562.205.128.42.192.646.192.329,0,.612-.133.85-.398.237-.267.355-.627.355-1.084,0-.439-.117-.785-.351-1.038-.234-.253-.529-.379-.884-.379-.353,0-.652.126-.897.379s-.368.585-.368.995Z" fill="#221f1f"/><path d="M32.634,46.048c-.324-.118-.563-.287-.719-.507-.156-.22-.234-.482-.234-.789,0-.462.167-.851.499-1.166.333-.314.774-.473,1.326-.473.555,0,1.001.161,1.339.483.338.322.507.715.507,1.177,0,.295-.078.552-.232.77-.155.219-.39.387-.705.505.39.128.687.333.891.616.204.283.306.621.306,1.014,0,.544-.192,1-.576,1.37s-.89.555-1.517.555-1.133-.186-1.517-.557c-.384-.372-.576-.835-.576-1.39,0-.413.104-.759.314-1.038s.508-.469.895-.57ZM32.227,47.66c0,.223.053.438.158.646s.262.369.47.483.432.171.672.171c.373,0,.68-.12.923-.359.243-.24.364-.545.364-.915,0-.376-.125-.687-.375-.932-.25-.246-.562-.368-.938-.368-.367,0-.671.121-.912.363-.241.243-.362.547-.362.91ZM32.478,44.726c0,.3.097.546.29.736.194.19.445.286.754.286.3,0,.547-.095.739-.284.192-.188.289-.421.289-.695,0-.286-.099-.526-.297-.722-.198-.195-.444-.293-.739-.293-.297,0-.544.096-.741.286-.196.191-.294.419-.294.686Z" fill="#221f1f"/><path d="M36.719,49.494v-.889h.889v.889h-.889Z" fill="#221f1f"/><path d="M39.859,46.048c-.324-.118-.563-.287-.719-.507-.156-.22-.234-.482-.234-.789,0-.462.167-.851.499-1.166.333-.314.774-.473,1.326-.473.555,0,1.001.161,1.339.483.338.322.507.715.507,1.177,0,.295-.078.552-.232.77-.155.219-.39.387-.705.505.39.128.687.333.891.616.204.283.306.621.306,1.014,0,.544-.192,1-.576,1.37s-.89.555-1.517.555-1.133-.186-1.517-.557c-.384-.372-.576-.835-.576-1.39,0-.413.104-.759.314-1.038s.508-.469.895-.57ZM39.452,47.66c0,.223.053.438.158.646s.262.369.47.483.432.171.672.171c.373,0,.68-.12.923-.359.243-.24.364-.545.364-.915,0-.376-.125-.687-.375-.932-.25-.246-.562-.368-.938-.368-.367,0-.671.121-.912.363-.241.243-.362.547-.362.91ZM39.703,44.726c0,.3.097.546.29.736.194.19.445.286.754.286.3,0,.547-.095.739-.284.192-.188.289-.421.289-.695,0-.286-.099-.526-.297-.722-.198-.195-.444-.293-.739-.293-.297,0-.544.096-.741.286-.196.191-.294.419-.294.686Z" fill="#221f1f"/><path d="M46.105,49.494v-6.354h.78v3.624l1.846-1.873h1.01l-1.759,1.708,1.937,2.896h-.962l-1.521-2.354-.55.528v1.825h-.78Z" fill="#221f1f"/><path d="M50.307,49.876l.759.112c.032.234.12.404.264.512.194.145.458.217.793.217.361,0,.64-.072.836-.217.196-.145.329-.347.398-.607.041-.158.06-.492.057-1.001-.341.401-.766.603-1.274.603-.633,0-1.123-.229-1.469-.685-.347-.457-.52-1.005-.52-1.644,0-.438.08-.844.238-1.216.159-.371.389-.657.691-.86.302-.202.657-.303,1.064-.303.543,0,.991.22,1.344.658v-.555h.719v3.979c0,.717-.073,1.225-.219,1.523s-.377.535-.693.709c-.316.173-.706.26-1.168.26-.549,0-.992-.123-1.331-.37-.338-.247-.501-.619-.49-1.116ZM50.953,47.11c0,.604.12,1.044.36,1.322.24.277.54.416.901.416.358,0,.659-.139.901-.414.243-.276.364-.709.364-1.299,0-.563-.125-.988-.375-1.274-.25-.285-.551-.429-.904-.429-.347,0-.641.141-.884.423-.243.281-.364.7-.364,1.255Z" fill="#221f1f"/><path d="M55.809,51.362h-.559c.864-1.387,1.296-2.775,1.296-4.165,0-.544-.062-1.083-.187-1.617-.098-.434-.235-.85-.412-1.248-.113-.261-.345-.694-.698-1.301h.559c.543.726.945,1.453,1.205,2.185.223.63.334,1.289.334,1.977,0,.78-.149,1.534-.449,2.263-.299.729-.663,1.364-1.09,1.907Z" fill="#221f1f"/><path d="M70.371,25.837c-1.25,0-2.26-1.011-2.26-2.257,0-.526.271-.967.475-1.388L79.222.868c.41-.529,1.054-.868,1.78-.868s1.374.34,1.783.868l10.632,21.324c.243.421.471.862.471,1.388,0,1.246-1.01,2.257-2.258,2.257h-21.259Z" fill="#f69220" fill-rule="evenodd"/><path d="M82.603,20.878c0,.884-.716,1.599-1.601,1.599s-1.6-.715-1.6-1.599.716-1.601,1.6-1.601,1.601.715,1.601,1.601Z" fill="#fff" fill-rule="evenodd"/><path d="M81.002,7.505c-.821,0-1.485.667-1.485,1.482l.491,8.009c0,.548.446.987.994.987.544,0,.986-.439.986-.987l.499-8.009c0-.816-.665-1.482-1.485-1.482Z" fill="#fff" fill-rule="evenodd"/><path d="M100.691,46.122c0,2.022,1.641,3.66,3.662,3.66s3.66-1.638,3.66-3.66-1.637-3.663-3.66-3.663-3.662,1.641-3.662,3.663Z" fill="#221f1f"/><path d="M105.155,51.879l-3.739-2.593s-1.831-.686-2.441,1.299l-5.11,10.221s-.228,1.907,1.678,3.586l7.019,8.086s.99.99.15,3.05l-2.744,6.179s-1.146,2.06.152,3.433l1.449.84s1.371,0,2.059-1.374l3.814-9.535s.765-3.281-.762-5.034l-5.035-5.722s-.838-1.449-.228-2.67l2.136-3.354.802-.154s-.343,2.441,1.182,3.356l6.864,5.645s1.144.077,1.525-.534l.613-.763s.454-1.297-.613-2.289l-5.911-5.261-2.859-6.41Z" fill="#221f1f"/><path d="M134.712,46.082c0,2.022-1.641,3.663-3.66,3.663s-3.662-1.641-3.662-3.663,1.637-3.66,3.662-3.66,3.66,1.638,3.66,3.66Z" fill="#221f1f"/><path d="M127.962,50.66h5.189s2.057.459,2.132,2.212c.077,1.755,0,5.57,0,5.57l.035,8.086s-.718.723-1.329,1.048c0,0-.535.248-.687.934l-.535,8.39.077,7.705s-.458,1.83-1.793,1.907h-.824s-1.35-.611-1.655-2.518v-11.213s-2.059-2.441-2.748-4.196c-.686-1.755-.686-10.831-.686-10.831,0,0-.076-.992-.915-.304l-4.731,6.635s-.895.403-1.41.229c0,0-1.088-.8-.744-2.174l8.126-10.412s1.219-1.39,2.497-1.067Z" fill="#221f1f"/><polygon points="120.344 76.217 136.624 73.556 136.624 60.548 120.344 57.887 104.066 60.548 104.066 73.556 120.344 76.217" fill="#fff"/><line x1="120.344" y1="63.209" x2="120.344" y2="76.217" fill="none" stroke="#221f1f" stroke-width="1.198"/><line x1="104.066" y1="60.548" x2="104.066" y2="73.556" fill="none" stroke="#221f1f" stroke-width="1.198"/><line x1="136.624" y1="60.548" x2="136.624" y2="73.556" fill="none" stroke="#221f1f" stroke-width="1.198"/><line x1="104.066" y1="60.548" x2="120.344" y2="63.209" fill="none" stroke="#221f1f" stroke-width="1.198"/><line x1="136.624" y1="60.548" x2="120.344" y2="63.209" fill="none" stroke="#221f1f" stroke-width="1.198"/><line x1="104.066" y1="60.548" x2="120.344" y2="57.887" fill="none" stroke="#221f1f" stroke-width="1.198"/><line x1="136.624" y1="60.548" x2="120.344" y2="57.887" fill="none" stroke="#221f1f" stroke-width="1.198"/><line x1="104.066" y1="73.556" x2="120.344" y2="76.217" fill="none" stroke="#221f1f" stroke-width="1.198"/><line x1="136.624" y1="73.556" x2="120.344" y2="76.217" fill="none" stroke="#221f1f" stroke-width="1.198"/><path d="M142.339,46.122c0,2.022-1.637,3.66-3.66,3.66s-3.66-1.638-3.66-3.66,1.636-3.663,3.66-3.663,3.66,1.641,3.66,3.663Z" fill="#221f1f"/><path d="M137.877,51.879l3.739-2.593s1.83-.686,2.441,1.299l5.109,10.221s.229,1.907-1.677,3.586l-7.02,8.086s-.988.99-.15,3.05l2.745,6.179s1.144,2.06-.152,3.433l-1.449.84s-1.374,0-2.059-1.374l-3.815-9.535s-.764-3.281.763-5.034l5.034-5.722s.839-1.449.229-2.67l-2.137-3.354-.8-.154s.342,2.441-1.182,3.356l-6.866,5.645s-1.144.077-1.525-.534l-.612-.763s-.455-1.297.612-2.289l5.912-5.261,2.859-6.41Z" fill="#221f1f"/><path d="M109.182,46.082c0,2.022,1.638,3.663,3.66,3.663s3.66-1.641,3.66-3.663-1.637-3.66-3.66-3.66-3.66,1.638-3.66,3.66Z" fill="#221f1f"/><path d="M115.932,50.66h-5.186s-2.06.459-2.136,2.212c-.077,1.755,0,5.57,0,5.57l-.034,8.086s.721.723,1.329,1.048c0,0,.535.248.687.934l.535,8.39-.075,7.705s.455,1.83,1.79,1.907h.823s1.353-.611,1.658-2.518v-11.213s2.057-2.441,2.745-4.196c.686-1.755.686-10.831.686-10.831,0,0,.077-.992.915-.304l4.731,6.635s.896.403,1.412.229c0,0,1.084-.8.742-2.174l-8.124-10.412s-1.222-1.39-2.499-1.067Z" fill="#221f1f"/><polyline points="39.109 94.9 64.793 79.876 64.793 67.738" fill="#fff" stroke="#211e1f" stroke-linecap="round" stroke-linejoin="round" stroke-width=".795"/><polyline points="16.258 69.395 41.987 56.015 64.779 67.738 39.062 82.562" fill="#fff" stroke="#211e1f" stroke-linecap="round" stroke-linejoin="round" stroke-width=".795"/><polygon points="39.058 94.874 39.058 82.567 16.261 69.399 16.227 81.416 39.058 94.874" fill="#fff" stroke="#211e1f" stroke-linecap="round" stroke-linejoin="round" stroke-width=".795"/><line x1="16.28" y1="75.787" x2="38.884" y2="88.858" fill="#fff" stroke="#211e1f" stroke-linecap="round" stroke-linejoin="round" stroke-width=".795"/><line x1="81" y1="32.174" x2="81" y2="98.568" fill="none" stroke="#f69220" stroke-linecap="round" stroke-linejoin="round" stroke-width="1.8"/></svg>